<?xml version="1.0" encoding="utf-8"?>
<svg viewBox="16.6574 270.7432 115.2121 114.6547" xmlns="http://www.w3.org/2000/svg">
  <path stroke-width="0" d="M 155.277 100.475 C 158.182 100.278 162.734 101.749 167.454 103.954 C 173.869 106.952 186.269 114.105 190.359 118.741 C 193.027 121.765 193.26 124.437 193.839 127.439 C 194.415 130.43 194.871 132.659 193.839 136.717 C 192.197 143.169 182.831 157.549 181.081 163.392 C 180.099 166.672 180.086 168.103 180.501 170.35 C 180.927 172.649 182.183 175.31 183.691 177.019 C 185.125 178.643 188.039 179.377 189.2 180.498 C 190.02 181.29 190.215 182.261 190.649 182.818 C 190.965 183.222 191.233 183.101 191.519 183.687 C 192.116 184.91 193.663 189.004 193.259 191.226 C 192.877 193.32 191.247 195.619 189.49 196.735 C 187.693 197.875 185.239 198.674 182.531 197.894 C 178.61 196.765 171.601 191.117 168.324 187.167 C 165.507 183.771 164.018 180.32 163.105 176.149 C 162.096 171.539 161.641 166.239 163.105 160.492 C 164.919 153.377 173.622 141.811 175.283 136.717 C 176.186 133.947 177.243 133.169 175.862 130.919 C 173.166 126.524 153.269 118.647 149.768 114.102 C 147.897 111.673 148.366 109.661 148.608 107.724 C 148.834 105.916 149.779 104.01 150.928 102.795 C 152.031 101.627 153.285 100.61 155.277 100.475 Z M 227.993 104.07 C 230.924 103.178 233.574 103.878 235.532 104.65 C 237.183 105.302 238.391 106.432 239.301 107.84 C 240.288 109.367 241.282 111.662 241.041 113.638 C 240.775 115.809 239.288 118.298 237.271 120.307 C 234.819 122.749 229.15 123.03 226.544 126.686 C 223.32 131.207 219.826 142.545 221.325 147.271 C 222.527 151.062 228.31 151.256 231.183 154.52 C 234.41 158.186 237.759 162.944 239.301 168.727 C 241.126 175.571 240.786 188.987 239.881 193.661 C 239.408 196.105 238.946 196.928 237.561 198.01 C 235.867 199.334 232.159 200.681 229.733 200.33 C 227.331 199.982 224.502 198.803 223.064 195.981 C 220.903 191.738 223.412 178.733 221.905 173.946 C 220.927 170.839 219.544 169.873 217.556 167.857 C 215.153 165.421 210.301 163.27 207.988 160.608 C 205.966 158.283 204.696 156.347 203.928 153.07 C 202.923 148.777 202.707 142.2 203.928 136.254 C 205.326 129.452 208.579 119.97 212.917 114.508 C 216.843 109.565 223.816 105.343 227.993 104.07 Z M 81.401 100.939 C 83.411 100.809 88.369 100.609 90.969 103.259 C 94.689 107.051 97.132 119.839 98.507 126.164 C 99.555 130.984 100.168 134.446 99.667 138.341 C 99.173 142.173 97.94 145.036 95.608 149.359 C 92.371 155.356 84.622 168.006 80.241 171.104 C 77.665 172.925 75.378 172.722 73.282 172.264 C 71.232 171.816 68.926 170.534 67.774 168.495 C 66.362 165.997 65.789 160.755 66.614 157.477 C 67.412 154.304 71.226 150.383 72.413 149.069 C 72.956 148.467 73.012 148.908 73.572 148.199 C 75.058 146.318 81.304 138.886 81.691 133.702 C 82.095 128.287 76.215 121.026 75.312 116.306 C 74.644 112.818 74.577 110.055 75.312 107.608 C 75.973 105.406 77.901 103.18 79.081 102.099 C 79.89 101.358 80.222 101.015 81.401 100.939 Z M 117.005 108.362 C 119.453 107.775 127.754 107.097 132.082 108.362 C 136.051 109.521 140.261 111.511 142.23 115.03 C 144.505 119.097 144.127 127.283 143.389 132.426 C 142.733 137.005 138.699 140.88 138.75 144.604 C 138.797 147.97 143.042 151.214 142.81 153.882 C 142.604 156.245 140.378 158.767 138.46 159.971 C 136.587 161.146 133.859 161.724 131.502 161.13 C 128.751 160.437 125.01 157.149 123.094 155.042 C 121.558 153.352 120.714 151.911 120.194 149.823 C 119.59 147.395 119.54 144.493 120.194 141.125 C 121.039 136.781 127.182 127.942 125.993 125.758 C 125.109 124.134 120.293 126.32 118.165 125.758 C 116.375 125.285 114.897 124.619 113.816 123.148 C 112.489 121.345 111.142 117.376 111.496 115.03 C 111.819 112.895 114.214 110.608 115.265 109.521 C 115.926 108.838 115.894 108.627 117.005 108.362 Z M 58.554 104.07 C 60.649 104.185 65.802 105.991 67.542 107.84 C 68.98 109.368 69.283 111.304 69.281 113.638 C 69.279 116.645 66.667 120.513 66.382 124.656 C 66.053 129.441 68.916 135.742 68.122 140.893 C 67.337 145.98 62.452 151.606 61.743 155.389 C 61.249 158.024 62.867 159.874 62.323 161.768 C 61.785 163.638 60.271 165.676 58.554 166.697 C 56.745 167.772 53.748 168.361 51.595 167.857 C 49.391 167.341 46.833 165.768 45.506 163.508 C 43.919 160.803 43.245 156.29 43.767 151.91 C 44.41 146.507 50.639 137.472 50.725 133.354 C 50.778 130.851 48.839 130.312 48.406 128.135 C 47.855 125.365 47.413 121.257 48.406 117.698 C 49.536 113.646 53.649 107.154 55.654 105.23 C 56.741 104.187 57.225 103.998 58.554 104.07 Z" style="stroke-width: 2px; fill: rgb(46, 48, 42); transform-origin: 149.406px 105.161px;" transform="matrix(0.999391019344, -0.034900005907, 0.034900005907, 0.999391019344, 4.60053e-7, -1.72386e-7)"/>
</svg>
