<?xml version="1.0" encoding="utf-8"?>
<svg viewBox="0 0 29.3 27.5" width="14.65px" height="13.75px" xmlns="http://www.w3.org/2000/svg">
  <defs>
    <linearGradient gradientUnits="userSpaceOnUse" x1="23.091" y1="1.998" x2="23.091" y2="8.518" id="gradient-0" gradientTransform="matrix(-0.760295, -0.649578, 0.165125, -0.19327, 40.306885, 20.745462)">
      <stop offset="0" style="stop-color: rgba(153, 153, 153, 1)"/>
      <stop offset="1" style="stop-color: rgb(76, 76, 76);"/>
    </linearGradient>
  </defs>
  <path style="stroke: rgb(0, 0, 0); fill: rgb(153, 153, 153);" d="M 13.085 0.51 C 15.503 0.51 17.073 0.433 19.341 1.57 C 19.862 1.832 19.919 1.815 21.184 1.876 C 21.237 1.879 22.307 1.45 22.354 1.461 C 23.018 1.618 23.246 3.64 23.838 4.231 C 24.227 4.619 26.447 5.781 26.621 5.92 C 27.55 6.66 26.324 8.074 27.027 8.985 C 29.949 12.768 29.28 15.559 24.921 20.788 C 16.278 31.154 7.173 27.131 2.444 18.94 C -0.467 13.898 -0.473 6.022 5.566 4.137 C 8.254 3.298 10.297 0.898 13.194 0.51"/>
  <circle style="fill-opacity: 0.39; fill: rgb(47, 47, 47);" transform="matrix(0.295945, 0, 0, 0.495458, -124.225763, -83.93831)" cx="474.2" cy="196.4" r="17.8"/>
  <path d="M 16.127 8.527 C 16.589 8.312 17.291 8.629 17.622 9.206 C 18.167 10.157 18.225 13.322 17.894 14.915 C 17.611 16.272 16.78 18.027 16.127 18.313 C 15.661 18.516 14.961 18.202 14.632 17.633 C 14.1 16.714 14.053 13.777 14.36 12.197 C 14.633 10.789 15.463 8.836 16.127 8.527 Z" style="fill: rgb(40, 40, 40); stroke: rgb(170, 169, 169);"/>
  <path stroke-width="0" d="M 6.411 21.588 C 7.103 21.208 9.262 21.677 10.554 22.18 C 11.881 22.696 13.69 23.966 14.254 24.695 C 14.589 25.129 14.789 25.603 14.549 25.879 C 14.188 26.297 12.388 26.607 11.146 26.323 C 9.589 25.967 6.461 24.169 5.967 23.216 C 5.671 22.643 5.93 21.852 6.411 21.588 Z" style="stroke-width: 2px; fill: rgb(52, 53, 49);"/>
  <path style="stroke: rgb(0, 0, 0); fill: rgb(146, 137, 137);" d="M 0.62 11.053 C 0.557 11.116 0.775 9.125 1.503 7.516 C 1.972 6.479 3.071 5.833 3.427 5.431 C 10.75 10.817 2.26 12.259 0.62 11.053 Z"/>
  <path stroke-width="0" d="M 24.194 14.225 C 24.78 14.201 26.524 14.664 26.922 15.017 C 27.152 15.222 27.143 15.471 27.098 15.721 C 27.043 16.021 26.846 16.467 26.482 16.689 C 25.999 16.983 24.824 17.155 24.194 17.041 C 23.658 16.944 23.006 16.64 22.874 16.249 C 22.734 15.834 23.215 14.905 23.49 14.577 C 23.688 14.34 23.843 14.239 24.194 14.225 Z" style="stroke-width: 2px;"/>
  <path style="fill: url(#gradient-0);" d="M 19.664 2.401 L 26.352 8.518 L 26.528 6.451 C 26.728 6.282 23.76 4.501 23.352 4.53 C 23.54 4.405 22.544 2.11 22.232 1.998 C 22.206 2.011 19.387 2.084 19.664 2.401 Z"/>
</svg>