<?xml version="1.0" encoding="utf-8"?>
<svg viewBox="0 0 232.5 226.5" width="232.5" height="226.5" xmlns="http://www.w3.org/2000/svg">
  <path style="stroke: rgb(0, 0, 0); fill: rgb(150, 111, 51);" d="M 56.447 2.223 C -24.863 10.495 -8.613 215.045 52.362 222.919 L 165.526 225.748 C 236.1 218.345 264.242 11.267 174.325 1.6 L 56.447 2.223 Z"/>
  <path style="stroke-width: 6px; fill: none; stroke: rgb(87, 64, 29);" d="M 41.506 11.898 C 31.383 9.951 8.623 201.188 30.186 205.335"/>
  <path style="stroke-width: 6px; fill: none; stroke: rgb(87, 64, 29);" d="M 96.651 15.023 C 94.412 17.833 91.213 38.428 90.064 45.885 C 83.031 91.558 94.162 208.838 95.455 207.215"/>
  <path style="stroke-width: 6px; fill: none; stroke: rgb(87, 64, 29);" d="M 61.415 200.677 C 44.409 197.337 57.996 11.773 62.941 12.744"/>
  <path style="stroke-width: 6px; fill: none; stroke: rgb(87, 64, 29);" d="M 156.768 14.706 C 157.422 14.837 169.575 191.737 156.575 194.529"/>
  <path style="stroke-width: 6px; fill: none; stroke: rgb(87, 64, 29);" d="M 194.595 19.876 C 208.387 31.829 198.167 200.956 194.402 197.693"/>
  <path style="stroke-width: 6px; fill: none; stroke: rgb(87, 64, 29);" d="M 129.986 20.071 C 151.982 46.106 123.646 203.145 122.207 200.665"/>
  <path style="stroke: rgb(0, 0, 0); fill: rgb(161, 157, 148);" d="M 22.298 24.224 L 208.479 21.231 C 212.294 19.47 181.895 -1.562 175.478 1.4 L 55.898 2.074 C 54.084 1.901 45.936 3.634 38.551 8.319 C 28.876 14.456 19.921 23.998 22.298 24.224 Z"/>
  <path style="stroke: rgb(0, 0, 0); fill: rgb(161, 157, 148);" d="M 17.186 189.006 L 209.244 189.006 C 208.224 192.893 201.264 204.159 192.216 213.243 C 185.31 220.176 173.185 225.314 165.865 225.582 L 51.669 222.652 C 47.551 222.953 36.94 218.793 28.997 208.812 C 23.234 201.57 15.922 192.741 17.186 189.006 Z"/>
  <path style="stroke: rgb(0, 0, 0); fill: rgb(161, 157, 148);" d="M 3.21 75.702 C 3.21 67.613 229.644 65.749 229.644 75.702 C 231.151 76.003 232.855 101.495 229.644 100.853 C 227.897 112.793 -0.339 109.385 0.91 100.853 C 0.178 100.644 2.249 75.428 3.21 75.702 Z"/>
  <circle style="stroke: rgb(0, 0, 0); fill: rgb(123, 120, 111);" transform="matrix(0.470907, 0, 0, 0.262752, -188.25516, -7.86367)" cx="459.2" cy="375.6" r="27.6"/>
  <circle style="stroke: rgb(0, 0, 0); fill: rgb(123, 120, 111);" transform="matrix(0.470907, 0, 0, 0.295471, -185.053012, -21.388169)" cx="631.2" cy="375" r="20.4"/>
  <circle style="stroke: rgb(0, 0, 0); fill: rgb(123, 120, 111);" transform="matrix(0.470907, 0, 0, 0.305453, -174.127978, -24.444344)" cx="808.6" cy="374.6" r="22.2"/>
  <circle style="stroke: rgb(0, 0, 0); fill: rgb(123, 120, 111);" transform="matrix(0.470907, 0, 0, 0.359376, -191.645694, -63.311677)" cx="525.6" cy="210.6" r="15.2"/>
  <circle style="stroke: rgb(0, 0, 0); fill: rgb(123, 120, 111);" transform="matrix(0.470907, 0, 0, 0.401142, -180.908999, -71.50763)" cx="642.2" cy="208.4" r="16.2"/>
  <circle style="stroke: rgb(0, 0, 0); fill: rgb(123, 120, 111);" transform="matrix(0.470907, 0, 0, 0.309032, -193.52933, -51.252366)" cx="734" cy="206.8" r="19.2"/>
  <circle style="stroke: rgb(0, 0, 0); fill: rgb(123, 120, 111);" transform="matrix(0.470907, 0, 0, 0.404426, -188.25516, -44.562302)" cx="499.4" cy="624" r="17"/>
  <circle style="stroke: rgb(0, 0, 0); fill: rgb(123, 120, 111);" transform="matrix(0.470907, 0, 0, 0.406157, -200.498737, -43.987252)" cx="626.4" cy="629.2" r="16"/>
  <circle style="stroke: rgb(0, 0, 0); fill: rgb(123, 120, 111);" transform="matrix(0.470907, 0, 0, 0.312286, -196.731479, 9.944969)" cx="728.2" cy="639.6" r="19"/>
  <circle style="stroke: rgb(0, 0, 0); fill: rgb(123, 120, 111);" transform="matrix(0.470907, 0, 0, 0.401657, -188.25516, -42.571355)" cx="787.2" cy="627.8" r="13.6"/>
  <circle style="stroke: rgb(0, 0, 0); fill: rgb(123, 120, 111);" transform="matrix(0.470907, 0, 0, 0.308525, -179.213748, -22.133263)" cx="727.8" cy="370.4" r="17.4"/>
  <circle style="stroke: rgb(0, 0, 0); fill: rgb(123, 120, 111);" transform="matrix(0.470907, 0, 0, 0.383452, -185.053012, -52.948438)" cx="544.4" cy="372" r="14"/>
  <circle style="stroke: rgb(0, 0, 0); fill: rgb(123, 120, 111);" transform="matrix(0.470907, 0, 0, 0.36171, -192.964236, -65.823365)" cx="586.6" cy="212.8" r="13.8"/>
  <circle style="stroke: rgb(0, 0, 0); fill: rgb(123, 120, 111);" transform="matrix(0.470907, 0, 0, 0.299089, -188.25516, -50.033635)" cx="794.4" cy="209.6" r="14.8"/>
</svg>