<?xml version="1.0" encoding="utf-8"?>
<svg viewBox="53.293 90.531 200.514 179.306" xmlns="http://www.w3.org/2000/svg">
  <ellipse style="stroke: rgb(0, 0, 0); fill: rgb(176, 121, 37); stroke-width: 2px;" cx="153.55" cy="180.184" rx="100.257" ry="89.653"/>
  <ellipse style="stroke: rgb(0, 0, 0); fill: rgb(255, 237, 205); stroke-width: 2px;" cx="115.953" cy="162.153" rx="26.671" ry="28.278"/>
  <ellipse style="stroke: rgb(0, 0, 0); fill: rgb(255, 241, 185); stroke-width: 2px;" cx="201.009" cy="162.196" rx="28.599" ry="30.848"/>
  <ellipse style="fill: rgb(111, 24, 24);" cx="153.981" cy="234.145" rx="46.594" ry="19.923"/>
  <path stroke-width="0" d="M 209.181 157.896 C 210.153 157.747 211.585 158.28 211.827 158.913 C 212.086 159.593 211.12 161.098 210.402 161.966 C 209.651 162.876 208.49 162.929 207.35 164.205 C 205.552 166.215 203.996 172.041 201.04 174.177 C 198.09 176.31 191.335 177.014 189.643 177.027 C 188.988 177.032 188.773 176.96 188.626 176.62 C 188.409 176.117 188.371 174.58 189.236 173.77 C 190.652 172.445 196.48 172.771 198.802 170.921 C 201.013 169.159 202.303 164.287 203.076 163.187 C 203.381 162.754 203.436 162.864 203.686 162.577 C 204.058 162.15 204.413 161.394 205.111 160.745 C 206.057 159.865 207.965 158.082 209.181 157.896 Z M 212.592 166.809 C 213.195 166.659 214.014 166.719 214.716 167.022 C 215.539 167.376 216.746 168.586 217.159 169.04 C 217.374 169.276 217.364 169.424 217.478 169.571 C 217.578 169.7 217.695 169.655 217.797 169.89 C 218.036 170.445 218.785 171.93 218.434 173.713 C 217.82 176.832 212.041 185.199 211.424 187.734 C 211.146 188.876 211.778 189.321 211.636 189.858 C 211.523 190.286 211.203 190.62 210.893 190.814 C 210.596 190.999 210.184 191.096 209.83 191.026 C 209.44 190.949 208.934 190.77 208.662 190.283 C 208.253 189.55 207.884 188.019 208.237 186.459 C 208.75 184.193 212.194 178.797 212.911 177.856 C 213.134 177.562 213.164 177.806 213.336 177.537 C 213.776 176.845 215.399 173.506 215.247 172.226 C 215.137 171.292 214.292 170.611 213.654 170.208 C 213.071 169.84 212.043 170.191 211.636 169.783 C 211.229 169.376 211.019 168.268 211.211 167.765 C 211.388 167.302 212.045 166.946 212.592 166.809 Z M 190.287 136.729 C 191.543 136.509 192.407 136.471 193.261 136.729 C 194.051 136.968 194.916 137.747 195.279 138.11 C 195.489 138.32 195.248 138.542 195.598 138.641 C 196.663 138.943 203.322 136.987 205.582 137.367 C 207.075 137.617 208.132 138.706 208.662 139.172 C 208.949 139.424 208.894 139.458 209.087 139.81 C 209.461 140.491 210.425 141.994 210.786 143.421 C 211.211 145.096 211.792 148.347 211.211 149.369 C 210.811 150.073 209.662 150.572 208.981 150.112 C 207.804 149.318 207.288 142.8 206.007 141.403 C 205.201 140.524 204.274 140.537 203.245 140.553 C 202.047 140.572 200.545 141.62 199.209 141.828 C 197.926 142.027 196.458 141.97 195.385 141.828 C 194.507 141.711 193.698 141.554 193.155 141.19 C 192.688 140.877 192.893 140.089 192.199 139.916 C 190.829 139.574 185.083 142.288 183.702 141.828 C 182.928 141.57 182.779 140.519 182.746 140.022 C 182.72 139.642 182.736 139.396 183.171 139.066 C 184.126 138.341 188.469 137.048 190.287 136.729 Z M 177.019 155.743 C 178.469 155.379 183.743 154.971 185.644 156.848 C 187.898 159.075 189.052 168.236 188.297 169.896 C 187.913 170.742 186.494 170.388 185.865 170.338 C 185.395 170.301 185.108 170.434 184.759 169.896 C 183.902 168.572 183.974 160.054 182.548 158.839 C 181.644 158.069 179.784 158.914 179.009 159.502 C 178.322 160.024 178.633 161.575 177.904 161.935 C 177.026 162.368 174.389 161.778 173.702 161.271 C 173.262 160.946 173.25 160.361 173.26 159.944 C 173.269 159.553 173.367 159.046 173.702 158.839 C 174.131 158.574 175.553 159.192 175.913 158.839 C 176.259 158.5 175.701 157.377 175.913 156.848 C 176.107 156.369 176.289 155.926 177.019 155.743 Z M 224.697 150.701 C 225.407 150.722 227.203 150.928 227.572 151.806 C 228.074 153.001 227.406 157.157 225.803 158.219 C 223.935 159.458 217.026 158.518 216.073 157.556 C 215.518 156.996 216.007 155.666 216.736 155.123 C 217.798 154.334 222.112 155.369 223.149 154.46 C 223.948 153.761 223.198 151.717 223.592 151.143 C 223.852 150.763 224.212 150.686 224.697 150.701 Z" style="stroke-width: 2px; fill: rgb(209, 48, 48);"/>
  <ellipse style="stroke: rgb(0, 0, 0);" cx="201.881" cy="161.473" rx="12.544" ry="13.137"/>
  <path stroke-width="0" d="M 123.27 157.514 C 124.135 157.381 125.409 157.859 125.623 158.426 C 125.855 159.035 124.995 160.383 124.356 161.162 C 123.688 161.977 122.655 162.025 121.642 163.168 C 120.041 164.969 118.658 170.19 116.028 172.105 C 113.403 174.016 107.395 174.646 105.89 174.658 C 105.307 174.663 105.115 174.598 104.984 174.294 C 104.792 173.843 104.758 172.465 105.527 171.739 C 106.786 170.552 111.971 170.845 114.037 169.187 C 116.004 167.607 117.152 163.242 117.839 162.256 C 118.111 161.868 118.159 161.966 118.382 161.709 C 118.712 161.327 119.028 160.65 119.65 160.068 C 120.491 159.278 122.189 157.681 123.27 157.514 Z M 126.304 165.501 C 126.841 165.367 127.569 165.421 128.194 165.692 C 128.926 166.01 130 167.094 130.367 167.501 C 130.558 167.712 130.549 167.845 130.651 167.976 C 130.74 168.093 130.844 168.052 130.934 168.262 C 131.147 168.76 131.814 170.09 131.502 171.689 C 130.955 174.483 125.814 181.981 125.266 184.253 C 125.018 185.276 125.581 185.675 125.454 186.157 C 125.353 186.54 125.069 186.839 124.793 187.013 C 124.528 187.178 124.162 187.266 123.847 187.203 C 123.5 187.134 123.05 186.974 122.809 186.537 C 122.444 185.881 122.116 184.509 122.431 183.111 C 122.886 181.08 125.951 176.245 126.588 175.401 C 126.786 175.138 126.814 175.356 126.966 175.115 C 127.358 174.495 128.802 171.503 128.666 170.356 C 128.568 169.519 127.816 168.909 127.249 168.547 C 126.73 168.218 125.816 168.532 125.454 168.167 C 125.092 167.802 124.905 166.809 125.076 166.358 C 125.234 165.943 125.818 165.624 126.304 165.501 Z M 106.462 138.547 C 107.579 138.349 108.348 138.315 109.108 138.547 C 109.81 138.76 110.58 139.458 110.903 139.784 C 111.09 139.972 110.875 140.171 111.187 140.259 C 112.134 140.53 118.058 138.777 120.069 139.118 C 121.397 139.342 122.336 140.318 122.809 140.736 C 123.063 140.961 123.015 140.992 123.187 141.307 C 123.519 141.917 124.377 143.264 124.697 144.543 C 125.076 146.044 125.592 148.957 125.076 149.874 C 124.72 150.504 123.698 150.951 123.092 150.539 C 122.045 149.828 121.586 143.986 120.447 142.734 C 119.729 141.947 118.905 141.959 117.989 141.973 C 116.923 141.99 115.587 142.929 114.399 143.116 C 113.257 143.294 111.952 143.243 110.997 143.116 C 110.216 143.01 109.496 142.87 109.013 142.544 C 108.598 142.264 108.78 141.557 108.163 141.402 C 106.944 141.095 101.833 143.528 100.604 143.116 C 99.916 142.884 99.783 141.942 99.754 141.497 C 99.731 141.157 99.745 140.936 100.132 140.64 C 100.981 139.991 104.845 138.832 106.462 138.547 Z M 94.659 155.585 C 95.949 155.259 100.641 154.893 102.332 156.575 C 104.337 158.571 105.363 166.78 104.692 168.268 C 104.351 169.026 103.087 168.709 102.529 168.664 C 102.11 168.631 101.854 168.75 101.545 168.268 C 100.782 167.081 100.846 159.448 99.578 158.359 C 98.773 157.669 97.119 158.427 96.429 158.954 C 95.818 159.421 96.095 160.811 95.447 161.134 C 94.665 161.522 92.32 160.993 91.709 160.538 C 91.317 160.247 91.307 159.723 91.315 159.35 C 91.323 158.999 91.41 158.545 91.709 158.359 C 92.09 158.122 93.355 158.676 93.675 158.359 C 93.983 158.055 93.487 157.05 93.675 156.575 C 93.847 156.146 94.01 155.749 94.659 155.585 Z M 137.073 151.067 C 137.705 151.086 139.302 151.27 139.63 152.057 C 140.077 153.128 139.483 156.852 138.056 157.804 C 136.395 158.914 130.249 158.072 129.401 157.209 C 128.907 156.708 129.343 155.516 129.991 155.029 C 130.935 154.322 134.773 155.25 135.696 154.436 C 136.406 153.809 135.739 151.977 136.09 151.463 C 136.321 151.123 136.642 151.053 137.073 151.067 Z" style="stroke-width: 2px; fill: rgb(209, 48, 48);"/>
  <ellipse style="" cx="116.02" cy="161.44" rx="12.207" ry="12.915"/>
  <rect x="121.772" y="219.758" width="11.304" height="13.67" style="stroke: rgb(0, 0, 0); fill: rgb(255, 255, 255); stroke-width: 2px; transform-origin: 127.424px 226.593px;" transform="matrix(0.961262106895, -0.275637060404, 0.275637060404, 0.961262106895, -0.44290007248, -1.328429734471)"/>
  <rect x="138.366" y="214.962" width="12.882" height="16.957" style="stroke: rgb(0, 0, 0); fill: rgb(255, 205, 0); stroke-width: 2px; transform-origin: 144.807px 223.441px;" transform="matrix(0.996195018291, -0.087156012654, 0.087156012654, 0.996195018291, 0.073925464768, -0.442815295089)"/>
  <rect x="159.36" y="215.961" width="13.377" height="19.202" style="stroke: rgb(0, 0, 0); fill: rgb(255, 246, 201); stroke-width: 2px; transform-origin: 166.048px 225.562px;" transform="matrix(0.99026799202, 0.139173001051, -0.139173001051, 0.99026799202, 0.295217875362, -0.767963215457)"/>
  <rect x="180.74" y="221.537" width="10.779" height="17.745" style="stroke: rgb(0, 0, 0); fill: rgb(255, 239, 239); stroke-width: 2px; transform-origin: 186.129px 230.41px;" transform="matrix(0.866025090218, 0.5, -0.5, 0.866025090218, 0.295178286524, -0.442947508597)"/>
  <rect x="122.329" y="234.942" width="14.328" height="12.224" style="stroke: rgb(0, 0, 0); fill: rgb(255, 249, 213); stroke-width: 2px; transform-origin: 129.493px 241.054px;" transform="matrix(0.965926110744, 0.258819013834, -0.258819013834, 0.965926110744, -0.670026558398, 2.010308709592)"/>
  <rect x="144.234" y="237.081" width="13.145" height="15.379" style="stroke: rgb(0, 0, 0); fill: rgb(255, 235, 235); stroke-width: 2px;"/>
  <rect x="166.364" y="237.439" width="11.699" height="14.459" style="stroke: rgb(0, 0, 0); fill: rgb(255, 205, 0); stroke-width: 2px; transform-origin: 172.213px 244.668px;" transform="matrix(0.97814810276, -0.207911998034, 0.207911998033, 0.97814810276, 0.000136736119, -0.334966222504)"/>
  <ellipse style="fill: none; stroke-width: 3px; stroke: rgb(255, 75, 75);" cx="154.066" cy="233.66" rx="46.594" ry="19.923"/>
  <ellipse style="stroke: rgb(0, 0, 0); fill: rgb(114, 69, 0);" cx="155.686" cy="198.203" rx="15.993" ry="8.032"/>
  <ellipse style="stroke: rgb(0, 0, 0);" cx="150.388" cy="201.957" rx="3.516" ry="3.366"/>
  <ellipse style="stroke: rgb(0, 0, 0);" cx="162.965" cy="201.942" rx="2.992" ry="2.842"/>
</svg>
