<?xml version="1.0" encoding="utf-8"?>
<svg viewBox="77.5216 150.945 222.2507 330.8367" width="222.2507px" height="330.8367px" xmlns="http://www.w3.org/2000/svg" xmlns:bx="https://boxy-svg.com"><defs><bx:export><bx:file format="svg"/></bx:export></defs><ellipse style="stroke: rgb(0, 0, 0); fill: rgb(176, 121, 37); stroke-width: 5px;" cx="182.258" cy="274.456" rx="93.328" ry="67.919" transform="matrix(0.9999999999999999, 0, 0, 0.9999999999999999, -1.1368683772161603e-13, -2.842170943040401e-14)"/><ellipse style="stroke: rgb(0, 0, 0); fill: rgb(255, 237, 205); stroke-width: 5px;" cx="139.357" cy="254.708" rx="35.924" ry="29.306" transform="matrix(0.9999999999999999, 0, 0, 0.9999999999999999, -1.1368683772161603e-13, -2.842170943040401e-14)"/><ellipse style="stroke: rgb(0, 0, 0); fill: rgb(255, 241, 185); stroke-width: 5px;" cx="226.051" cy="255.373" rx="32.324" ry="30.736" transform="matrix(0.9999999999999999, 0, 0, 0.9999999999999999, -1.1368683772161603e-13, -2.842170943040401e-14)"/><path stroke-width="0" d="M 156.531 239.895 C 158.291 239.545 160.949 239.665 162.617 240.233 C 164.076 240.73 165.285 241.744 166.167 242.769 C 166.999 243.736 167.567 244.9 167.857 246.15 C 168.166 247.477 168.281 249.11 167.857 250.545 C 167.398 252.102 165.826 254.145 164.983 255.109 C 164.425 255.748 164.136 255.476 163.462 256.293 C 162.206 257.815 159.823 263.209 157.746 266.169 C 158.013 266.795 158.199 267.389 158.39 268.126 C 158.82 269.786 159.064 271.595 158.729 273.198 C 158.392 274.808 157.341 276.703 156.362 277.762 C 155.538 278.653 154.684 279.102 153.488 279.453 C 152.036 279.879 149.751 280.167 148.078 279.791 C 146.43 279.42 145.134 278.928 143.514 277.255 C 142.129 275.825 140.763 273.176 139.268 270.301 C 137.576 269.817 135.869 269.319 133.878 269.648 C 129.731 270.332 122.887 275.458 119.678 276.41 C 117.808 276.964 117.04 277.067 115.621 276.748 C 113.965 276.376 111.588 275.44 110.38 273.874 C 109.043 272.14 108.031 268.657 108.351 266.436 C 108.653 264.347 109.755 262.672 111.901 260.857 C 114.933 258.294 122.216 254.758 127.087 253.284 C 125.08 251.009 123.273 249.065 122.214 248.009 C 121.032 246.832 120.504 247.21 119.847 246.15 C 118.89 244.605 117.69 240.827 117.818 238.712 C 117.926 236.933 118.759 235.3 119.847 234.147 C 120.947 232.981 122.801 232.117 124.411 231.78 C 126.014 231.445 127.788 231.473 129.483 232.119 C 131.449 232.867 133.98 235.017 135.399 236.514 C 136.555 237.733 136.872 239.221 137.766 240.233 C 138.58 241.154 139.128 240.969 140.471 242.431 C 141.826 243.905 144.575 247.362 147.434 251.116 C 149.233 248.171 150.865 243.487 152.474 241.923 C 153.896 240.541 154.967 240.206 156.531 239.895 Z M 246.872 237.122 C 249.17 237.248 252.955 238.989 254.479 240.673 C 255.781 242.111 256.391 243.871 256.17 246.082 C 255.864 249.136 252.703 254.657 250.76 257.578 C 249.214 259.902 249.009 260.848 245.857 262.818 C 245.059 263.317 243.984 263.921 242.7 264.597 C 242.911 265.308 243.098 265.994 243.254 266.639 C 244.005 269.738 244.647 272.8 244.268 275.091 C 243.958 276.964 243.302 278.526 241.902 279.656 C 240.233 281.001 236.59 282.333 234.294 282.022 C 232.104 281.726 230.178 280.59 228.378 278.134 C 227.403 276.804 226.645 274.675 225.929 272.23 C 219.272 274.893 212.853 276.999 209.681 277.018 C 205.957 277.04 204.105 274.883 202.749 273.13 C 201.546 271.574 201.134 269.277 201.397 267.383 C 201.675 265.386 202.036 263.535 204.609 261.466 C 206.972 259.566 212.899 257.588 219.059 255.527 C 215.654 251.623 210.955 248.288 209.444 245.338 C 208.182 242.875 208.109 240.805 208.43 238.914 C 208.723 237.183 209.759 235.504 210.965 234.35 C 212.178 233.19 214.161 232.291 215.699 231.983 C 217.083 231.706 218.369 231.741 219.756 232.321 C 221.452 233.031 223.813 235.283 224.996 236.548 C 225.859 237.469 226.135 238.548 226.687 239.083 C 227.087 239.472 227.29 239.278 227.87 239.76 C 229.109 240.788 232.303 243.921 234.125 246.353 C 234.663 247.071 235.167 247.795 235.646 248.537 C 239.347 245.536 239.297 241.003 241.462 239.151 C 243.14 237.715 244.892 237.014 246.872 237.122 Z" style="stroke-width: 2px; fill: rgb(255, 0, 0);" transform="matrix(0.9999999999999999, 0, 0, 0.9999999999999999, -1.1368683772161603e-13, -2.842170943040401e-14)"/><ellipse style="stroke: rgb(0, 0, 0); stroke-width: 5px;" cx="228.752" cy="264.431" rx="13.945" ry="12.86"/><ellipse style="stroke-width: 5px;" cx="142.597" cy="266.378" rx="16.632" ry="13.512"/><ellipse style="fill: rgb(111, 24, 24); stroke-width: 5px;" cx="183.721" cy="306.858" rx="78.761" ry="21.976" transform="matrix(0.9999999999999999, 0, 0, 0.9999999999999999, -1.1368683772161603e-13, -2.842170943040401e-14)"/><rect x="202.425" y="246.834" width="18.405" height="15.217" style="stroke: rgb(0, 0, 0); fill: rgb(255, 255, 255); stroke-width: 2px; transform-origin: 212.151px 254.836px;" transform="matrix(0.983209013939, -0.182483032346, 0.416343003511, 0.939805209637, -72.483999001781, 42.423056359428)"/><rect x="233.8" y="236.314" width="21.941" height="18.971" style="stroke: rgb(0, 0, 0); fill: rgb(255, 205, 0); stroke-width: 2px; transform-origin: 244.781px 245.801px;" transform="matrix(0.998401105404, -0.056537013501, 0.134356975555, 0.993993997574, -75.865524161966, 48.591378503147)"/><rect x="269.401" y="238.443" width="22.991" height="21.381" style="stroke: rgb(0, 0, 0); fill: rgb(255, 246, 201); stroke-width: 2px; transform-origin: 281.426px 249.538px;" transform="matrix(0.995887994766, 0.090593017638, -0.213804006577, 0.984679996967, -74.443696423993, 47.43626564772)"/><rect x="283.153" y="263.353" width="16.667" height="20.834" style="stroke: rgb(0, 0, 0); fill: rgb(255, 239, 239); stroke-width: 2px; transform-origin: 291.453px 274.186px;" transform="matrix(0.936729133129, 0.350055068731, -0.714176952839, 0.800656974316, -52.227882620743, 28.252652168448)"/><rect x="203.894" y="263.17" width="23.87" height="13.589" style="stroke: rgb(0, 0, 0); fill: rgb(255, 249, 213); stroke-width: 2px; transform-origin: 215.813px 270.371px;" transform="matrix(0.98529201746, 0.170882031322, -0.392005056143, 0.946942090988, -73.339412824983, 46.585381841643)"/><rect x="168.87" y="309.754" width="21.972" height="17.361" style="stroke: rgb(0, 0, 0); fill: rgb(255, 235, 235); stroke-width: 2px;" transform="matrix(0.9999999999999999, 0, 0, 0.9999999999999999, -1.1368683772161603e-13, -2.842170943040401e-14)"/><rect x="278.976" y="264.28" width="19.617" height="15.932" style="stroke: rgb(0, 0, 0); fill: rgb(255, 205, 0); stroke-width: 2px; transform-origin: 288.8px 272.235px;" transform="matrix(0.990667998791, -0.136296004057, 0.31715798378, 0.96578502655, -72.81418690494, 45.756485248236)"/><ellipse style="fill: none; stroke: rgb(255, 75, 75); stroke-width: 5px;" cx="185.208" cy="306.749" rx="79.151" ry="22.085" transform="matrix(0.9999999999999999, 0, 0, 0.9999999999999999, -1.1368683772161603e-13, -2.842170943040401e-14)"/></svg>
