<?xml version="1.0" encoding="utf-8"?>
<svg viewBox="0 0 222.3 330.8" width="222.3px" height="330.8px" xmlns="http://www.w3.org/2000/svg" xmlns:bx="https://boxy-svg.com"><defs><bx:export><bx:file format="svg"/></bx:export></defs><path d="M 26.494 83.609 C 27.689 87.976 28.563 93.5 28.061 98.753 C 27.518 104.431 22.013 111.869 22.839 116.507 C 23.522 120.341 28.662 121.902 30.15 125.384 C 31.694 128.998 32.511 133.486 31.716 137.916 C 30.793 143.059 26.948 151.632 23.622 154.365 C 21.177 156.374 17.563 156.464 15.267 155.931 C 13.228 155.458 11.313 153.755 10.307 152.015 C 9.267 150.217 8.926 147.861 9.262 145.227 C 9.695 141.838 14.502 136.757 13.962 133.217 C 13.447 129.835 8.139 127.821 6.651 124.339 C 5.107 120.725 4.712 116.52 5.085 111.807 C 5.533 106.141 10.283 98.466 10.307 92.486 C 10.312 91.171 10.04 89.814 9.633 88.464 C 9.374 88.256 9.128 88.025 8.899 87.767 C 6.898 85.516 5.62 80.798 4.786 76.285 C 3.786 70.873 4.003 61.93 4.101 57.09 C 4.169 53.696 3.997 51.469 4.786 49.207 C 5.512 47.127 6.926 44.999 8.385 43.894 C 9.669 42.922 11.157 42.414 12.841 42.523 C 14.889 42.656 18.352 44.077 19.867 45.437 C 21.106 46.548 21.573 48.048 21.924 49.55 C 22.29 51.12 21.99 52.489 21.924 54.691 C 21.829 57.819 20.95 62.708 21.238 67.03 C 21.405 69.531 22.336 72.48 23.082 75.27 C 24.598 77.517 25.663 80.572 26.494 83.609 Z M 35.319 66.638 C 37.195 66.27 39.838 66.225 42.108 67.161 C 44.796 68.268 48.299 71.366 50.201 73.688 C 51.826 75.67 52.696 77.391 53.335 79.954 C 54.113 83.079 54.381 88.005 53.857 91.442 C 53.383 94.547 50.316 97.998 50.724 99.797 C 51.017 101.091 53.148 101.365 53.857 102.147 C 54.409 102.757 54.442 103.535 54.901 103.974 C 55.328 104.382 55.785 104.042 56.468 104.758 C 58.047 106.414 62.271 112.223 63.778 117.029 C 65.462 122.401 65.842 130.254 65.345 135.827 C 64.909 140.711 63.172 145.979 61.689 148.882 C 60.68 150.858 59.884 151.959 58.295 152.798 C 56.465 153.765 52.961 154.156 50.985 153.843 C 49.373 153.587 48.098 153.053 47.068 151.754 C 45.733 150.07 44.546 146.979 44.457 143.66 C 44.342 139.324 48.274 131.664 48.113 127.473 C 47.994 124.38 47.166 122.71 45.502 120.162 C 43.349 116.867 37.226 113.738 35.058 109.718 C 32.979 105.862 32.186 100.703 32.447 96.664 C 32.69 92.913 36.306 88.624 36.102 86.22 C 35.965 84.599 34.646 83.797 33.753 82.826 C 32.897 81.895 31.596 81.715 30.881 80.476 C 29.934 78.837 29.107 75.231 29.314 73.166 C 29.489 71.421 30.369 69.822 31.403 68.727 C 32.396 67.675 33.739 66.949 35.319 66.638 Z M 82.89 76.194 C 84.133 78.027 84.581 79.188 84.979 81.416 C 85.508 84.382 85.205 89.576 84.979 92.904 C 84.789 95.693 83.328 98.041 83.934 100.215 C 84.542 102.393 87.789 103.937 88.634 105.959 C 89.398 107.786 89.661 109.884 89.156 111.703 C 88.619 113.639 87.014 116.096 85.24 117.186 C 83.452 118.283 80.751 118.781 78.451 118.23 C 75.803 117.595 72.402 115.138 70.358 112.747 C 68.31 110.353 66.878 106.995 66.18 103.87 C 65.479 100.731 65.889 97.047 66.18 93.948 C 66.451 91.071 68.195 87.114 67.747 85.855 C 67.506 85.177 66.589 85.361 66.18 85.071 C 65.84 84.83 65.826 84.687 65.397 84.288 C 64.559 83.509 61.96 81.928 60.958 80.372 C 60.374 79.465 59.841 78.433 59.56 77.348 C 57.057 74.454 54.376 70.842 53.247 68.681 C 52.13 66.544 51.89 64.946 51.913 63.345 C 51.933 61.938 52.489 60.597 53.056 59.533 C 53.57 58.569 54.092 57.82 55.057 57.151 C 56.252 56.323 58.471 55.428 60.012 55.245 C 61.368 55.085 62.594 55.291 63.823 55.817 C 65.176 56.396 67.19 58.317 67.73 58.771 C 67.929 58.938 67.835 58.846 68.016 59.057 C 68.564 59.699 71.469 63.56 72.017 64.202 C 72.198 64.413 72.17 64.384 72.303 64.488 C 72.486 64.631 72.701 64.579 73.066 64.964 C 73.644 65.577 75.091 67.439 76.243 69.215 C 78.784 70.996 81.457 74.083 82.89 76.194 Z" style="fill: rgb(82, 59, 59); stroke: rgb(0, 0, 0); stroke-width: 5px; transform-origin: 47.456px 59.938px;" transform="matrix(1, -0.000001, 0.000001, 1, 0, 0)"/></svg>
