<?xml version="1.0" encoding="utf-8"?>
<svg viewBox="0 0 372 492" width="372px" height="492px" xmlns="http://www.w3.org/2000/svg" xmlns:bx="https://boxy-svg.com">
  <g transform="matrix(1.000001, -0.000036, 0.000036, 1.000001, -0.002849, 0.004086)" bx:origin="0.5 -0.059676">
    <path stroke-width="0" d="M 113.287 95.011 C 114.1 94.277 125.236 97.138 125.85 99.02 C 126.624 101.393 96.827 138.852 96.349 140.102 C 95.3 142.851 99.614 153.635 98.378 160.361 C 97.053 167.568 91.369 178.93 87.819 181.888 C 85.733 183.624 78.172 178.37 78.464 175.557 C 78.853 171.805 85.198 166.796 86.638 162.051 C 88.018 157.493 87.535 151.875 87.233 147.701 C 86.978 144.17 84.531 141.671 85.392 138.413 C 86.479 134.31 111.338 96.769 113.287 95.011 Z" style="stroke-width: 2px; fill: rgb(56, 30, 3);" transform="matrix(0.999874, -0.015849, 0.015849, 0.999874, -2.183207, 1.636511)"/>
    <path stroke-width="0" d="M 87.147 101.536 C 87.705 99.944 100.502 92.973 101.908 95.049 C 103.817 97.867 82.198 139.852 81.141 143.376 C 80.43 145.753 78.325 147.005 77.439 148.017 C 76.893 148.644 76.817 148.394 76.199 149.284 C 74.645 151.524 71.711 162.091 67.641 164.901 C 63.911 167.477 56.212 167.16 53.38 166.589 C 51.751 166.262 50.555 157.94 51.54 157.304 C 52.593 156.622 56.714 156.584 57.41 156.459 C 58.393 156.284 59.915 156.455 61.17 155.192 C 63.327 153.027 65.655 143.737 67.657 141.264 C 68.818 139.83 70.334 140.552 70.983 139.155 C 71.956 137.058 86.329 103.879 87.147 101.536 Z" style="stroke-width: 2px; fill: rgb(56, 3, 3);" transform="matrix(0.999874, -0.015849, 0.015849, 0.999874, -2.063795, 1.230523)"/>
    <path stroke-width="0" d="M 160.135 92.002 C 161.102 90.978 176.87 85 178.082 86.198 C 179.293 87.392 172.862 125.312 172.444 127.058 C 172.07 128.616 170.641 130.096 169.566 130.856 C 168.67 131.491 168.95 138.692 167.676 143.096 C 165.87 149.336 157.573 163.247 152.508 165.465 C 148.993 167.007 143.358 156.884 144.77 155.336 C 145.961 154.028 156.587 142.345 157.501 138.031 C 158.188 134.794 158.904 93.31 160.135 92.002 Z" style="stroke-width: 2px; fill: rgb(56, 30, 3);" transform="matrix(0.999874, -0.015849, 0.015849, 0.999874, -1.974006, 2.573635)"/>
    <path stroke-width="0" d="M 110.765 163.799 C 110.905 166.315 126.874 164.956 129.663 162.185 C 134.412 157.466 151.552 120.103 151.481 97.376 C 151.472 94.579 149.978 93.263 148.459 92.732 C 146.741 92.135 143.142 92.995 141.35 94.843 C 139.12 97.147 135.772 107.082 134.858 108.35 C 132.664 111.384 110.51 159.182 110.765 163.799 Z" style="stroke-width: 2px; fill: rgb(56, 30, 3);" transform="matrix(-0.999874, 0.015849, -0.015849, -0.999874, 264.269445, 255.575103)"/>
  </g>
</svg>