<?xml version="1.0" encoding="utf-8"?>
<svg viewBox="0 0 372 492" width="372px" height="492px" xmlns="http://www.w3.org/2000/svg" xmlns:bx="https://boxy-svg.com">
  <g bx:origin="0.5 -0.102449">
    <path stroke-width="0" d="M 287.604 97.053 C 288.158 95.348 295.174 95.065 297.261 97.272 C 300.532 100.733 315.416 155.181 314.227 158.766 C 313.268 161.656 311.448 163.14 308.871 165.098 C 305.578 167.598 297.421 169.397 295.118 171.849 C 293.612 173.452 283.997 173.646 284.183 171.427 C 284.394 168.896 287.024 165.489 289.51 163.408 C 292.172 161.18 302.775 157.436 303.263 156.655 C 304.072 155.358 304.76 151.524 303.966 148.636 C 302.977 145.03 297.797 140.895 296.199 136.817 C 294.7 132.997 286.807 99.504 287.604 97.053 Z" style="stroke-width: 2px; fill: rgb(56, 30, 3);" transform="matrix(0.999874, -0.015849, 0.015849, 0.999874, -2.092227, 4.759402)"/>
    <path stroke-width="0" d="M 259.929 94.518 C 259.983 92.003 272.031 91.557 274.721 94.518 C 279.657 99.955 296.878 154.148 297.005 160.267 C 297.061 163.063 295.641 164.38 294.142 164.911 C 292.444 165.508 288.815 164.648 286.961 162.799 C 284.651 160.496 280.963 150.561 280.005 149.292 C 277.708 146.259 259.832 99.136 259.929 94.518 Z" style="stroke-width: 2px; fill: rgb(56, 30, 3);" transform="matrix(0.999874, -0.015849, 0.015849, 0.999874, -2.006019, 4.429524)"/>
    <path stroke-width="0" d="M 223.497 95.761 C 223.837 93.823 230.665 91.99 232.044 93.655 C 233.496 95.405 232.687 126.841 234.139 129.878 C 236.095 133.974 243.929 139.039 246.138 143.385 C 247.903 146.861 248.41 150.92 247.992 153.514 C 247.667 155.536 242.999 161.049 243.093 161.956 C 243.201 162.998 239.346 170.375 237.767 169.976 C 236.277 169.598 234.767 168.609 233.933 167.02 C 232.848 164.95 234.591 153.054 235.347 151.404 C 235.918 150.155 226.572 137.737 225.848 136.632 C 224.488 134.55 222.982 98.709 223.497 95.761 Z" style="stroke-width: 2px; fill: rgb(56, 30, 3);" transform="matrix(0.999874, -0.015849, 0.015849, 0.999874, -2.054461, 3.753034)"/>
    <path stroke-width="0" d="M 213.504 92.732 C 213.995 91.778 223.873 88.266 225.15 90.718 C 227.234 94.709 222.032 138.611 219.617 146.716 C 216.816 156.12 208.086 169.958 202.043 175.838 C 197.694 180.072 191.181 183.427 188.71 182.591 C 186.844 181.96 189.926 170.666 191.841 169.085 C 193.543 167.682 195.272 168.306 197.255 166.13 C 200.768 162.274 207.03 151.091 209.473 143.339 C 211.776 136.021 212.18 95.302 213.504 92.732 Z" style="stroke-width: 2px; fill: rgb(56, 30, 3);" transform="matrix(0.999874, -0.015849, 0.015849, 0.999874, -2.134064, 3.295926)"/>
    <path stroke-width="0" d="M 190.919 90.451 C 191.886 89.427 203.838 90.377 205.051 91.574 C 206.262 92.769 198.92 125.31 198.502 127.057 C 198.129 128.614 196.699 130.095 195.625 130.855 C 194.729 131.489 195.009 138.689 193.734 143.095 C 191.929 149.334 190.617 145.149 183.559 138.03 C 181.202 135.65 189.687 91.758 190.919 90.451 Z" style="stroke-width: 2px; fill: rgb(56, 30, 3);" transform="matrix(0.999874, -0.015849, 0.015849, 0.999874, -1.846979, 3.092119)"/>
  </g>
</svg>