<?xml version="1.0" encoding="utf-8"?>
<svg viewBox="0 0 222.3 330.8" width="222.3px" height="330.8px" xmlns="http://www.w3.org/2000/svg" xmlns:bx="https://boxy-svg.com"><defs><bx:export><bx:file format="svg"/></bx:export></defs><path d="M 191.223 68.303 C 193.283 68.219 198.602 69.023 200.817 71.088 C 203.083 73.2 203.842 76.961 204.531 80.991 C 205.393 86.038 205.955 93.436 204.531 99.559 C 203.026 106.029 194.779 111.782 195.246 118.747 C 195.791 126.848 208.856 137.559 211.339 145.361 C 213.247 151.357 212.998 157.772 211.958 161.454 C 211.229 164.034 209.6 165.639 207.935 166.715 C 206.366 167.729 204.298 168.337 202.364 167.953 C 200.097 167.502 196.563 165.612 195.246 163.311 C 193.845 160.863 196.057 157.719 194.628 153.408 C 192.3 146.389 180.204 132.136 177.916 124.317 C 176.321 118.865 176.638 115.161 177.916 110.7 C 179.302 105.864 185.134 100.919 186.581 96.465 C 187.786 92.756 187.372 89.616 187.2 85.942 C 187.016 82.007 184.66 76.383 185.343 73.564 C 185.826 71.569 187.651 70.426 188.748 69.54 C 189.595 68.856 189.99 68.353 191.223 68.303 Z M 150.373 67.312 C 152.304 66.984 154.5 67.113 156.562 67.931 C 158.937 68.873 161.789 70.932 163.68 73.192 C 165.641 75.536 167.255 78.564 168.013 81.857 C 168.848 85.491 168.55 90.267 168.013 94.236 C 167.49 98.099 164.269 102.845 164.918 105.377 C 165.407 107.287 168.052 107.475 169.251 109.091 C 170.587 110.891 171.768 113.057 172.345 115.899 C 173.079 119.512 171.321 125.747 172.345 129.516 C 173.231 132.773 176.559 135.095 177.297 137.563 C 177.895 139.56 177.901 141.383 177.297 143.133 C 176.65 145.009 174.939 147.318 173.274 148.394 C 171.705 149.408 169.637 150.017 167.703 149.632 C 165.436 149.181 162.571 147.038 160.586 144.99 C 158.514 142.853 156.617 140.325 155.634 136.944 C 154.436 132.824 156.208 124.57 155.015 121.47 C 154.268 119.527 152.36 118.815 151.611 118.066 C 151.165 117.62 151.107 117.672 150.682 117.137 C 149.868 116.111 147.643 113.911 146.969 111.567 C 146.16 108.758 146.451 104.801 146.969 101.045 C 147.551 96.82 150.742 90.134 150.682 87.428 C 150.65 85.962 150.247 85.588 149.445 84.643 C 148.334 83.334 144.916 82.48 143.874 80.62 C 142.798 78.698 142.891 75.102 143.255 73.192 C 143.536 71.722 144.092 70.724 145.112 69.788 C 146.311 68.688 148.494 67.631 150.373 67.312 Z M 134.714 72.449 C 136.784 75.243 138.199 79.847 139.046 84.209 C 139.982 89.032 139.788 96.615 139.665 100.302 C 139.588 102.609 138.807 103.335 139.046 105.254 C 139.351 107.704 142.357 111.236 142.141 113.919 C 141.935 116.478 140.078 119.653 138.118 121.037 C 136.221 122.375 132.788 122.646 130.69 122.275 C 128.852 121.949 127.447 121.154 126.048 119.489 C 124.113 117.186 121.877 111.923 121.097 108.348 C 120.397 105.142 120.994 102.157 121.097 99.064 C 121.2 95.968 121.93 92.264 121.716 89.78 C 121.551 87.873 121.516 86.42 120.478 85.138 C 119.266 83.642 115.539 83.548 114.288 81.734 C 113.412 80.461 112.96 78.27 112.882 76.322 C 112.877 76.316 112.871 76.31 112.866 76.304 C 110.237 73.46 107.126 68.978 105.364 64.427 C 103.456 59.496 101.673 51.062 102.239 47.549 C 102.583 45.414 103.909 44.485 105.052 43.485 C 106.122 42.549 107.163 41.69 108.803 41.61 C 111.076 41.499 115.581 42.194 117.867 44.423 C 120.541 47.031 120.586 53.497 122.868 57.55 C 125.163 61.627 130.399 65.548 131.619 68.802 C 131.725 69.086 131.812 69.367 131.881 69.646 C 132.927 70.4 133.885 71.332 134.714 72.449 Z" style="fill: rgb(82, 59, 59); stroke-width: 5px; stroke: rgb(0, 0, 0); transform-origin: 155.456px 61.938px;" transform="matrix(1, -0.000001, 0.000001, 1, 0, 0)"/></svg>
