<?xml version="1.0" encoding="utf-8"?>
<svg viewBox="46.1211 90.8898 215.4486 110.97" xmlns="http://www.w3.org/2000/svg">
  <path stroke-width="0" d="M 64.122 104.178 C 66.125 104.043 69.687 104.238 71.371 105.918 C 73.305 107.848 73.885 112.628 74.27 116.066 C 74.654 119.49 73.368 122.521 73.69 126.503 C 74.083 131.36 77.983 138.389 77.169 143.32 C 76.421 147.853 71.912 152.822 69.921 155.207 C 68.697 156.673 67.615 156.64 66.732 157.817 C 65.725 159.158 64.552 160.667 64.412 163.035 C 64.207 166.512 68.477 173.927 67.891 177.532 C 67.447 180.269 65.404 182.425 63.542 183.621 C 61.784 184.751 59.135 185.204 57.164 184.781 C 55.169 184.353 53.202 183.103 51.655 181.012 C 49.599 178.233 47.772 172.5 47.016 168.254 C 46.292 164.189 45.571 160.395 47.016 156.077 C 48.821 150.683 58.459 143.101 59.193 138.681 C 59.679 135.759 56.872 134.94 56.294 131.722 C 55.435 126.94 55.099 115.815 56.294 111.427 C 57.059 108.614 58.623 107.13 60.063 105.918 C 61.284 104.89 62.497 104.288 64.122 104.178 Z M 95.204 103.366 C 97.386 103.463 101.667 104.329 104.771 107.135 C 109.197 111.137 115.686 122.34 117.529 128.591 C 118.937 133.37 118.748 136.345 117.529 141.348 C 115.883 148.099 107.85 158.013 105.931 165.703 C 104.258 172.407 107.123 179.584 105.351 184.839 C 103.784 189.487 99.395 193.62 96.943 196.146 C 95.224 197.917 94.096 199.035 92.304 199.626 C 90.443 200.24 87.754 200.213 85.925 199.626 C 84.216 199.076 82.588 197.882 81.576 196.436 C 80.516 194.923 79.6 192.758 79.837 190.638 C 80.119 188.102 82.717 184.106 84.186 182.229 C 85.239 180.884 86.612 181.395 87.375 179.62 C 88.787 176.337 86.809 167.34 88.535 160.484 C 90.559 152.443 100.638 141.793 100.132 134.39 C 99.698 128.018 90.811 122.752 89.115 118.153 C 87.889 114.829 87.856 111.811 88.535 109.455 C 89.127 107.398 91.039 105.524 92.304 104.526 C 93.265 103.767 93.849 103.306 95.204 103.366 Z M 140.608 119.081 C 141.568 123.464 141.832 128.471 141.188 133.578 C 140.475 139.233 136.57 145.901 135.969 151.554 C 135.425 156.664 138.106 161.242 137.129 166.051 C 136.082 171.199 132.108 178.853 129.3 181.418 C 127.453 183.105 125.519 183.44 123.501 183.157 C 121.196 182.834 117.633 180.799 116.253 178.808 C 114.97 176.957 114.88 174.665 115.093 171.85 C 115.378 168.094 118.606 162.422 119.152 157.933 C 119.662 153.743 118.02 150.31 118.573 145.755 C 119.236 140.285 123.804 133.07 123.791 127.199 C 123.785 124.08 122.171 120.688 120.845 117.639 C 120.762 117.56 120.681 117.48 120.601 117.4 C 118.607 115.394 116.645 111.704 115.962 109.282 C 115.421 107.364 115.519 105.665 115.962 104.063 C 116.399 102.479 117.557 100.749 118.571 99.714 C 119.434 98.834 120.018 98.146 121.471 97.975 C 123.798 97.7 129.657 97.959 132.198 100.294 C 133.9 101.858 135.374 105.212 136.193 108.392 C 137.906 110.968 139.756 115.194 140.608 119.081 Z M 221.905 99.366 C 223.748 99.043 226.398 98.938 228.864 99.946 C 232.008 101.231 236.469 105.088 239.012 107.774 C 241.155 110.039 242.764 112.048 243.651 114.733 C 244.598 117.602 245.036 120.478 244.231 124.591 C 243.058 130.573 232.483 141.861 234.373 147.786 C 236.216 153.563 250.589 155.292 254.668 159.963 C 257.881 163.643 258.607 168.513 259.307 172.141 C 259.887 175.142 260.013 177.927 259.307 180.259 C 258.655 182.415 257.342 184.647 255.538 185.768 C 253.635 186.95 250.2 187.499 248 186.927 C 245.871 186.374 243.785 184.766 242.491 182.578 C 240.911 179.909 242.816 174.748 240.171 171.271 C 236.609 166.586 222.902 162.256 219.296 158.804 C 217.239 156.835 216.943 155.856 216.396 153.585 C 215.683 150.623 215.304 146.425 216.396 141.987 C 217.822 136.196 226.36 125.57 226.254 121.691 C 226.197 119.579 224.461 119.214 223.065 117.922 C 221.347 116.333 217.685 115.065 216.396 112.993 C 215.189 111.051 214.83 108.069 215.237 106.035 C 215.615 104.145 217.198 102.23 218.426 101.106 C 219.467 100.153 220.447 99.622 221.905 99.366 Z M 158.467 95.539 C 161.654 95.837 169.629 99.829 172.674 102.787 C 175.104 105.148 176.037 107.916 176.733 110.906 C 177.468 114.068 177.222 117.083 176.733 121.344 C 176.074 127.079 173.842 138.583 172.094 142.799 C 171.097 145.204 170.398 146.137 168.905 147.148 C 167.285 148.245 164.622 149.235 162.526 148.888 C 160.268 148.514 157.219 146.923 155.857 144.539 C 154.211 141.654 154.233 136.264 154.698 131.781 C 155.21 126.842 159.537 118.772 159.337 116.125 C 159.242 114.876 158.661 114.884 157.887 114.095 C 156.716 112.902 153.501 111.725 152.378 109.746 C 151.183 107.64 150.714 103.796 151.218 101.628 C 151.645 99.794 153.135 98.301 154.408 97.279 C 155.582 96.335 156.56 95.361 158.467 95.539 Z M 184.909 93.336 C 186.456 92.932 189.387 92.407 192.448 93.336 C 196.959 94.703 206.451 98.651 209.554 103.483 C 212.54 108.133 211.733 115.742 211.294 121.46 C 210.873 126.93 208.979 133.444 207.234 137.116 C 205.985 139.746 204.773 141.611 202.885 142.625 C 201.002 143.637 197.941 143.785 195.927 143.205 C 194.006 142.652 192.05 141.425 190.998 139.436 C 189.671 136.928 189.488 132.397 189.838 128.418 C 190.236 123.887 195.442 117.025 193.897 113.631 C 192.435 110.419 184.071 110.731 181.72 108.122 C 179.764 105.951 179.046 102.35 179.4 100.004 C 179.723 97.869 182.118 95.582 183.17 94.495 C 183.83 93.812 183.983 93.577 184.909 93.336 Z" style="stroke-width: 2px; fill: rgb(30, 28, 28); transform-origin: 149.267px 97.163px;" transform="matrix(0.999848008156, -0.017452003434, 0.017452003434, 0.999848008156, 1.25777e-7, -1.01113e-7)"/>
</svg>
