<?xml version="1.0" encoding="utf-8"?>
<svg viewBox="0 0 372 492" width="372px" height="492px" xmlns="http://www.w3.org/2000/svg">
  <g>
    <path style="stroke: rgb(0, 0, 0); fill: rgb(84, 80, 80);" d="M 161.527 3.761 C 145.867 -8.848 99.707 52.535 96.688 60.661 L 81.367 69.576 L 67.797 71.196 C 50.44 78.94 27.168 73.092 49.21 37.356 C -8.653 42.303 -17.118 134.82 40.548 130.399 C 249.671 114.37 339.998 133.399 339.998 133.399 C 375.864 136.893 392.229 50.811 322.256 44.386 C 325.629 41.684 337.518 70.917 319.622 79.274 L 298.201 80.882 L 279.229 73.904 C 282.814 65.006 259.573 13.383 213.995 3.491 C 208.872 2.378 198.992 8.009 186.275 8.638 C 178.935 8.999 171.095 5.443 161.527 3.761 Z"/>
    <path style="stroke: rgb(0, 0, 0); fill: rgb(180, 178, 178);" d="M 160.787 86.244 L 184.658 63.622 C 188.133 79.941 201.245 89.734 223.998 92.997 C 237.721 94.965 251.17 91.59 264.343 82.868 C 286.868 95.863 217.343 125.561 197.771 114.27 L 177.598 103.803 C 181.926 103.803 160.391 112.243 150.027 112.243 C 142.405 114.495 100.714 114.833 108.334 112.581 C 90.202 117.547 130.292 94.597 160.787 86.244 Z"/>
  </g>
</svg>