<?xml version="1.0" encoding="utf-8"?>
<svg viewBox="77.5216 150.945 222.2507 330.8367" width="222.2507px" height="330.8367px" xmlns="http://www.w3.org/2000/svg" xmlns:bx="https://boxy-svg.com"><defs><bx:export><bx:file format="svg"/></bx:export></defs><path style="stroke: rgb(0, 0, 0); fill: rgb(52, 45, 45); stroke-width: 5px;" d="M 79.01 225.571 L 297.712 227.029 C 301.057 224.836 295.703 174.131 273.634 167.602 C 271.624 198.768 256.915 191.524 247.544 191.524 C 216.122 184.992 228.152 150.945 185.348 150.945 C 151.229 150.945 156.586 193.695 128.49 191.524 C 108.425 193.695 102.422 184.992 105.75 169.055 C 77.675 179.92 77.004 219.761 79.01 225.571 Z" transform="matrix(0.9999999999999999, 0, 0, 0.9999999999999999, -1.1368683772161603e-13, -2.842170943040401e-14)"/><path d="M 182.611 168.064 C 186.835 167.156 191.058 168.064 195.28 169.002 C 199.48 169.916 205.391 172.678 207.081 174.522 C 208.77 176.367 208.77 177.283 208.77 178.218 C 209.618 180.067 211.305 181.887 212.153 183.736 C 212.994 184.676 213.838 184.676 214.686 185.592 C 216.371 186.5 218.907 188.345 219.754 189.284 C 220.6 189.284 220.6 189.284 221.44 190.195 C 223.976 192.044 233.242 195.712 239.157 197.561 C 245.07 198.502 254.362 196.652 256.869 197.561 C 259.405 197.561 259.405 198.502 260.251 199.412 C 261.095 201.259 261.095 204.96 261.095 205.867 C 260.251 207.717 259.405 208.627 256.869 209.565 C 253.519 210.48 242.537 210.48 234.087 209.565 C 224.821 206.776 207.925 196.652 204.547 194.802 C 202.86 193.894 203.704 194.802 202.86 193.894 C 201.169 192.044 196.125 183.736 192.75 181.887 C 190.212 180.98 187.678 180.067 185.144 180.98 C 182.611 180.98 180.077 182.829 178.386 184.676 C 176.697 185.592 175.854 188.345 175.008 188.345 C 175.008 189.284 174.162 189.284 173.32 190.195 C 172.476 191.107 168.273 193.894 166.586 194.802 C 165.742 195.712 165.742 196.652 164.895 197.561 C 164.895 197.561 164.895 197.561 164.053 198.502 C 161.518 200.319 149.692 207.717 142.089 209.565 C 133.666 212.326 121.841 214.175 115.927 213.233 C 111.702 212.326 107.505 210.48 105.812 207.717 C 104.972 205.867 106.659 201.259 109.193 200.319 C 110.884 198.502 113.394 199.412 115.927 199.412 C 118.46 199.412 119.304 201.259 122.685 201.259 C 129.442 201.259 149.692 192.044 152.225 190.195 C 153.913 189.284 153.071 189.284 153.913 188.345 C 154.76 187.438 160.67 183.736 161.518 182.829 C 162.361 181.887 162.361 180.98 163.207 180.98 C 164.053 179.13 166.586 176.367 168.273 174.522 C 169.119 173.613 170.785 173.613 171.629 173.613 C 171.629 172.678 171.629 172.678 172.476 171.764 C 174.162 170.825 179.23 169.002 182.611 168.064 Z" style="stroke: rgb(104, 105, 101); fill: rgb(181, 181, 181); stroke-width: 5px;" transform="matrix(0.9999999999999999, 0, 0, 0.9999999999999999, -1.1368683772161603e-13, -2.842170943040401e-14)"/></svg>
