<?xml version="1.0" encoding="utf-8"?>
<svg viewBox="45.2951 50.7789 213.7135 75.0251" xmlns="http://www.w3.org/2000/svg">
  <path style="stroke: rgb(0, 0, 0); fill: rgb(52, 45, 45); stroke-width: 2px;" d="M 45.858 124.91 L 258.141 125.804 C 261.398 123.887 255.892 74.134 234.662 67.382 C 232.85 98.147 218.477 91.24 209.277 90.705 C 179.328 84.47 190.86 50.881 149.378 50.779 C 116.082 50.697 121.35 93.02 94.128 91.158 C 74.59 93.226 68.935 84.693 72.158 68.421 C 44.65 79.188 44.154 118.944 45.858 124.91 Z" transform="matrix(1, 0, 0, 1, -2.842170943040401e-14, 0)"/>
  <path stroke-width="0" d="M 146.65 78.086 C 149.618 77.594 153.193 77.775 156.29 78.629 C 159.53 79.521 164.045 82.048 165.63 83.511 C 166.575 84.383 166.293 85.022 166.835 85.952 C 167.517 87.123 168.698 89.026 169.546 90.021 C 170.18 90.766 170.584 91.015 171.353 91.648 C 172.369 92.485 174.46 93.969 175.27 94.632 C 175.734 95.012 175.488 95.065 176.173 95.446 C 178.017 96.467 185.329 99.982 190.03 100.871 C 194.573 101.729 201.423 100.111 203.889 100.871 C 205.222 101.281 205.534 101.853 205.997 102.769 C 206.587 103.937 207.063 106.394 206.6 107.652 C 206.197 108.744 205.594 109.566 203.889 110.093 C 200.76 111.059 192.581 111.539 186.416 110.093 C 179.157 108.39 165.774 100.524 163.22 98.972 C 162.458 98.509 162.825 98.699 162.316 98.158 C 161.031 96.796 157.146 90.526 154.483 88.936 C 152.503 87.754 150.318 87.532 148.458 87.851 C 146.603 88.169 144.618 89.67 143.337 90.835 C 142.193 91.875 141.623 93.644 140.927 94.361 C 140.482 94.82 140.324 94.742 139.722 95.175 C 138.605 95.977 135.291 98.174 134.299 99.243 C 133.698 99.891 133.73 100.446 133.396 100.871 C 133.117 101.224 133.196 101.232 132.492 101.684 C 130.383 103.04 121.478 108.691 115.32 110.635 C 109.131 112.59 100.242 114.07 95.438 113.348 C 91.988 112.83 88.719 111.098 87.906 109.279 C 87.155 107.596 88.614 104.129 90.016 103.041 C 91.266 102.069 93.646 102.326 95.438 102.498 C 97.262 102.674 98.199 104.372 100.86 104.126 C 105.639 103.684 120.936 96.552 123.454 95.175 C 124.224 94.753 123.838 94.802 124.357 94.361 C 125.469 93.418 129.582 90.359 130.685 89.207 C 131.27 88.595 131.103 88.461 131.588 87.851 C 132.391 86.839 134.319 84.479 135.504 83.511 C 136.371 82.803 137.336 82.561 137.914 82.155 C 138.335 81.86 138.226 81.687 138.818 81.341 C 140.088 80.599 143.815 78.556 146.65 78.086 Z" style="stroke-width: 2px; stroke: rgb(104, 105, 101); fill: rgb(181, 181, 181);" transform="matrix(1, 0, 0, 1, -2.842170943040401e-14, 0)"/>
</svg>
