<?xml version="1.0" encoding="utf-8"?>
<svg viewBox="0 0 372 492" width="372px" height="492px" xmlns="http://www.w3.org/2000/svg">
  <g/>
  <g/>
  <g transform="matrix(1, 0, 0, 1, -136.139681, -25.853608)">
    <circle style="stroke: rgb(0, 0, 0); fill: rgb(194, 130, 34);" transform="matrix(1.213968, 0, 0, 0.868877, -338.922424, 39.163918)" cx="542.6" cy="182.8" r="108.6"/>
    <ellipse style="stroke: rgb(255, 255, 255); fill: rgb(255, 255, 255);" cx="388.695" cy="205.883" rx="23.535" ry="22.622"/>
    <ellipse style="stroke: rgb(0, 0, 0); fill: rgb(255, 255, 255);" cx="262.779" cy="197.779" rx="25.722" ry="19.246"/>
    <path style="fill: none; stroke: rgb(250, 50, 50); stroke-width: 4px;" d="M 280.958 184.156 C 277.005 189.202 274.061 187.019 274.918 191.861 C 275.822 196.967 269.728 199.78 266.821 196.679"/>
    <path style="fill: none; stroke: rgb(250, 50, 50); stroke-width: 4px;" d="M 264.902 178.294 C 263.966 188.804 268.259 197.051 264.027 194.71"/>
    <path style="fill: none; stroke: rgb(250, 50, 50); stroke-width: 4px;" d="M 280.123 211.921 C 278.831 209.63 279.428 205.429 274.41 206.352 C 268.723 205.764 264.461 199.729 265.736 199.861"/>
    <path style="fill: none; stroke: rgb(250, 50, 50); stroke-width: 4px;" d="M 237.725 194.435 C 247.906 197.505 257.416 194.788 260.152 196.399"/>
    <path style="fill: none; stroke: rgb(250, 50, 50); stroke-width: 4px;" d="M 242.318 208.732 C 248.394 201.324 252.554 205.067 261.065 199.568"/>
    <path style="fill: none; stroke: rgb(250, 50, 50); stroke-width: 4px;" d="M 250.33 214.32 C 252.022 210.948 258.565 212.22 259.412 208.954 C 260.461 204.904 262.764 206.438 262.233 201.41"/>
    <circle style="stroke: rgb(0, 0, 0);" transform="matrix(0.840569, 0, 0, 0.90235, -171.795181, -142.709885)" cx="518.6" cy="376.4" r="5.8"/>
    <path style="fill: none; stroke: rgb(250, 50, 50); stroke-width: 4px;" d="M 387.725 200.888 C 391.047 200.985 381.333 193.496 385.651 190.4 C 388.803 188.141 387.504 186.703 388 183.16"/>
    <path style="fill: none; stroke: rgb(250, 50, 50); stroke-width: 4px;" d="M 390.888 204.94 C 391.917 206.554 398.027 199.25 398.326 193.695 C 398.571 189.179 404.731 195.278 407.892 193.184"/>
    <path style="fill: none; stroke: rgb(250, 50, 50); stroke-width: 4px;" d="M 392.309 206.276 C 393.154 204.223 404.951 208.022 402.599 211.909 C 400.66 215.113 407.159 211.681 410.558 214.104"/>
    <path style="fill: none; stroke: rgb(250, 50, 50); stroke-width: 4px;" d="M 390.934 208.164 C 392.41 217.953 394.425 218.472 399.049 225.753"/>
    <path style="fill: none; stroke: rgb(250, 50, 50); stroke-width: 4px;" d="M 389.146 207.151 C 392.154 210.048 380.812 214.397 375.07 223.958"/>
    <path style="fill: none; stroke: rgb(250, 50, 50); stroke-width: 4px;" d="M 386.625 205.769 C 386.166 207.707 382.362 201.199 376.649 199.233 C 372.541 197.818 371.301 200.588 366.588 198.218"/>
    <ellipse style="fill: none; stroke: rgb(0, 0, 0);" cx="388.687" cy="205.84" rx="23.535" ry="22.622"/>
    <circle style="stroke: rgb(0, 0, 0);" transform="matrix(0.840569, 0, 0, 0.795901, -167.42421, -108.324867)" cx="662.6" cy="391.6" r="7"/>
    <ellipse style="stroke: rgb(0, 0, 0); fill: none;" cx="263.004" cy="197.735" rx="25.722" ry="19.246"/>
    <circle style="stroke-width: 3.6739px; stroke: rgb(205, 68, 68); fill: rgb(138, 52, 52);" transform="matrix(0.604305, 0, 0, 0.237844, -208.400223, 160.762985)" cx="872.6" cy="427.8" r="99"/>
    <path style="stroke: rgb(0, 0, 0); fill: rgb(229, 223, 199);" d="M 307.884 239.395 L 303.764 259.127 L 327.701 258.186 L 338.959 240.938 L 307.884 239.395 Z"/>
    <path style="fill: rgb(255, 215, 0); stroke: rgb(0, 0, 0);" d="M 351.128 242.576 L 351.005 263.152 L 377.328 266.769 C 379.041 268.66 380.083 259.147 375.468 254.048 C 376.928 253.192 353.585 241.136 351.128 242.576 Z"/>
    <path style="stroke: rgb(0, 0, 0); fill: rgb(248, 240, 240);" d="M 262.454 269.675 L 263.632 256.374 L 286.294 259.33 L 286.148 281.794 C 282.665 282.188 277.611 280.612 270.99 277.064 C 267.515 275.204 264.67 272.74 262.454 269.675 Z"/>
    <path style="fill: rgb(255, 215, 0); stroke: rgb(0, 0, 0);" d="M 291.446 261.695 L 291.004 283.124 L 309.546 285.194 L 312.786 263.025 L 291.446 261.695 Z"/>
    <path style="stroke: rgb(0, 0, 0); fill: rgb(211, 208, 171);" d="M 279.164 244.912 L 278.68 254.888 L 298.74 263.237 L 306.378 239.572 C 306.307 239.096 279.045 244.111 279.164 244.912 Z"/>
    <path style="fill: rgb(216, 216, 216); stroke: rgb(0, 0, 0);" d="M 312.049 269.38 L 340.304 269.231 L 339.865 284.455 L 309.989 285.489"/>
    <circle style="stroke: rgb(205, 68, 68); fill: none; stroke-width: 18.637px;" transform="matrix(0.602207, 0, 0, 0.227828, -207.076706, 164.444016)" cx="872.6" cy="427.8" r="99"/>
    <g transform="matrix(1, 0, 0, 1, 135.96843, 26.06951)"/>
    <path style="stroke: rgb(0, 0, 0); fill: rgb(240, 234, 214);" d="M 273.122 316.166 L 367.406 317.018 C 367.406 317.018 371.957 418.553 370.996 420.872 C 371.558 421.195 365.591 417.975 269.963 417.587 L 273.122 316.166 Z"/>
    <path style="stroke: rgb(0, 0, 0); fill: rgb(255, 255, 255);" d="M 256.612 271.239 C 251.446 274.037 315.904 296.333 324.084 291.902 C 329.102 295.38 385.668 271.9 386.576 270.603 C 397.547 270.995 390.568 303.011 386.498 302.866 C 386.498 308.319 319.643 319.272 319.643 317.965 C 313.783 317.578 247.59 308.832 248.388 307.715 C 245.516 307.715 253.306 271.239 256.612 271.239 Z"/>
    <path style="stroke: rgb(0, 0, 0); fill: rgb(208, 32, 32);" d="M 282.632 302.774 C 281.615 300.127 272.82 331.645 271.606 329.001 C 267.322 334.743 266.385 416.633 268.437 419.644 C 268.27 426.246 300.862 425.481 307.022 423.467 C 321.126 420.152 316.985 340 315.657 340.351 C 299.617 330.866 288.609 318.341 282.632 302.774 Z"/>
    <path style="stroke: rgb(0, 0, 0); fill: rgb(208, 32, 32);" d="M 342.211 423.858 C 327.786 426.922 336.177 381.59 333.176 383.347 C 332.684 383.53 317.942 314.556 326.825 311.248 C 323.032 313.436 361.466 311.71 368.65 307.564 C 369.304 307.277 393.899 380.675 378.011 387.65 C 371.467 408.109 359.534 420.178 342.211 423.858 Z" transform="matrix(-1, 0, 0, -1, 707.330497, 731.569823)"/>
    <g transform="matrix(1, 0, 0, 1, 135.96843, 26.06951)"/>
    <path style="stroke: rgb(0, 0, 0); fill: rgb(255, 255, 255);" d="M 276.906 301.686 L 264.776 334.871 C 270.036 331.05 290.031 337.768 286.904 340.04 C 286.904 342.549 310.028 341.999 310.028 336.654 C 308.456 333.139 338.511 332.053 343.919 344.14 C 348.039 349.666 375.047 344.446 369.635 337.189 L 367.442 299.045"/>
    <circle style="stroke: rgb(0, 0, 0); fill: rgb(64, 40, 14);" transform="matrix(0.451031, 0, 0, 0.519353, -32.812634, 222.760513)" cx="717.6" cy="250.2" r="13.2"/>
    <circle style="stroke: rgb(0, 0, 0); fill: rgb(64, 40, 14);" transform="matrix(0.451031, 0, 0, 0.699852, -34.371136, 161.966248)" cx="716.4" cy="319" r="11.6"/>
    <circle style="stroke: rgb(0, 0, 0); fill: rgb(64, 40, 14);" transform="matrix(0.451031, 0, 0, 0.669478, -33.397747, 156.61496)" cx="713.2" cy="386.4" r="12.8"/>
    <circle style="stroke: rgb(0, 0, 0); fill: rgb(64, 40, 14);" transform="matrix(0.451031, 0, 0, 0.584104, -28.863049, 253.235245)" cx="876.6" cy="246.8" r="12.2"/>
    <circle style="stroke: rgb(0, 0, 0); fill: rgb(64, 40, 14);" transform="matrix(0.451031, 0, 0, 0.746509, -40.272915, 114.10891)" cx="889.6" cy="351.8" r="11.6"/>
    <circle style="stroke: rgb(0, 0, 0); fill: rgb(64, 40, 14);" transform="matrix(0.451031, 0, 0, 0.640918, -39.834057, 165.807434)" cx="879" cy="295.2" r="11.4"/>
    <path stroke-width="0" d="M 294.254 352.149 C 296.514 351.754 307.273 355.079 307.307 355.253 C 307.341 355.423 291.467 356.021 288.557 355.769 C 287.378 355.667 286.726 355.455 286.665 355.253 C 286.618 355.098 293.568 352.269 294.254 352.149 Z M 294.809 383.491 C 296.246 382.803 307.806 385.903 307.858 386.078 C 307.908 386.248 290.874 386.779 288.075 386.594 C 287.055 386.527 286.743 386.485 286.527 386.25 C 286.373 386.082 294.446 383.665 294.809 383.491 Z M 293.988 414.866 C 296.32 414.459 305.553 417.693 305.587 417.867 C 305.621 418.037 288.816 418.644 285.805 418.383 C 284.61 418.279 283.973 418.069 283.913 417.867 C 283.866 417.712 293.293 414.987 293.988 414.866 Z M 342.538 351.159 C 343.76 350.599 361.65 351.427 361.803 351.675 C 361.942 351.899 350.185 352.717 346.838 352.535 C 344.791 352.424 342.965 352.045 342.538 351.675 C 342.356 351.518 342.25 351.29 342.538 351.159 Z M 347.045 375.654 C 348.378 375.267 354.914 375.291 358.398 375.654 C 361.57 375.984 367.22 377.144 367.171 377.546 C 367.122 377.957 361.015 378.256 357.71 378.062 C 354.158 377.854 347.075 376.714 346.528 376.17 C 346.346 375.988 346.6 375.783 347.045 375.654 Z M 352.274 397.81 C 355.08 397.65 368.879 398.435 369.992 399.186 C 370.299 399.393 370.179 399.7 369.819 399.874 C 368.708 400.412 361.222 400.214 357.778 399.874 C 354.92 399.592 350.606 398.702 350.382 398.326 C 350.251 398.106 351.112 397.876 352.274 397.81 Z" style="stroke-width: 2px; fill: rgb(64, 40, 14);"/>
  </g>
</svg>