<?xml version="1.0" encoding="utf-8"?>
<svg viewBox="0 0 500 500" xmlns="http://www.w3.org/2000/svg">
  <g transform="matrix(1, 0, 0, 1, -106.962, -151.580004)">
    <g>
      <rect x="106.962" y="151.58" width="276.834" height="274.411" style="stroke: rgb(0, 0, 0); fill: rgb(255, 0, 0);"/>
    </g>
  </g>
  <path d="M 91.805 132.903 C 100.951 144.749 112.84 136.548 114.668 137.459 C 116.497 138.371 117.412 140.193 116.497 143.838 C 116.497 143.838 113.633 146.648 112.84 150.217 C 112.84 150.217 111.01 155.685 111.923 156.596 C 112.836 157.507 114.265 158.559 115.658 157.892 C 115.658 157.892 118.446 160.925 121.983 160.228 C 121.983 160.228 125.412 162.055 127.695 161.517 C 127.695 161.517 131.117 163.654 133.758 162.056 C 136.399 163.654 139.822 161.517 139.822 161.517 C 142.104 162.056 145.534 160.228 145.534 160.228 C 149.07 160.925 151.859 157.892 151.859 157.892 C 153.252 158.559 154.679 157.507 155.593 156.596 C 156.508 155.684 154.679 150.217 154.679 150.217 C 153.885 146.648 151.021 143.838 151.021 143.838 C 150.106 140.193 151.021 138.37 152.85 137.459 C 154.679 136.548 166.568 144.749 175.713 132.903 C 184.858 121.056 176.108 110.095 175.193 107.361 C 175.193 107.361 176.856 86.428 173.998 79.708 C 166.875 62.955 159.023 58.065 133.758 58.065 C 108.494 58.065 100.642 62.956 93.519 79.708 C 90.661 86.428 92.323 107.361 92.323 107.361 C 91.411 110.095 82.66 121.055 91.805 132.903 Z M 144.735 109.551 C 150.222 106.02 159.368 102.489 163.445 107.615 C 166.139 111.002 164.105 120.834 159.368 124.587 C 154.63 128.341 147.25 126.068 142.644 122.537 C 138.038 119.005 139.248 113.082 144.735 109.551 Z M 133.76 129.486 C 133.76 129.486 141.308 134.814 139.422 138.699 C 137.535 142.585 133.76 135.978 133.76 135.978 C 133.76 135.978 129.986 142.585 128.098 138.699 C 126.21 134.814 133.76 129.486 133.76 129.486 Z M 104.075 107.615 C 108.152 102.489 117.297 106.02 122.785 109.551 C 128.273 113.082 129.483 119.006 124.876 122.537 C 120.269 126.068 112.89 128.342 108.153 124.587 C 103.416 120.833 101.381 111.002 104.075 107.615 Z" style="fill: rgb(255, 255, 255);" transform="matrix(1, -0.000041, 0.000041, 1, -0.004525, 0.005484)"/>
  <path d="M 199.343 192.528 C 193.652 190.307 185.226 191.788 178.652 193.781 L 149.78 182.781 C 166.849 176.112 181.183 170.499 181.961 170.093 C 183.922 169.068 187.315 169.695 191.716 171.745 C 196.117 173.795 202.233 173.681 204.062 169.18 C 205.891 164.679 200.175 161.264 199.376 160.858 C 198.577 160.451 198.176 158.36 198.176 158.36 C 198.176 158.36 202.405 155.741 201.491 151.602 C 200.576 147.463 195.261 143.438 188.344 145.945 C 181.429 148.451 177.314 159.044 177.314 159.044 L 132.392 176.157 L 87.472 159.044 C 87.472 159.044 83.357 148.45 76.441 145.945 C 69.525 143.439 64.209 147.463 63.294 151.602 C 62.38 155.741 66.61 158.36 66.61 158.36 C 66.61 158.36 66.21 160.451 65.41 160.858 C 64.609 161.265 58.893 164.679 60.722 169.18 C 62.551 173.681 68.667 173.795 73.069 171.745 C 77.47 169.694 80.863 169.068 82.824 170.093 C 83.602 170.499 97.935 176.112 115.005 182.781 L 86.132 193.781 C 79.559 191.788 71.132 190.307 65.442 192.528 C 59.916 194.685 58.125 202.666 64.012 205.311 C 69.9 207.957 73.672 205.57 73.844 206.767 C 74.015 207.963 76.873 217.189 84.761 215.311 C 92.648 213.432 90.134 206.653 90.934 205.97 C 91.312 205.647 111.264 197.831 132.392 189.574 C 153.521 197.83 173.472 205.647 173.849 205.97 C 174.65 206.654 172.135 213.431 180.022 215.31 C 187.91 217.189 190.768 207.963 190.939 206.766 C 191.11 205.569 194.883 207.957 200.77 205.311 C 206.657 202.665 204.868 194.685 199.343 192.528 Z" style="fill: rgb(255, 255, 255);" transform="matrix(0.999317, 0.036952, -0.036952, 0.999317, 6.75531, -4.768968)"/>
</svg>