<?xml version="1.0" encoding="utf-8"?>
<svg viewBox="79.4851 278.8742 76.9775 145.9262" xmlns="http://www.w3.org/2000/svg">
  <path style="stroke: rgb(0, 0, 0); fill: rgb(255, 0, 0); stroke-width: 2px; transform-origin: 150px 280px;" d="M 150.55 283.807 C 150.704 283.767 166.277 417.64 146.254 422.884 C 145.856 425.27 93.023 425.542 87.432 422.347 C 69.889 421.908 100.391 280.043 101.113 280.061 L 150.55 283.807 Z" transform="matrix(0.999848008156, 0.017453003675, -0.017453003675, 0.999848008156, -3.73876e-7, 7.3382e-8)"/>
  <ellipse style="stroke: rgb(0, 0, 0); transform-origin: 141.501px 279.841px;" cx="128.251" cy="355.986" rx="4.811" ry="5.312" transform="matrix(0.999848008156, 0.017453003675, -0.017453003675, 0.999848008156, 8.499342949351, 0.158991380277)"/>
  <ellipse style="stroke: rgb(0, 0, 0); transform-origin: 141.501px 279.841px;" cx="131.275" cy="382.153" rx="5.112" ry="5.212" transform="matrix(0.999848008156, 0.017453003675, -0.017453003675, 0.999848008156, 8.499359161822, 0.159108205353)"/>
  <ellipse style="stroke: rgb(0, 0, 0); transform-origin: 141.501px 279.841px;" cx="129.359" cy="401.942" rx="4.811" ry="4.911" transform="matrix(0.999848008156, 0.017453003675, -0.017453003675, 0.999848008156, 8.499366791216, 0.159113450601)"/>
  <ellipse style="stroke: rgb(0, 0, 0); transform-origin: 141.501px 279.841px;" cx="141.112" cy="355.943" rx="5.58" ry="1.357" transform="matrix(0.999848008156, 0.017453003675, -0.017453003675, 0.999848008156, 8.499369652259, 0.159133239283)"/>
  <ellipse style="stroke: rgb(0, 0, 0); transform-origin: 141.501px 279.841px;" cx="142.62" cy="381.355" rx="4.826" ry="1.433" transform="matrix(0.999848008156, 0.017453003675, -0.017453003675, 0.999848008156, 8.4993248295, 0.159046216463)"/>
  <ellipse style="stroke: rgb(0, 0, 0); transform-origin: 141.501px 279.841px;" cx="141.262" cy="400.961" rx="5.58" ry="1.282" transform="matrix(0.999848008156, 0.017453003675, -0.017453003675, 0.999848008156, 8.499348671393, 0.159103436961)"/>
</svg>
