<?xml version="1.0" encoding="utf-8"?>
<svg viewBox="77.5216 150.945 222.2507 330.8367" width="222.2507px" height="330.8367px" xmlns="http://www.w3.org/2000/svg" xmlns:bx="https://boxy-svg.com"><defs><bx:export><bx:file format="svg"/></bx:export></defs><path style="stroke: rgb(0, 0, 0); fill: rgb(255, 0, 0); stroke-width: 5px; transform-origin: 287.695px 553.938px;" d="M 178.885 339.515 C 178.885 339.515 188.814 416.924 174.15 419.825 C 173.676 421.065 135.365 420.643 131.102 418.994 C 118.331 418.572 142.453 337.025 142.927 337.025 L 178.885 339.515 Z"/><ellipse style="stroke: rgb(0, 0, 0); stroke-width: 5px; transform-origin: 150.43px 255.477px;" cx="128.251" cy="355.986" rx="7.405" ry="7.582" transform="matrix(0.999904990196, 0.013770000078, -0.022123003379, 0.999790012836, 38.77190767274, 21.121358903549)"/><ellipse style="stroke: rgb(0, 0, 0); stroke-width: 5px; transform-origin: 146.375px 232.159px;" cx="131.275" cy="382.153" rx="7.551" ry="7.4" transform="matrix(0.999904990196, 0.013770000078, -0.022123003379, 0.999790012836, 36.382868577791, 12.960244580162)"/><ellipse style="stroke: rgb(0, 0, 0); stroke-width: 5px; transform-origin: 141.586px 312.064px;" cx="141.112" cy="355.943" rx="4.262" ry="0.83" transform="matrix(0.999904990197, 0.013770000076, -0.022123003378, 0.999790012837, 37.12918064038, 20.157751636279)"/><ellipse style="stroke: rgb(0, 0, 0); stroke-width: 5px; transform-origin: 141.673px 322.99px;" cx="142.62" cy="381.355" rx="3.315" ry="0.83" transform="matrix(0.999904990196, 0.013770000077, -0.022123003378, 0.999790012837, 36.800164833714, 14.335793481742)"/></svg>
