<?xml version="1.0" encoding="utf-8"?>
<svg viewBox="19.8924 413.8882 133.9817 119.2398" xmlns="http://www.w3.org/2000/svg">
  <path style="stroke: rgb(0, 0, 0); fill: rgb(104, 53, 11); stroke-width: 2px; transform-origin: 122px 417px;" d="M 76.529 473.056 L 110.747 488.719 C 113.973 491.587 94.65 535.964 92.193 533.78 C 92.204 533.95 40.245 511.217 29.103 505.02 C 26.038 501.951 21.213 483.622 36.419 478.489 C 43.897 479.156 53.732 477.612 62.881 485.232 L 76.529 473.056 Z" transform="matrix(0.99862998724, 0.052336014807, -0.052336014807, 0.99862998724, -0.00000268979, 5.83921e-7)"/>
  <path style="stroke: rgb(0, 0, 0); fill: rgb(255, 0, 0); stroke-width: 2px; transform-origin: 122px 417px;" d="M 152.188 424.098 C 162.574 425.014 122.431 489.757 110.478 488.702 L 76.703 473.061 C 65.97 462.328 87.916 421.767 99.598 420.697 C 110.349 414.196 150.788 414.897 152.188 424.098 Z" transform="matrix(0.99862998724, 0.052336014807, -0.052336014807, 0.99862998724, -0.00000268979, 5.83922e-7)"/>
</svg>
