<?xml version="1.0" encoding="utf-8"?>
<svg viewBox="0 0 30 30" width="30px" height="30px" xmlns="http://www.w3.org/2000/svg" xmlns:bx="https://boxy-svg.com"><defs><bx:export><bx:file format="svg"/></bx:export></defs><g id="object-7" transform="matrix(1, 0, 0, 1, 7.985286, 2.896798)"><ellipse style="stroke: rgb(0, 0, 0); fill: rgb(151, 38, 10); transform-box: fill-box; transform-origin: 50% 50%;" cx="15.629" cy="14.931" rx="14.118" ry="14.323" transform="matrix(0.994522, 0.104528, -0.104528, 0.994522, -7.716167, -1.964874)" id="object-0"/><path style="stroke: rgb(0, 0, 0); fill: rgb(151, 38, 10); transform-box: fill-box; transform-origin: 50% 50%;" d="M 0.028 1.897 C -2.324 -0.532 5.064 -4.204 7.364 -1.616" id="object-1" transform="matrix(0.994522, 0.104528, -0.104528, 0.994522, 0, 0)"/><path stroke-width="0" d="M 12.064 20.418 C 12.336 20.361 12.973 20.285 13.4 20.418 C 13.853 20.557 14.465 20.919 14.697 21.282 C 14.902 21.601 14.917 22.093 14.846 22.411 C 14.782 22.696 14.586 22.925 14.363 23.126 C 14.118 23.348 13.703 23.572 13.4 23.653 C 13.139 23.722 12.931 23.746 12.657 23.653 C 12.296 23.528 11.674 23.175 11.434 22.787 C 11.198 22.407 11.128 21.744 11.212 21.358 C 11.282 21.028 11.603 20.718 11.767 20.568 C 11.875 20.469 11.908 20.449 12.064 20.418 Z M 11.189 3.85 C 11.681 3.736 12.098 3.801 12.45 3.924 C 12.765 4.033 12.984 4.142 13.229 4.488 C 13.612 5.029 14.121 6.523 14.267 7.272 C 14.373 7.819 14.339 8.18 14.267 8.626 C 14.194 9.083 14.057 9.567 13.822 9.981 C 13.58 10.409 13.279 10.911 12.821 11.148 C 12.308 11.412 11.39 11.463 10.819 11.373 C 10.326 11.295 9.98 11.078 9.557 10.771 C 9.055 10.407 8.318 9.777 8.037 9.228 C 7.793 8.753 7.784 8.276 7.815 7.724 C 7.849 7.088 8.116 6.068 8.334 5.617 C 8.475 5.322 8.538 5.26 8.816 5.053 C 9.28 4.706 10.527 4 11.189 3.85 Z M 1.839 11.19 C 2.212 11.095 2.571 11.126 3.026 11.266 C 3.627 11.452 4.703 11.88 5.14 12.433 C 5.544 12.945 5.613 14.113 5.659 14.389 C 5.674 14.486 5.684 14.442 5.659 14.539 C 5.584 14.831 5.007 16.364 4.769 16.683 C 4.656 16.834 4.543 16.815 4.472 16.871 C 4.42 16.913 4.429 16.926 4.36 16.984 C 4.212 17.112 3.824 17.533 3.471 17.662 C 3.091 17.8 2.554 17.859 2.136 17.736 C 1.698 17.609 1.235 17.261 0.912 16.871 C 0.569 16.458 0.353 15.877 0.171 15.291 C -0.029 14.658 -0.296 13.689 -0.2 13.185 C -0.131 12.817 0.201 12.557 0.356 12.395 C 0.455 12.291 0.548 12.291 0.615 12.207 C 0.686 12.118 0.65 11.99 0.763 11.867 C 0.95 11.667 1.457 11.289 1.839 11.19 Z M 14.403 13.9 C 15.615 13.754 17.36 13.884 18.334 14.126 C 19.043 14.301 19.626 14.593 19.928 14.915 C 20.156 15.158 20.242 15.452 20.225 15.743 C 20.207 16.063 20.061 16.5 19.743 16.759 C 19.335 17.091 18.649 17.173 17.741 17.36 C 16.379 17.641 13.123 18.35 12.029 18.113 C 11.414 17.98 11.184 17.625 10.955 17.248 C 10.721 16.864 10.629 16.199 10.658 15.819 C 10.68 15.522 10.845 15.232 10.955 15.103 C 11.024 15.021 11.119 15.032 11.177 14.991 C 11.225 14.956 11.189 14.929 11.288 14.878 C 11.622 14.706 13.279 14.036 14.403 13.9 Z" style="stroke-width: 2px; stroke: rgb(0, 0, 0); fill: rgb(85, 43, 32); transform-box: fill-box; transform-origin: 50% 50%;" id="object-2" transform="matrix(0.994522, 0.104528, -0.104528, 0.994522, 0, 0)"/><path style="stroke: rgb(0, 0, 0); fill: rgb(151, 38, 10); transform-origin: 33.62px -5.827px;" d="M 17.394 3.529 C 19.532 2.132 24.454 9.485 23.02 10.479" id="object-3" transform="matrix(0.994522, 0.104528, -0.104528, 0.994522, 0, 0)"/><path style="stroke: rgb(0, 0, 0); fill: rgb(151, 38, 10); transform-box: fill-box; transform-origin: 50% 50%;" d="M -4.347 14.925 C -4.347 14.925 -7.792 12.968 -7.221 13.03 C -6.65 13.093 -5.761 9.42 -7.301 9.253 C -8.841 9.085 -3.941 7.377 -3.941 7.377" id="object-4" transform="matrix(0.994522, 0.104528, -0.104528, 0.994522, 0, 0)"/><path style="stroke: rgb(0, 0, 0); transform-box: fill-box; transform-origin: 50% 50%;" d="M 18.264 23.063 C 17.114 22.804 19.031 19.399 20.181 19.659" id="object-5" transform="matrix(0.994522, 0.104528, -0.104528, 0.994522, 0, 0)"/><path style="stroke: rgb(0, 0, 0); transform-box: fill-box; transform-origin: 50% 50%;" d="M -5.082 19.389 C -5.274 20.36 1.584 25.93 1.73 25.19 C 4.142 23.321 -3.852 16.855 -5.082 19.389 Z" id="object-6" transform="matrix(0.994522, 0.104528, -0.104528, 0.994522, 0, 0)"/></g></svg>
