<?xml version="1.0" encoding="utf-8"?>
<svg viewBox="0 0 372 492" width="372px" height="492px" xmlns="http://www.w3.org/2000/svg" xmlns:bx="https://boxy-svg.com">
  <g transform="matrix(0.999732, 0.023342, -0.028236, 1.2094, 10.977718, -107.318665)" style="" bx:origin="0.363965 0">
    <path style="stroke: rgb(0, 0, 0); fill: rgb(208, 32, 32);" d="M 242.67 395.349 C 259.658 412.697 238.047 443.189 223.497 445.301 L 198.46 445.177 C 182.975 443.401 174.83 393.968 187.147 390.442 C 188.334 388.674 244.331 392.875 242.67 395.349 Z"/>
    <path style="fill: rgb(216, 216, 216); stroke: rgb(0, 0, 0);" d="M 192.916 439.965 L 214.976 390.95"/>
    <path style="fill: rgb(216, 216, 216); stroke: rgb(0, 0, 0);" d="M 202.8 444.642 L 227.369 391.732"/>
    <path style="fill: rgb(216, 216, 216); stroke: rgb(0, 0, 0);" d="M 186.586 431.464 L 200.495 390.428"/>
    <path style="fill: rgb(216, 216, 216); stroke: rgb(0, 0, 0);" d="M 230.879 392.633 L 238.932 433.458" transform="matrix(-1, 0, 0, -1, 469.811001, 826.091018)"/>
    <path style="fill: rgb(216, 216, 216); stroke: rgb(0, 0, 0);" d="M 242.213 428.807 L 235.17 393.08"/>
    <path style="fill: rgb(216, 216, 216); stroke: rgb(0, 0, 0);" d="M 227.522 444.964 L 227.17 392.614"/>
    <path style="stroke: rgb(0, 0, 0); fill: rgb(98, 74, 46);" d="M 239.626 488.49 L 266.209 486.959 L 274.03 443.25 L 192.476 444.372 L 197.961 466.762 C 199.762 470.967 236.184 472.304 233.816 466.781 L 239.626 488.49 Z" transform="matrix(-1, 0, 0, -1, 466.505998, 931.740008)"/>
  </g>
  <g transform="matrix(1, 0, 0, 1, -0.005783, 0.011375)">
    <circle style="stroke: rgb(0, 0, 0); fill: rgb(194, 130, 34);" transform="matrix(-0.486782, 0.176085, 0.256605, 0.709335, 425.865509, -17.582836)" cx="512.8" cy="399.2" r="33.6"/>
    <path style="stroke: rgb(0, 0, 0); fill: rgb(208, 32, 32);" d="M 276.538 355.603 C 262.113 358.667 249.377 346.397 247.828 343.667 C 242.591 338.707 219.226 297.665 224.604 297.059 C 223.319 296.765 229.908 278.123 242.817 281.627 C 250.846 283.312 270.504 313.335 267.503 315.092 C 267.011 315.275 293.861 351.923 276.538 355.603 Z" transform="matrix(-1, 0, 0, -1, 506.17346, 637.27921)"/>
  </g>
  <g transform="matrix(1, 0, 0, 1.190766, -0.045, -93.7005)" bx:origin="0.499497 0.5">
    <path style="stroke: rgb(0, 0, 0); fill: rgb(208, 32, 32);" d="M 137.665 394.492 C 116.053 394.449 110.348 445.398 119.609 446.467 L 152.85 447.337 C 174.174 444.225 198.486 389.061 189.584 390.36 L 137.665 394.492 Z"/>
    <path style="fill: rgb(129, 122, 122); stroke: rgb(0, 0, 0);" d="M 174.854 428.823 L 177.897 391.185"/>
    <path style="fill: rgb(129, 122, 122); stroke: rgb(0, 0, 0);" d="M 167.194 437.26 L 164.696 391.968"/>
    <path style="fill: rgb(129, 122, 122); stroke: rgb(0, 0, 0);" d="M 145.397 446.835 L 149.122 393.619"/>
    <path style="stroke: rgb(0, 0, 0); fill: rgb(98, 74, 46);" d="M 122.595 445.369 L 149.179 446.9 L 156.999 490.609 L 75.445 489.487 L 80.93 467.097 C 82.732 462.892 119.153 461.555 116.786 467.078 L 122.595 445.369 Z"/>
    <path style="fill: rgb(129, 122, 122); stroke: rgb(0, 0, 0);" d="M 116.281 440.444 L 130.51 397.988"/>
    <path style="fill: rgb(129, 122, 122); stroke: rgb(0, 0, 0);" d="M 123.092 442.759 L 137.812 395.05"/>
    <path style="fill: rgb(129, 122, 122); stroke: rgb(0, 0, 0);" d="M 135.062 443.926 L 143.824 394.191"/>
  </g>
  <g transform="matrix(1, 0, 0, 1, 0.028317, -0.01487)">
    <circle style="stroke: rgb(0, 0, 0); fill: rgb(194, 130, 34);" transform="matrix(0.467539, 0.169124, -0.263186, 0.727527, -30.866127, -33.260578)" cx="512.8" cy="399.2" r="33.6"/>
    <path style="stroke: rgb(0, 0, 0); fill: rgb(208, 32, 32);" d="M 141.904 287.441 C 141.904 287.441 122.199 280.473 115.984 287.018 C 100.008 303.843 90.147 339.737 90.147 339.737 C 99.387 338.4 111.219 338.586 115.243 349.091 C 117.536 351.687 128.977 331.542 135.32 317.684 C 140.179 312.8 151.051 295.303 141.904 287.441 Z"/>
  </g>
  <g transform="matrix(1, 0, 0, 1, -136.139664, -25.834599)">
    <circle style="stroke: rgb(0, 0, 0); fill: rgb(194, 130, 34);" transform="matrix(1.213968, 0, 0, 0.868877, -338.922424, 39.163918)" cx="542.6" cy="182.8" r="108.6"/>
    <ellipse style="stroke: rgb(255, 255, 255); fill: rgb(255, 255, 255);" cx="388.695" cy="205.883" rx="23.535" ry="22.622"/>
    <ellipse style="stroke: rgb(0, 0, 0); fill: rgb(255, 255, 255);" cx="262.779" cy="197.779" rx="25.722" ry="19.246"/>
    <path style="fill: none; stroke: rgb(250, 50, 50); stroke-width: 4px;" d="M 280.958 184.156 C 277.005 189.202 274.061 187.019 274.918 191.861 C 275.822 196.967 269.728 199.78 266.821 196.679"/>
    <path style="fill: none; stroke: rgb(250, 50, 50); stroke-width: 4px;" d="M 264.902 178.294 C 263.966 188.804 268.259 197.051 264.027 194.71"/>
    <path style="fill: none; stroke: rgb(250, 50, 50); stroke-width: 4px;" d="M 280.123 211.921 C 278.831 209.63 279.428 205.429 274.41 206.352 C 268.723 205.764 264.461 199.729 265.736 199.861"/>
    <path style="fill: none; stroke: rgb(250, 50, 50); stroke-width: 4px;" d="M 237.725 194.435 C 247.906 197.505 257.416 194.788 260.152 196.399"/>
    <path style="fill: none; stroke: rgb(250, 50, 50); stroke-width: 4px;" d="M 242.318 208.732 C 248.394 201.324 252.554 205.067 261.065 199.568"/>
    <path style="fill: none; stroke: rgb(250, 50, 50); stroke-width: 4px;" d="M 250.33 214.32 C 252.022 210.948 258.565 212.22 259.412 208.954 C 260.461 204.904 262.764 206.438 262.233 201.41"/>
    <circle style="stroke: rgb(0, 0, 0);" transform="matrix(0.840569, 0, 0, 0.90235, -171.795181, -142.709885)" cx="518.6" cy="376.4" r="5.8"/>
    <path style="fill: none; stroke: rgb(250, 50, 50); stroke-width: 4px;" d="M 387.725 200.888 C 391.047 200.985 381.333 193.496 385.651 190.4 C 388.803 188.141 387.504 186.703 388 183.16"/>
    <path style="fill: none; stroke: rgb(250, 50, 50); stroke-width: 4px;" d="M 390.888 204.94 C 391.917 206.554 398.027 199.25 398.326 193.695 C 398.571 189.179 404.731 195.278 407.892 193.184"/>
    <path style="fill: none; stroke: rgb(250, 50, 50); stroke-width: 4px;" d="M 392.309 206.276 C 393.154 204.223 404.951 208.022 402.599 211.909 C 400.66 215.113 407.159 211.681 410.558 214.104"/>
    <path style="fill: none; stroke: rgb(250, 50, 50); stroke-width: 4px;" d="M 390.934 208.164 C 392.41 217.953 394.425 218.472 399.049 225.753"/>
    <path style="fill: none; stroke: rgb(250, 50, 50); stroke-width: 4px;" d="M 389.146 207.151 C 392.154 210.048 380.812 214.397 375.07 223.958"/>
    <path style="fill: none; stroke: rgb(250, 50, 50); stroke-width: 4px;" d="M 386.625 205.769 C 386.166 207.707 382.362 201.199 376.649 199.233 C 372.541 197.818 371.301 200.588 366.588 198.218"/>
    <ellipse style="fill: none; stroke: rgb(0, 0, 0);" cx="388.687" cy="205.84" rx="23.535" ry="22.622"/>
    <circle style="stroke: rgb(0, 0, 0);" transform="matrix(0.840569, 0, 0, 0.795901, -167.42421, -108.324867)" cx="662.6" cy="391.6" r="7"/>
    <ellipse style="stroke: rgb(0, 0, 0); fill: none;" cx="263.004" cy="197.735" rx="25.722" ry="19.246"/>
    <circle style="stroke-width: 3.6739px; stroke: rgb(205, 68, 68); fill: rgb(138, 52, 52);" transform="matrix(0.604305, 0, 0, 0.237844, -208.400223, 160.762985)" cx="872.6" cy="427.8" r="99"/>
    <path style="stroke: rgb(0, 0, 0); fill: rgb(229, 223, 199);" d="M 307.884 239.395 L 303.764 259.127 L 327.701 258.186 L 338.959 240.938 L 307.884 239.395 Z"/>
    <path style="fill: rgb(255, 215, 0); stroke: rgb(0, 0, 0);" d="M 351.128 242.576 L 351.005 263.152 L 377.328 266.769 C 379.041 268.66 380.083 259.147 375.468 254.048 C 376.928 253.192 353.585 241.136 351.128 242.576 Z"/>
    <path style="stroke: rgb(0, 0, 0); fill: rgb(248, 240, 240);" d="M 262.454 269.675 L 263.632 256.374 L 286.294 259.33 L 286.148 281.794 C 282.665 282.188 277.611 280.612 270.99 277.064 C 267.515 275.204 264.67 272.74 262.454 269.675 Z"/>
    <path style="fill: rgb(255, 215, 0); stroke: rgb(0, 0, 0);" d="M 291.446 261.695 L 291.004 283.124 L 309.546 285.194 L 312.786 263.025 L 291.446 261.695 Z"/>
    <path style="stroke: rgb(0, 0, 0); fill: rgb(211, 208, 171);" d="M 279.164 244.912 L 278.68 254.888 L 298.74 263.237 L 306.378 239.572 C 306.307 239.096 279.045 244.111 279.164 244.912 Z"/>
    <path style="fill: rgb(216, 216, 216); stroke: rgb(0, 0, 0);" d="M 312.049 269.38 L 340.304 269.231 L 339.865 284.455 L 309.989 285.489"/>
    <circle style="stroke: rgb(205, 68, 68); fill: none; stroke-width: 18.637px;" transform="matrix(0.602207, 0, 0, 0.227828, -207.076706, 164.444016)" cx="872.6" cy="427.8" r="99"/>
    <g transform="matrix(1, 0, 0, 1, 135.96843, 26.06951)"/>
    <path style="stroke: rgb(0, 0, 0); fill: rgb(240, 234, 214);" d="M 273.122 316.166 L 367.406 317.018 C 367.406 317.018 371.957 418.553 370.996 420.872 C 371.558 421.195 365.591 417.975 269.963 417.587 L 273.122 316.166 Z"/>
    <path style="stroke: rgb(0, 0, 0); fill: rgb(255, 255, 255);" d="M 256.612 271.239 C 251.446 274.037 315.904 296.333 324.084 291.902 C 329.102 295.38 385.668 271.9 386.576 270.603 C 397.547 270.995 390.568 303.011 386.498 302.866 C 386.498 308.319 319.643 319.272 319.643 317.965 C 313.783 317.578 247.59 308.832 248.388 307.715 C 245.516 307.715 253.306 271.239 256.612 271.239 Z"/>
    <path style="stroke: rgb(0, 0, 0); fill: rgb(208, 32, 32);" d="M 282.632 302.774 C 281.615 300.127 272.82 331.645 271.606 329.001 C 267.322 334.743 266.385 416.633 268.437 419.644 C 268.27 426.246 300.862 425.481 307.022 423.467 C 321.126 420.152 316.985 340 315.657 340.351 C 299.617 330.866 288.609 318.341 282.632 302.774 Z"/>
    <path style="stroke: rgb(0, 0, 0); fill: rgb(208, 32, 32);" d="M 342.211 423.858 C 327.786 426.922 336.177 381.59 333.176 383.347 C 332.684 383.53 317.942 314.556 326.825 311.248 C 323.032 313.436 361.466 311.71 368.65 307.564 C 369.304 307.277 393.899 380.675 378.011 387.65 C 371.467 408.109 359.534 420.178 342.211 423.858 Z" transform="matrix(-1, 0, 0, -1, 707.330497, 731.569823)"/>
    <g transform="matrix(1, 0, 0, 1, 135.96843, 26.06951)"/>
    <path style="stroke: rgb(0, 0, 0); fill: rgb(255, 255, 255);" d="M 276.906 301.686 L 264.776 334.871 C 270.036 331.05 290.031 337.768 286.904 340.04 C 286.904 342.549 310.028 341.999 310.028 336.654 C 308.456 333.139 338.511 332.053 343.919 344.14 C 348.039 349.666 375.047 344.446 369.635 337.189 L 367.442 299.045"/>
    <circle style="stroke: rgb(0, 0, 0); fill: rgb(64, 40, 14);" transform="matrix(0.451031, 0, 0, 0.519353, -32.812634, 222.760513)" cx="717.6" cy="250.2" r="13.2"/>
    <circle style="stroke: rgb(0, 0, 0); fill: rgb(64, 40, 14);" transform="matrix(0.451031, 0, 0, 0.699852, -34.371136, 161.966248)" cx="716.4" cy="319" r="11.6"/>
    <circle style="stroke: rgb(0, 0, 0); fill: rgb(64, 40, 14);" transform="matrix(0.451031, 0, 0, 0.669478, -33.397747, 156.61496)" cx="713.2" cy="386.4" r="12.8"/>
    <circle style="stroke: rgb(0, 0, 0); fill: rgb(64, 40, 14);" transform="matrix(0.451031, 0, 0, 0.584104, -28.863049, 253.235245)" cx="876.6" cy="246.8" r="12.2"/>
    <circle style="stroke: rgb(0, 0, 0); fill: rgb(64, 40, 14);" transform="matrix(0.451031, 0, 0, 0.746509, -40.272915, 114.10891)" cx="889.6" cy="351.8" r="11.6"/>
    <circle style="stroke: rgb(0, 0, 0); fill: rgb(64, 40, 14);" transform="matrix(0.451031, 0, 0, 0.640918, -39.834057, 165.807434)" cx="879" cy="295.2" r="11.4"/>
    <path stroke-width="0" d="M 294.254 352.149 C 296.514 351.754 307.273 355.079 307.307 355.253 C 307.341 355.423 291.467 356.021 288.557 355.769 C 287.378 355.667 286.726 355.455 286.665 355.253 C 286.618 355.098 293.568 352.269 294.254 352.149 Z M 294.809 383.491 C 296.246 382.803 307.806 385.903 307.858 386.078 C 307.908 386.248 290.874 386.779 288.075 386.594 C 287.055 386.527 286.743 386.485 286.527 386.25 C 286.373 386.082 294.446 383.665 294.809 383.491 Z M 293.988 414.866 C 296.32 414.459 305.553 417.693 305.587 417.867 C 305.621 418.037 288.816 418.644 285.805 418.383 C 284.61 418.279 283.973 418.069 283.913 417.867 C 283.866 417.712 293.293 414.987 293.988 414.866 Z M 342.538 351.159 C 343.76 350.599 361.65 351.427 361.803 351.675 C 361.942 351.899 350.185 352.717 346.838 352.535 C 344.791 352.424 342.965 352.045 342.538 351.675 C 342.356 351.518 342.25 351.29 342.538 351.159 Z M 347.045 375.654 C 348.378 375.267 354.914 375.291 358.398 375.654 C 361.57 375.984 367.22 377.144 367.171 377.546 C 367.122 377.957 361.015 378.256 357.71 378.062 C 354.158 377.854 347.075 376.714 346.528 376.17 C 346.346 375.988 346.6 375.783 347.045 375.654 Z M 352.274 397.81 C 355.08 397.65 368.879 398.435 369.992 399.186 C 370.299 399.393 370.179 399.7 369.819 399.874 C 368.708 400.412 361.222 400.214 357.778 399.874 C 354.92 399.592 350.606 398.702 350.382 398.326 C 350.251 398.106 351.112 397.876 352.274 397.81 Z" style="stroke-width: 2px; fill: rgb(64, 40, 14);"/>
  </g>
  <g transform="matrix(1, 0, 0, 1, -0.004178, 0.027353)" bx:origin="0.5 -0.102449">
    <path stroke-width="0" d="M 287.604 97.053 C 288.158 95.348 295.174 95.065 297.261 97.272 C 300.532 100.733 315.416 155.181 314.227 158.766 C 313.268 161.656 311.448 163.14 308.871 165.098 C 305.578 167.598 297.421 169.397 295.118 171.849 C 293.612 173.452 283.997 173.646 284.183 171.427 C 284.394 168.896 287.024 165.489 289.51 163.408 C 292.172 161.18 302.775 157.436 303.263 156.655 C 304.072 155.358 304.76 151.524 303.966 148.636 C 302.977 145.03 297.797 140.895 296.199 136.817 C 294.7 132.997 286.807 99.504 287.604 97.053 Z" style="stroke-width: 2px; fill: rgb(56, 30, 3);" transform="matrix(0.999874, -0.015849, 0.015849, 0.999874, -2.092227, 4.759402)"/>
    <path stroke-width="0" d="M 259.929 94.518 C 259.983 92.003 272.031 91.557 274.721 94.518 C 279.657 99.955 296.878 154.148 297.005 160.267 C 297.061 163.063 295.641 164.38 294.142 164.911 C 292.444 165.508 288.815 164.648 286.961 162.799 C 284.651 160.496 280.963 150.561 280.005 149.292 C 277.708 146.259 259.832 99.136 259.929 94.518 Z" style="stroke-width: 2px; fill: rgb(56, 30, 3);" transform="matrix(0.999874, -0.015849, 0.015849, 0.999874, -2.006019, 4.429524)"/>
    <path stroke-width="0" d="M 223.497 95.761 C 223.837 93.823 230.665 91.99 232.044 93.655 C 233.496 95.405 232.687 126.841 234.139 129.878 C 236.095 133.974 243.929 139.039 246.138 143.385 C 247.903 146.861 248.41 150.92 247.992 153.514 C 247.667 155.536 242.999 161.049 243.093 161.956 C 243.201 162.998 239.346 170.375 237.767 169.976 C 236.277 169.598 234.767 168.609 233.933 167.02 C 232.848 164.95 234.591 153.054 235.347 151.404 C 235.918 150.155 226.572 137.737 225.848 136.632 C 224.488 134.55 222.982 98.709 223.497 95.761 Z" style="stroke-width: 2px; fill: rgb(56, 30, 3);" transform="matrix(0.999874, -0.015849, 0.015849, 0.999874, -2.054461, 3.753034)"/>
    <path stroke-width="0" d="M 213.504 92.732 C 213.995 91.778 223.873 88.266 225.15 90.718 C 227.234 94.709 222.032 138.611 219.617 146.716 C 216.816 156.12 208.086 169.958 202.043 175.838 C 197.694 180.072 191.181 183.427 188.71 182.591 C 186.844 181.96 189.926 170.666 191.841 169.085 C 193.543 167.682 195.272 168.306 197.255 166.13 C 200.768 162.274 207.03 151.091 209.473 143.339 C 211.776 136.021 212.18 95.302 213.504 92.732 Z" style="stroke-width: 2px; fill: rgb(56, 30, 3);" transform="matrix(0.999874, -0.015849, 0.015849, 0.999874, -2.134064, 3.295926)"/>
    <path stroke-width="0" d="M 190.919 90.451 C 191.886 89.427 203.838 90.377 205.051 91.574 C 206.262 92.769 198.92 125.31 198.502 127.057 C 198.129 128.614 196.699 130.095 195.625 130.855 C 194.729 131.489 195.009 138.689 193.734 143.095 C 191.929 149.334 190.617 145.149 183.559 138.03 C 181.202 135.65 189.687 91.758 190.919 90.451 Z" style="stroke-width: 2px; fill: rgb(56, 30, 3);" transform="matrix(0.999874, -0.015849, 0.015849, 0.999874, -1.846979, 3.092119)"/>
  </g>
  <g transform="matrix(1.000001, -0.000036, 0.000036, 1.000001, -0.016129, 0.02832)" bx:origin="0.5 -0.059676">
    <path stroke-width="0" d="M 113.287 95.011 C 114.1 94.277 125.236 97.138 125.85 99.02 C 126.624 101.393 96.827 138.852 96.349 140.102 C 95.3 142.851 99.614 153.635 98.378 160.361 C 97.053 167.568 91.369 178.93 87.819 181.888 C 85.733 183.624 78.172 178.37 78.464 175.557 C 78.853 171.805 85.198 166.796 86.638 162.051 C 88.018 157.493 87.535 151.875 87.233 147.701 C 86.978 144.17 84.531 141.671 85.392 138.413 C 86.479 134.31 111.338 96.769 113.287 95.011 Z" style="stroke-width: 2px; fill: rgb(56, 30, 3);" transform="matrix(0.999874, -0.015849, 0.015849, 0.999874, -2.183207, 1.636511)"/>
    <path stroke-width="0" d="M 87.147 101.536 C 87.705 99.944 100.502 92.973 101.908 95.049 C 103.817 97.867 82.198 139.852 81.141 143.376 C 80.43 145.753 78.325 147.005 77.439 148.017 C 76.893 148.644 76.817 148.394 76.199 149.284 C 74.645 151.524 71.711 162.091 67.641 164.901 C 63.911 167.477 56.212 167.16 53.38 166.589 C 51.751 166.262 50.555 157.94 51.54 157.304 C 52.593 156.622 56.714 156.584 57.41 156.459 C 58.393 156.284 59.915 156.455 61.17 155.192 C 63.327 153.027 65.655 143.737 67.657 141.264 C 68.818 139.83 70.334 140.552 70.983 139.155 C 71.956 137.058 86.329 103.879 87.147 101.536 Z" style="stroke-width: 2px; fill: rgb(56, 3, 3);" transform="matrix(0.999874, -0.015849, 0.015849, 0.999874, -2.063795, 1.230523)"/>
    <path stroke-width="0" d="M 160.135 92.002 C 161.102 90.978 176.87 85 178.082 86.198 C 179.293 87.392 172.862 125.312 172.444 127.058 C 172.07 128.616 170.641 130.096 169.566 130.856 C 168.67 131.491 168.95 138.692 167.676 143.096 C 165.87 149.336 157.573 163.247 152.508 165.465 C 148.993 167.007 143.358 156.884 144.77 155.336 C 145.961 154.028 156.587 142.345 157.501 138.031 C 158.188 134.794 158.904 93.31 160.135 92.002 Z" style="stroke-width: 2px; fill: rgb(56, 30, 3);" transform="matrix(0.999874, -0.015849, 0.015849, 0.999874, -1.974006, 2.573635)"/>
    <path stroke-width="0" d="M 110.765 163.799 C 110.905 166.315 126.874 164.956 129.663 162.185 C 134.412 157.466 151.552 120.103 151.481 97.376 C 151.472 94.579 149.978 93.263 148.459 92.732 C 146.741 92.135 143.142 92.995 141.35 94.843 C 139.12 97.147 135.772 107.082 134.858 108.35 C 132.664 111.384 110.51 159.182 110.765 163.799 Z" style="stroke-width: 2px; fill: rgb(56, 30, 3);" transform="matrix(-0.999874, 0.015849, -0.015849, -0.999874, 264.269445, 255.575103)"/>
  </g>
  <g transform="matrix(1, 0, 0, 1, -0.018439, 0.039429)">
    <path style="stroke: rgb(0, 0, 0); fill: rgb(84, 80, 80);" d="M 161.527 3.761 C 145.867 -8.848 99.707 52.535 96.688 60.661 L 81.367 69.576 L 67.797 71.196 C 50.44 78.94 27.168 73.092 49.21 37.356 C -8.653 42.303 -17.118 134.82 40.548 130.399 C 249.671 114.37 339.998 133.399 339.998 133.399 C 375.864 136.893 392.229 50.811 322.256 44.386 C 325.629 41.684 337.518 70.917 319.622 79.274 L 298.201 80.882 L 279.229 73.904 C 282.814 65.006 259.573 13.383 213.995 3.491 C 208.872 2.378 198.992 8.009 186.275 8.638 C 178.935 8.999 171.095 5.443 161.527 3.761 Z"/>
    <path style="stroke: rgb(0, 0, 0); fill: rgb(180, 178, 178);" d="M 160.787 86.244 L 184.658 63.622 C 188.133 79.941 201.245 89.734 223.998 92.997 C 237.721 94.965 251.17 91.59 264.343 82.868 C 286.868 95.863 217.343 125.561 197.771 114.27 L 177.598 103.803 C 181.926 103.803 160.391 112.243 150.027 112.243 C 142.405 114.495 100.714 114.833 108.334 112.581 C 90.202 117.547 130.292 94.597 160.787 86.244 Z"/>
  </g>
</svg>