<?xml version="1.0" encoding="utf-8"?>
<svg viewBox="0 0 200 200" width="200px" height="200px" xmlns="http://www.w3.org/2000/svg" xmlns:bx="https://boxy-svg.com"><defs><linearGradient gradientUnits="userSpaceOnUse" x1="96.507" y1="75.747" x2="96.507" y2="110.881" id="gradient-0" gradientTransform="matrix(0.660219, -0.751073, 0.16468, 0.144759, 23.484617, 154.32556)" spreadMethod="pad"><stop offset="0" style="stop-color: rgb(70.196% 66.667% 66.667%)"/><stop offset="1" style="stop-color: rgb(41.519% 38.336% 38.342%)"/></linearGradient><bx:export><bx:file format="svg"/></bx:export></defs><g style="" transform="matrix(1.588659, 0, 0, 1.488716, -1.613899, -0.917026)"><path style="stroke: rgb(0, 0, 0); fill: rgb(179, 170, 170); stroke-linecap: round; stroke-linejoin: round;" d="M 58.265 9.655 C 58.265 9.655 63.51 -6.895 73.906 8.286 C 73.906 8.286 82.557 18.527 85.921 20.064 C 89.171 21.549 89.926 23.99 89.926 23.99 C 85.642 30.105 104.643 46.508 109.879 43.549 C 109.879 43.549 112.704 42.598 112.112 45.578 C 111.594 48.185 116.834 50.033 118.491 51.992 C 119.09 52.7 120.479 53.94 120.479 53.94 C 121.207 56.237 119.728 55.084 119.67 55.827 C 119.269 60.97 127.935 71.031 123.102 74.783 C 119.93 77.245 71.395 132.776 65.705 132.559 C 61.105 132.383 60.648 127.463 60.648 127.463 C 62.943 118.155 56.104 120.63 50.993 117.734 C 50.993 117.734 48.808 115.666 47.715 114.431 C 40.519 106.299 24.768 91.308 24.768 91.308 C 17.842 92.98 9.524 80.009 12.776 79.224 C 12.776 79.224 7.176 75.54 4.379 70.762 C 2.626 67.767 0.957 64.647 6.873 60.653 C 29.128 45.629 58.265 9.655 58.265 9.655 Z"/><path style="stroke: rgb(0, 0, 0); fill: rgb(179, 170, 170);" d="M 16.467 62.898 C 16.467 62.898 14.72339474028553 48.36594814398539 16.801 42.93 C 18.60695911006651 38.20480014474513 22.38741139784827 32.80601826172034 26.676 31.52 C 31.460075983211414 30.085400030028378 44.75 36.614 44.75 36.614" bx:d="M 16.467 62.898 R 16.801 42.93 R 26.676 31.52 R 44.75 36.614 1@270e8210"/><ellipse style="stroke: rgb(0, 0, 0); fill: rgb(107, 103, 103); transform-box: fill-box; transform-origin: 50% 50%;" cx="32.804" cy="28.966" rx="7.551" ry="2.129" transform="matrix(-0.634717, 0.772745, -0.647044, -0.787753, -10.521053, 9.226485)"/><ellipse style="stroke: rgb(0, 0, 0); fill: rgb(107, 103, 103);" cx="66.292" cy="37.17" rx="6.054" ry="15.134"/><path style="stroke: rgb(0, 0, 0); fill: url(&quot;#gradient-0&quot;); paint-order: fill; stroke-linejoin: round;" d="M 77.263 110.755 C 76.676 108.604 99.057 97.511 101.676 107.114 C 100.16 105.54 109.999 89.976 113.24 94.051 C 113.245 96.155 111.14 75.034 113.24 75.634"/><ellipse style="stroke: rgb(0, 0, 0); fill: rgb(107, 103, 103); transform-box: fill-box; transform-origin: 50% 50%;" cx="65.084" cy="74.621" rx="2.85" ry="9.444" transform="matrix(0.681998, -0.731354, 0.731354, 0.681998, -16.544344, 25.288357)"/><path d="M 56.975 68.228 C 57.217 68.152 57.511 68.121 57.756 68.228 C 58.02 68.343 58.334 68.538 58.494 68.943 C 58.716 69.503 58.864 70.622 58.667 71.582 C 58.42 72.792 56.977 75.147 56.715 75.597 C 56.637 75.732 56.642 75.68 56.585 75.762 C 56.492 75.894 56.309 76.238 56.195 76.367 C 56.114 76.457 56.073 76.427 55.978 76.532 C 55.806 76.72 55.709 77.05 55.24 77.576 C 54.208 78.733 50.512 82.632 48.905 83.625 C 47.896 84.25 47.411 84.151 46.476 84.285 C 45.355 84.446 43.944 84.442 42.571 84.395 C 41.092 84.345 38.732 84.266 37.885 83.955 C 37.452 83.796 37.314 83.666 37.147 83.351 C 36.956 82.988 36.859 82.211 36.887 81.811 C 36.908 81.508 37.013 81.287 37.147 81.096 C 37.285 80.9 37.444 80.742 37.711 80.656 C 38.096 80.531 38.583 80.622 39.36 80.656 C 40.632 80.711 43.387 81.246 45 81.096 C 46.342 80.971 47.221 80.895 48.471 80.106 C 50.094 79.082 52.734 76.042 53.808 74.717 C 54.45 73.925 54.79 73.123 54.98 72.847 C 55.054 72.738 55.043 72.797 55.11 72.682 C 55.278 72.396 55.862 71.389 56.064 70.702 C 56.257 70.048 56.116 69.07 56.325 68.668 C 56.477 68.374 56.74 68.302 56.975 68.228 Z" style="stroke: rgb(0, 0, 0); fill: rgb(107, 103, 103);"/><path d="M 107.931 61.866 C 108.932 61.763 110.125 61.846 110.576 62.289 C 110.962 62.668 111.176 63.548 110.788 64.088 C 110.173 64.942 106.193 65.695 105.497 66.204 C 105.211 66.414 105.293 66.587 105.179 66.733 C 105.079 66.862 105.01 66.838 104.862 67.051 C 104.521 67.541 103.604 68.81 103.169 70.225 C 102.573 72.165 102.661 76.133 102.111 78.056 C 101.718 79.429 101.537 80.492 100.629 81.124 C 99.587 81.85 97.484 81.897 95.867 81.759 C 94.171 81.615 91.403 80.887 90.682 80.172 C 90.252 79.745 90.384 79.079 90.471 78.691 C 90.542 78.373 90.679 78.116 91 77.95 C 91.468 77.708 92.382 77.687 93.328 77.738 C 94.582 77.806 97.077 78.891 97.984 78.585 C 98.582 78.383 98.623 78.055 98.936 77.209 C 99.59 75.442 99.796 69.232 100.841 66.839 C 101.585 65.135 102.514 64.176 103.698 63.347 C 104.879 62.52 106.7 61.992 107.931 61.866 Z" style="fill: rgb(107, 103, 103); stroke: rgb(0, 0, 0);"/></g></svg>
