<?xml version="1.0" encoding="utf-8"?>
<svg viewBox="0 0 285 285" width="285" height="285" xmlns="http://www.w3.org/2000/svg">
  <defs>
    <linearGradient gradientUnits="userSpaceOnUse" x1="251.717" y1="163.542" x2="251.717" y2="292.752" id="gradient-0" gradientTransform="matrix(0.91115, 0.412074, -0.278981, 0.616865, 50.52662, -99.5839)">
      <stop offset="0" style="stop-color: rgba(121, 177, 99, 1)"/>
      <stop offset="1" style="stop-color: rgba(74, 116, 58, 1)"/>
    </linearGradient>
    <linearGradient gradientUnits="userSpaceOnUse" x1="181.911" y1="256.186" x2="181.911" y2="317.617" id="gradient-1" gradientTransform="matrix(-0.999793, 0.020314, -0.04303, -2.117819, 322.018411, 744.940857)">
      <stop offset="0" style="stop-color: rgba(96, 170, 66, 1)"/>
      <stop offset="1" style="stop-color: rgba(54, 97, 37, 1)"/>
    </linearGradient>
  </defs>
  <rect y="150.618" width="200" height="200" style="stroke: rgb(0, 0, 0); fill: rgb(68, 151, 197);" x="96" transform="matrix(0.707107, 0.707107, -0.707107, 0.707107, 181.110095, -173.209994)"/>
  <path style="stroke: rgb(0, 0, 0); fill: rgb(165, 201, 191);" d="M 47.827 188.848 C 46.651 192.637 86.493 213.393 90.537 200.362 C 97.38 200.329 120.263 218.425 116.464 218.385 C 161.499 232.581 214.217 219.967 208.308 218.104 L 142.625 283.928 L 47.827 188.848 Z"/>
  <path style="stroke: rgb(0, 0, 0); fill: rgb(96, 170, 66);" d="M 54.437 134.87 C 61.35 140.247 90.144 146.493 91.006 141.199 C 90.766 131.615 110.236 125.683 117.026 123.337 C 133.378 116.388 101.881 113.17 93.819 111.804 C 75.85 102.636 115.229 73.72 127.294 79.876 C 150.771 75.692 103.016 45.644 97.757 46.581 L 45.154 98.903 C 29.38 108.962 50.304 134.359 54.437 134.87 Z"/>
  <path style="stroke: rgb(0, 0, 0); fill: url(#gradient-0);" d="M 218.575 77.383 C 218.048 72.643 171.321 47.042 172.583 58.396 C 170.143 65.468 175.29 88.477 193.821 89.339 C 183.761 90.441 182.316 99.628 174.421 102.827 C 156.106 110.249 137.172 109.497 146.392 120.67 C 154.785 116.823 192.601 133.382 193.399 148.834 L 191.43 182.589 C 204.709 194.411 202.045 153.912 223.166 143.044 C 243.677 132.49 256.328 123.07 251.347 110.155 L 218.575 77.383 Z"/>
  <path style="stroke: rgb(0, 0, 0); fill: url(#gradient-1);" d="M 128.442 169.634 C 94.225 175.932 86.868 190.225 90.326 188.059 C 80.12 193.507 159.998 218.963 163.605 205.922 C 170.737 205.13 169.424 145.53 144.898 148.255 C 137.096 147.689 119.015 155.245 128.442 169.634 Z"/>
</svg>