<?xml version="1.0" encoding="utf-8"?>
<svg viewBox="77.5216 150.945 222.2507 330.8367" width="222.2507px" height="330.8367px" xmlns="http://www.w3.org/2000/svg" xmlns:bx="https://boxy-svg.com"><defs><bx:export><bx:file format="svg"/></bx:export></defs><path style="stroke: rgb(0, 0, 0); fill: rgb(104, 53, 11); stroke-width: 5px; transform-origin: 337.372px 757.855px;" d="M 220.986 479.258 C 221.46 480.088 267.823 464.351 267.349 462.703 C 270.663 462.281 263.1 446.966 257.419 447.796 C 251.737 446.557 238.491 449.865 239.439 452.344 L 231.877 445.318 L 206.321 455.243 C 203.007 460.213 214.371 476.358 220.986 479.258 Z"/><path style="stroke: rgb(0, 0, 0); fill: rgb(255, 0, 0); stroke-width: 5px; transform-origin: 337.372px 758.855px;" d="M 231.404 446.727 C 242.281 443.827 223.827 419.825 218.618 419.825 C 210.582 415.674 190.709 412.787 182.673 418.994 C 175.572 430.579 206.321 457.495 206.321 456.665 L 231.404 446.727 Z" transform="matrix(1, 0, 0, 1, 1e-12, 0)"/></svg>
