<?xml version="1.0" encoding="utf-8"?>
<svg viewBox="150.3711 414.4029 118.9768 113.7672" xmlns="http://www.w3.org/2000/svg">
  <path style="stroke: rgb(0, 0, 0); fill: rgb(104, 53, 11); stroke-width: 2px; transform-origin: 180px 415px;" d="M 202.224 528.13 C 202.69 529.995 267.189 503.456 266.405 500.32 C 270.464 499.75 261.114 472.958 253.066 474.381 C 245.243 472.413 227.41 477.911 228.249 482.104 L 217.887 469.815 L 182.946 486.2 C 178.34 494.951 193.456 522.998 202.224 528.13 Z" transform="matrix(0.999848008156, -0.017452003434, 0.017452003434, 0.999848008156, 4.27064e-7, -1.68318e-7)"/>
  <path style="stroke: rgb(0, 0, 0); fill: rgb(255, 0, 0); stroke-width: 2px; transform-origin: 180px 415px;" d="M 217.405 470.297 C 232.788 465.511 208.12 423.708 200.778 423.548 C 189.817 416.284 162.693 410.266 152.102 420.898 C 141.505 441.096 182.82 488.071 183.147 486.835 L 217.405 470.297 Z" transform="matrix(0.999848008156, -0.017452003434, 0.017452003434, 0.999848008156, 4.27064e-7, -1.68318e-7)"/>
</svg>
