<?xml version="1.0" encoding="utf-8"?>
<svg viewBox="153.75 278.2062 76.1873 149.8223" xmlns="http://www.w3.org/2000/svg">
  <path style="stroke: rgb(0, 0, 0); fill: rgb(255, 0, 0); stroke-width: 2px; transform-origin: 152.001px 276px;" d="M 221.677 284.563 C 223.199 284.431 229.499 422.586 217.381 423.64 C 203.273 430.918 159.778 428.465 158.559 423.103 C 144.793 417.596 162.997 277.12 172.24 280.817 L 221.677 284.563 Z" transform="matrix(0.999391019344, -0.034900005907, 0.034900005907, 0.999391019344, 8.4827e-7, 1.27085e-7)"/>
  <ellipse style="stroke: rgb(0, 0, 0); transform-origin: 159.437px 277.399px;" cx="177.728" cy="404.768" rx="5.413" ry="5.212" transform="matrix(0.999391019344, -0.034900005907, 0.034900005907, 0.999391019344, -7.435181834081, -1.396564111185)"/>
  <ellipse style="stroke: rgb(0, 0, 0); transform-origin: 159.436px 277.399px;" cx="178.701" cy="384.013" rx="4.611" ry="4.811" transform="matrix(0.999391019344, -0.034900005907, 0.034900005907, 0.999391019344, -7.435186952098, -1.396574796136)"/>
  <ellipse style="stroke: rgb(0, 0, 0); transform-origin: 159.437px 277.399px;" cx="177.519" cy="358.094" rx="4.711" ry="4.611" transform="matrix(0.999391019344, -0.034900005907, 0.034900005907, 0.999391019344, -7.43519327817, -1.396798238265)"/>
  <ellipse style="stroke: rgb(0, 0, 0); transform-origin: 159.436px 277.399px;" cx="166.976" cy="358.659" rx="3.846" ry="1.206" transform="matrix(0.999391019344, -0.034900005906, 0.034900005907, 0.999391019344, -7.435240357869, -1.396695436038)"/>
  <ellipse style="stroke: rgb(0, 0, 0); transform-origin: 159.437px 277.399px;" cx="166.917" cy="384.124" rx="5.429" ry="1.734" transform="matrix(0.999391019345, -0.034900005907, 0.034900005907, 0.999391019344, -7.43526957215, -1.396694287717)"/>
  <ellipse style="stroke: rgb(0, 0, 0); transform-origin: 159.437px 277.399px;" cx="166.372" cy="404.505" rx="4.449" ry="1.508" transform="matrix(0.999391019345, -0.034900005907, 0.034900005907, 0.999391019345, -7.435258128065, -1.396544084156)"/>
</svg>
