<?xml version="1.0" encoding="utf-8"?>
<svg viewBox="77.5216 150.945 222.2507 330.8367" width="222.2507px" height="330.8367px" xmlns="http://www.w3.org/2000/svg" xmlns:bx="https://boxy-svg.com"><defs><bx:export><bx:file format="svg"/></bx:export></defs><path style="stroke: rgb(0, 0, 0); fill: rgb(255, 0, 0); stroke-width: 5px; transform-origin: 291.01px 547.729px;" d="M 230.931 338.685 C 232.349 338.685 240.387 418.165 231.404 418.994 C 221.46 423.543 189.762 422.712 188.341 419.825 C 178.412 416.924 187.869 335.377 194.97 337.447 L 230.931 338.685 Z"/><ellipse style="stroke: rgb(0, 0, 0); stroke-width: 5px; transform-origin: 137.444px 213.395px;" cx="178.701" cy="384.013" rx="9.635" ry="8.071" transform="matrix(0.999621093273, -0.027541004121, 0.044228006154, 0.999161124229, 16.406956926832, 15.39750141366)"/><ellipse style="stroke: rgb(0, 0, 0); stroke-width: 5px; transform-origin: 140.254px 210.895px;" cx="177.519" cy="358.094" rx="9.325" ry="7.866" transform="matrix(0.999621093273, -0.027541004121, 0.044228006154, 0.999161124229, 19.640065480323, 20.378526386918)"/><ellipse style="stroke: rgb(0, 0, 0); stroke-width: 5px; transform-origin: 159.518px 310.485px;" cx="166.976" cy="358.659" rx="3.728" ry="0.854" transform="matrix(0.999621093273, -0.02754200436, 0.044228006154, 0.999161124229, 20.457483762818, 18.276190595861)"/><ellipse style="stroke: rgb(0, 0, 0); stroke-width: 5px; transform-origin: 161.236px 322.434px;" cx="166.917" cy="384.124" rx="3.788" ry="0.83" transform="matrix(0.999621093273, -0.027540003882, 0.044228006154, 0.999161124229, 18.652988932817, 12.453941923052)"/></svg>
