<?xml version="1.0" encoding="utf-8"?>
<svg viewBox="0 0 372 492" width="372px" height="492px" xmlns="http://www.w3.org/2000/svg" xmlns:bx="https://boxy-svg.com">
  <g transform="matrix(0.999732, 0.023342, -0.028236, 1.2094, 10.977719, -107.318666)" style="" bx:origin="0.363965 0">
    <path style="stroke: rgb(0, 0, 0); fill: rgb(208, 32, 32);" d="M 242.67 395.349 C 259.658 412.697 238.047 443.189 223.497 445.301 L 198.46 445.177 C 182.975 443.401 174.83 393.968 187.147 390.442 C 188.334 388.674 244.331 392.875 242.67 395.349 Z"/>
    <path style="fill: rgb(216, 216, 216); stroke: rgb(0, 0, 0);" d="M 192.916 439.965 L 214.976 390.95"/>
    <path style="fill: rgb(216, 216, 216); stroke: rgb(0, 0, 0);" d="M 202.8 444.642 L 227.369 391.732"/>
    <path style="fill: rgb(216, 216, 216); stroke: rgb(0, 0, 0);" d="M 186.586 431.464 L 200.495 390.428"/>
    <path style="fill: rgb(216, 216, 216); stroke: rgb(0, 0, 0);" d="M 230.879 392.633 L 238.932 433.458" transform="matrix(-1, 0, 0, -1, 469.811001, 826.091018)"/>
    <path style="fill: rgb(216, 216, 216); stroke: rgb(0, 0, 0);" d="M 242.213 428.807 L 235.17 393.08"/>
    <path style="fill: rgb(216, 216, 216); stroke: rgb(0, 0, 0);" d="M 227.522 444.964 L 227.17 392.614"/>
    <path style="stroke: rgb(0, 0, 0); fill: rgb(98, 74, 46);" d="M 239.626 488.49 L 266.209 486.959 L 274.03 443.25 L 192.476 444.372 L 197.961 466.762 C 199.762 470.967 236.184 472.304 233.816 466.781 L 239.626 488.49 Z" transform="matrix(-1, 0, 0, -1, 466.505998, 931.740008)"/>
  </g>
</svg>