<?xml version="1.0" encoding="utf-8"?>
<svg viewBox="0 0 500 100" xmlns="http://www.w3.org/2000/svg" >
<g transform="matrix(1,0,0,.2,0,0)">
  <rect width="500" height="500" style="fill: #401f09;" />
  <path stroke-width="0" d="M 251.071 10.117 C 253.965 9.942 255.463 10.3 255.987 11.1 C 256.42 11.761 256.538 13.068 255.004 14.05 C 250.547 16.903 215.54 23.97 211.083 22.572 C 209.549 22.091 209.085 20.641 210.1 19.622 C 212.975 16.736 244.295 10.527 251.071 10.117 Z M 332.029 0.628 C 335.977 0.401 337.793 0.207 340.028 0.628 C 341.89 0.979 342.811 2.103 344.717 2.558 C 347.084 3.125 352.205 2.41 353.404 3.386 C 354.147 3.991 353.971 5.354 353.68 6.006 C 353.411 6.61 352.69 7.014 351.888 7.247 C 350.851 7.549 349.48 7.492 347.75 7.247 C 345.318 6.903 340.954 5.124 338.373 4.765 C 336.399 4.491 336.189 4.603 333.409 4.765 C 327.418 5.115 303.362 8.357 299.76 8.075 C 298.765 7.997 298.816 7.846 298.519 7.523 C 298.201 7.177 297.905 6.549 297.967 6.006 C 298.041 5.368 297.903 4.549 299.208 3.938 C 302.924 2.198 325.071 1.027 332.029 0.628 Z M 283.543 13.867 C 284.869 13.148 287.542 13.958 291.265 14.694 C 297.73 15.972 310.459 21.108 321.052 22.692 C 332.341 24.381 345.715 25.41 357.183 24.071 C 368.194 22.787 380.82 16.756 388.625 15.246 C 393.886 14.227 399.033 13.898 400.761 14.142 C 401.424 14.236 401.48 14.394 401.726 14.694 C 402.012 15.043 402.34 15.668 402.277 16.211 C 402.204 16.849 402.008 17.762 401.036 18.279 C 399.248 19.231 394.887 18.401 390.004 19.383 C 382.531 20.886 366.714 27.034 359.114 28.209 C 354.06 28.99 352.755 28.398 347.53 28.209 C 339.519 27.918 324.773 27.938 313.881 26.002 C 303.131 24.091 284.894 19.418 282.577 16.763 C 281.679 15.733 282.63 14.361 283.543 13.867 Z M 430.634 15.852 C 432.578 15.572 444.276 15.713 451.043 16.128 C 457.79 16.542 463.912 17.948 471.177 18.335 C 479.231 18.763 494.526 17.532 497.379 18.335 C 498.254 18.581 498.138 18.94 498.344 19.3 C 498.536 19.635 498.707 19.995 498.62 20.403 C 498.507 20.933 498.572 21.748 497.379 22.196 C 494.074 23.437 476.729 22.873 469.522 22.472 C 464.289 22.18 462.014 21.156 457.111 20.817 C 450.961 20.391 439.413 20.801 435.047 20.541 C 432.746 20.404 431.589 20.42 430.634 19.989 C 429.975 19.693 429.529 19.308 429.393 18.748 C 429.23 18.082 429.786 16.546 430.082 16.128 C 430.246 15.897 430.154 15.922 430.634 15.852 Z M 436.26 -1.634 C 439.28 -1.978 456.069 -1.002 461.634 -0.255 C 464.975 0.193 466.12 0.531 468.53 1.4 C 471.239 2.377 473.64 4.716 477.08 5.537 C 481.198 6.521 487.102 6.686 491.973 6.089 C 496.847 5.492 504.21 1.787 506.315 1.952 C 507.171 2.018 507.3 2.467 507.556 2.917 C 507.835 3.408 507.992 4.274 507.832 4.848 C 507.671 5.423 507.504 5.831 506.591 6.365 C 504.613 7.52 498.198 9.568 493.628 10.226 C 488.844 10.915 482.847 10.864 478.459 10.226 C 474.707 9.681 469.798 7.852 468.667 7.192 C 468.283 6.968 468.624 6.863 468.254 6.64 C 467.219 6.02 463.609 4.581 459.704 3.882 C 453.848 2.835 437.622 3.712 435.019 2.228 C 434.041 1.67 434.431 0.743 434.467 0.159 C 434.498 -0.328 434.72 -0.783 435.019 -1.082 C 435.318 -1.381 435.324 -1.527 436.26 -1.634 Z M 224.612 42.085 C 228.923 41.721 237.355 41.811 242.264 42.36 C 246.201 42.801 248.841 44.107 252.193 44.567 C 255.552 45.028 258.364 45.333 262.398 45.119 C 267.533 44.845 275.878 42.757 280.877 42.36 C 284.671 42.059 287.076 41.797 290.254 42.36 C 293.642 42.961 299.642 44.611 300.597 46.084 C 301.17 46.966 300.393 48.462 299.632 48.98 C 298.75 49.58 296.872 49.283 295.219 48.98 C 293.194 48.608 290.529 46.892 288.324 46.498 C 286.316 46.139 285.012 46.261 282.532 46.498 C 278.974 46.837 273.112 48.523 268.466 48.98 C 263.92 49.427 259.295 49.646 254.951 49.256 C 250.756 48.878 247.312 47.289 242.816 46.773 C 237.699 46.186 230.252 45.883 225.716 46.222 C 222.296 46.477 220.798 47.566 217.441 47.877 C 213.107 48.278 207.898 47.999 201.445 47.877 C 193.046 47.717 180.173 46.273 170.554 46.773 C 161.707 47.234 151.236 49.912 145.732 50.359 C 142.447 50.625 141.78 50.533 138.836 50.359 C 134.663 50.112 124.261 49.883 122.426 48.566 C 121.603 47.975 122.1 46.865 122.15 46.36 C 122.183 46.034 122.039 45.858 122.426 45.67 C 123.57 45.115 129.947 45.019 133.596 45.119 C 137.16 45.216 139.58 46.351 144.077 46.222 C 150.493 46.038 161.519 43.207 169.451 42.636 C 176.693 42.116 182.382 42.523 189.861 42.636 C 198.365 42.765 212.113 43.884 217.993 43.464 C 221.317 43.226 221.676 42.333 224.612 42.085 Z M 41.434 79.098 C 44.155 78.158 56.192 78.528 62.395 79.098 C 67.763 79.591 70.021 80.893 76.737 81.856 C 87.494 83.399 114.118 84.976 123.9 86.821 C 129.428 87.863 133.389 88.728 134.794 90.13 C 135.577 90.911 135.456 92.112 135.07 92.75 C 134.656 93.436 133.389 94.01 132.174 93.991 C 130.521 93.966 128.376 92.066 125.831 91.509 C 122.709 90.827 117.971 91.188 114.523 90.682 C 111.411 90.225 110.077 89.362 105.973 88.751 C 99.192 87.742 83.501 87.084 75.358 85.993 C 69.223 85.171 65.823 83.716 60.464 83.235 C 54.594 82.708 43.758 83.92 41.434 83.235 C 40.624 82.996 40.677 82.681 40.468 82.27 C 40.242 81.823 40.052 81.129 40.193 80.615 C 40.343 80.067 40.379 79.462 41.434 79.098 Z M 313.293 75.519 C 314.893 75.178 315.923 75.541 316.465 76.07 C 316.921 76.515 316.888 77.569 316.741 78.139 C 316.61 78.648 316.528 78.802 315.776 79.38 C 313.888 80.829 307.007 84.791 301.985 86.827 C 296.669 88.982 290.935 90.448 284.61 91.791 C 277.628 93.274 267.808 94.63 261.718 95.101 C 257.188 95.451 255.433 95.691 250.685 95.101 C 243.765 94.24 226.551 90.194 223.105 88.757 C 221.92 88.264 221.762 88.095 221.588 87.516 C 221.389 86.857 221.652 85.396 222.277 84.896 C 222.977 84.336 223.957 84.383 225.863 84.62 C 229.734 85.102 240.242 89.119 246.272 90.136 C 251.318 90.987 255.008 91.104 259.787 90.964 C 264.979 90.811 270.449 90.118 276.335 89.033 C 282.867 87.83 290.958 86.172 297.297 83.793 C 303.19 81.581 310.109 76.197 313.293 75.519 Z M 299.123 66.693 C 304.149 66.408 307.309 66.347 310.707 66.693 C 313.622 66.99 315.844 68.073 318.43 68.348 C 320.992 68.62 323.125 67.894 326.152 68.348 C 330.046 68.931 338.661 71.245 340.08 72.347 C 340.593 72.745 340.443 73.042 340.356 73.45 C 340.244 73.98 339.826 74.842 339.115 75.243 C 338.17 75.775 336.538 76.012 334.702 75.794 C 332.117 75.488 329.109 73.292 324.773 72.485 C 318.698 71.353 309.594 70.731 300.502 70.83 C 289.837 70.946 271.454 73.981 264.371 73.864 C 260.678 73.803 258.403 73.539 257.338 72.761 C 256.714 72.304 256.775 71.534 256.787 70.968 C 256.798 70.434 256.802 69.785 257.338 69.451 C 258.207 68.91 260.765 69.146 262.717 69.175 C 264.907 69.207 266.351 69.818 269.888 69.727 C 276.098 69.565 291.83 67.105 299.123 66.693 Z M 139.682 54.943 C 142.135 54.816 144.866 56.831 146.853 57.15 C 148.377 57.395 149.019 57.25 150.715 57.15 C 153.222 57.001 158.205 55.521 160.919 56.047 C 163.117 56.472 164.06 58.318 166.16 59.081 C 168.618 59.973 172.352 59.846 174.986 60.735 C 177.407 61.553 180.46 62.928 181.467 64.045 C 182.084 64.729 182.041 65.489 182.019 66.114 C 181.999 66.671 181.892 67.319 181.467 67.631 C 180.95 68.01 179.567 68.066 178.847 67.906 C 178.229 67.77 177.659 67.198 177.33 66.941 C 177.12 66.777 177.292 66.707 176.916 66.527 C 175.635 65.913 167.957 64.44 164.781 63.218 C 162.336 62.277 160.549 60.603 158.989 60.184 C 157.884 59.887 157.137 60.008 156.231 60.184 C 155.297 60.365 154.756 61.066 153.473 61.287 C 151.54 61.62 147.486 61.717 145.198 61.287 C 143.318 60.934 142.436 59.262 140.51 59.356 C 137.909 59.483 131.845 62.988 130.719 63.769 C 130.343 64.03 130.589 64.057 130.305 64.321 C 129.68 64.9 126.931 66.701 126.306 67.217 C 126.039 67.436 126.064 67.518 125.892 67.631 C 125.703 67.754 125.388 67.765 125.202 67.906 C 125.023 68.044 125.071 68.218 124.789 68.458 C 124.207 68.953 122.783 70.066 121.203 70.664 C 119.117 71.455 114.127 72.344 112.929 72.319 C 112.476 72.31 112.425 72.288 112.24 72.043 C 111.942 71.652 111.565 70.323 111.688 69.699 C 111.792 69.173 111.963 68.899 112.653 68.458 C 114.062 67.559 118.524 66.91 121.479 65.424 C 124.727 63.791 130.152 59.775 131.27 58.805 C 131.629 58.493 131.324 58.495 131.684 58.253 C 132.673 57.588 137.086 55.079 139.682 54.943 Z M 458.797 47.582 C 462.072 47.486 465.394 47.906 468.726 48.961 C 472.332 50.103 477.773 52.632 479.62 54.478 C 480.768 55.624 481.026 56.994 481 57.925 C 480.979 58.658 480.547 59.37 480.034 59.718 C 479.503 60.078 478.55 60.309 477.828 59.994 C 476.886 59.582 476.553 57.727 475.07 56.684 C 472.932 55.18 468.021 53.287 465.141 52.547 C 462.846 51.957 461.282 51.867 459.073 51.995 C 456.557 52.142 454.39 53.326 450.799 53.65 C 445.685 54.112 436.012 52.768 430.389 53.65 C 425.85 54.362 422.314 55.94 419.081 57.511 C 416.226 58.899 412.693 61.627 411.772 62.338 C 411.46 62.579 411.658 62.587 411.358 62.752 C 410.638 63.148 407.258 64.371 406.394 64.407 C 405.998 64.423 405.889 64.384 405.704 64.131 C 405.395 63.708 405.125 62.078 405.153 61.511 C 405.169 61.171 405.087 61.173 405.428 60.821 C 406.468 59.749 411.729 56.047 415.495 54.202 C 419.529 52.225 423.877 50.348 429.01 49.513 C 434.895 48.556 443.819 50.002 449.144 49.513 C 453.144 49.146 455.545 47.678 458.797 47.582 Z M 508.559 79.411 C 510.079 79.47 511.184 79.534 511.731 80.1 C 512.2 80.587 512.299 81.702 512.006 82.306 C 511.686 82.969 511.155 83.436 509.662 83.823 C 506.353 84.682 496.487 84.629 489.252 84.651 C 481.395 84.675 467.392 84.58 464.154 83.823 C 463.026 83.56 462.934 83.304 462.637 82.858 C 462.348 82.424 462.301 81.702 462.361 81.203 C 462.417 80.745 462.225 80.275 462.913 79.962 C 464.813 79.098 474.42 79.594 480.151 79.686 C 485.866 79.779 492.232 80.621 497.251 80.514 C 501.511 80.422 506.05 79.313 508.559 79.411 Z M 421.735 91.442 C 423.494 91.317 434.072 92.197 439.111 93.648 C 443.559 94.929 447.146 98.326 450.695 99.164 C 453.672 99.868 456.045 98.884 458.969 99.164 C 462.171 99.472 465.485 100.758 469.174 101.095 C 473.238 101.467 478.248 101.451 482.412 101.095 C 486.307 100.763 491.67 98.881 493.445 99.164 C 494.254 99.294 494.432 99.702 494.686 100.13 C 494.946 100.569 495.022 101.286 494.962 101.785 C 494.906 102.243 495.006 102.64 494.41 103.026 C 493.042 103.91 487.824 104.835 483.791 105.232 C 479.049 105.7 472.165 105.658 467.519 105.232 C 463.677 104.88 460.733 103.61 457.59 103.302 C 454.69 103.017 452.338 103.989 449.316 103.302 C 445.658 102.47 441.151 98.822 437.18 97.785 C 433.532 96.833 429.345 97.473 426.424 96.958 C 424.13 96.554 421.689 96.144 420.77 95.303 C 420.156 94.742 420.128 93.848 420.218 93.235 C 420.302 92.663 420.886 92.003 421.183 91.718 C 421.377 91.532 421.274 91.475 421.735 91.442 Z M 331.663 100.359 C 333.563 100.334 335.01 100.423 335.662 101.048 C 336.175 101.54 335.988 102.75 335.938 103.255 C 335.905 103.58 335.971 103.71 335.662 103.944 C 334.967 104.472 333.005 105.172 330.284 105.599 C 325.51 106.349 312.283 105.879 307.392 106.702 C 304.51 107.188 303.579 108.312 301.6 108.633 C 299.625 108.954 297.641 108.779 295.532 108.633 C 293.286 108.477 289.54 108.34 288.499 107.668 C 287.942 107.308 287.995 106.767 287.947 106.289 C 287.899 105.803 287.684 105.139 288.223 104.772 C 289.287 104.048 294.488 104.221 296.635 104.22 C 298.162 104.219 298.881 104.685 300.221 104.496 C 301.847 104.267 303.408 102.932 305.737 102.565 C 308.827 102.078 313.448 102.895 317.596 102.565 C 322.059 102.211 328.523 100.4 331.663 100.359 Z M 207.795 119.182 C 209.423 119.001 210.177 119.2 210.691 119.733 C 211.161 120.222 211.099 121.5 210.967 122.078 C 210.866 122.517 210.954 122.654 210.277 123.043 C 208.189 124.243 195.332 126.837 191.246 128.559 C 188.744 129.614 187.931 131.115 186.282 131.593 C 184.806 132.021 183.315 131.799 181.869 131.593 C 180.418 131.387 178.326 130.948 177.594 130.352 C 177.122 129.968 177.007 129.464 177.042 128.973 C 177.082 128.416 177.353 127.556 178.008 127.18 C 178.922 126.655 181.578 126.778 182.696 126.904 C 183.449 126.989 183.747 127.501 184.351 127.456 C 185.06 127.403 186.259 126.686 186.696 126.353 C 186.953 126.157 186.65 126.06 187.109 125.801 C 188.933 124.774 204.175 119.585 207.795 119.182 Z M 45.97 95.628 C 46.74 95.428 48.061 95.425 48.59 95.904 C 49.123 96.385 49.245 97.821 49.142 98.524 C 49.057 99.097 48.251 99.301 48.314 99.903 C 48.409 100.816 49.598 102.459 50.934 103.626 C 52.652 105.127 55.467 106.691 58.381 107.763 C 61.721 108.993 68.721 109.116 70.103 110.246 C 70.752 110.777 70.495 111.486 70.379 112.038 C 70.263 112.589 69.883 113.255 69.413 113.555 C 68.928 113.866 68.542 113.897 67.483 113.831 C 65.263 113.694 58.857 112.661 55.347 111.349 C 52.206 110.174 48.974 108.265 47.211 106.66 C 45.923 105.488 45.428 103.658 44.867 103.075 C 44.579 102.776 44.392 102.998 44.177 102.661 C 43.748 101.987 42.922 99.212 43.074 98.248 C 43.173 97.618 43.615 97.41 44.039 97.007 C 44.54 96.532 45.231 95.819 45.97 95.628 Z M 105.434 118.741 C 110.234 118.207 113.088 118.358 116.742 118.741 C 120.299 119.113 125.755 119.767 127.085 120.947 C 127.815 121.595 127.464 122.709 127.36 123.291 C 127.284 123.722 127.205 124.037 126.809 124.257 C 126.185 124.602 124.744 124.633 123.361 124.533 C 121.554 124.401 119.335 123.407 116.742 123.153 C 113.556 122.842 109.539 122.631 105.434 123.153 C 100.727 123.753 94.618 126.19 89.989 127.015 C 86.023 127.722 81.012 128.96 79.232 128.118 C 78.145 127.604 77.955 125.895 77.991 125.222 C 78.015 124.767 77.937 124.623 78.681 124.257 C 81.286 122.971 98.603 119.499 105.434 118.741 Z M 4.078 112.691 C 7.399 112.406 11.066 112.438 14.283 112.691 C 17.295 112.929 19.617 113.121 22.833 114.07 C 26.821 115.248 34.965 118.313 36.485 119.862 C 37.141 120.531 36.877 121.103 36.761 121.655 C 36.646 122.205 36.266 122.871 35.796 123.172 C 35.31 123.483 34.938 123.635 33.865 123.448 C 31.448 123.026 24.823 119.034 20.075 117.932 C 15.352 116.835 9.743 116.705 5.457 116.828 C 1.816 116.933 -2.453 118.472 -4.196 118.207 C -5.083 118.073 -5.416 117.688 -5.713 117.242 C -6.002 116.808 -6.049 116.086 -5.989 115.587 C -5.934 115.129 -6.017 114.709 -5.437 114.346 C -4.167 113.551 0.829 112.97 4.078 112.691 Z M 141.571 147.498 C 143.191 147.365 144.191 147.494 144.742 148.05 C 145.229 148.541 145.122 149.812 145.018 150.394 C 144.941 150.825 145.066 150.994 144.467 151.359 C 142.681 152.446 133.865 155.016 128.056 155.772 C 121.908 156.573 113.743 156.312 108.474 155.772 C 104.419 155.357 102.261 154.126 98.545 153.566 C 94.259 152.919 85.774 153.26 84.065 152.325 C 83.378 151.949 83.561 151.424 83.513 150.946 C 83.465 150.46 83.256 149.795 83.789 149.429 C 84.828 148.716 89.003 148.855 91.925 148.877 C 95.161 148.901 99.708 149.16 102.406 149.704 C 104.406 150.108 104.732 150.991 107.095 151.359 C 111.161 151.993 120.458 152.37 126.401 151.635 C 131.875 150.958 138.515 147.749 141.571 147.498 Z M 248.381 124.992 C 250.164 124.977 251.258 125.356 251.829 125.958 C 252.277 126.429 252.244 127.345 252.105 127.888 C 251.977 128.386 251.977 128.705 251.139 129.129 C 248.932 130.249 240.062 130.959 233.764 132.715 C 226.526 134.733 215.011 139.688 210.044 140.989 C 207.324 141.702 205.632 142.338 204.528 141.816 C 203.679 141.415 203.217 139.918 203.287 139.196 C 203.347 138.579 203.429 138.32 204.528 137.679 C 207.748 135.803 223.993 130.751 231.833 128.578 C 238.174 126.82 245.062 125.02 248.381 124.992 Z M 331.418 122.124 C 332.904 122.115 334.548 122.507 335.141 123.089 C 335.567 123.507 335.558 124.229 335.417 124.744 C 335.267 125.292 334.992 125.826 334.176 126.261 C 332.712 127.04 328.553 127.649 325.902 127.916 C 323.417 128.166 320.64 128.247 318.731 127.916 C 317.243 127.657 316.953 126.827 315.145 126.537 C 312.059 126.042 306.303 126.061 300.527 126.537 C 293.167 127.143 276.89 130.987 274.05 130.674 C 273.234 130.584 273.333 130.305 273.085 129.984 C 272.813 129.633 272.498 129.096 272.533 128.605 C 272.573 128.048 272.49 127.391 273.498 126.813 C 276.12 125.308 288.054 123.406 295.287 122.675 C 302.395 121.957 312.576 121.825 316.524 122.4 C 318.516 122.69 318.819 123.542 320.11 123.779 C 321.474 124.028 322.857 123.985 324.522 123.779 C 326.536 123.529 329.519 122.136 331.418 122.124 Z M 364.196 136.466 C 365.849 136.413 367.326 136.849 367.919 137.431 C 368.345 137.849 368.336 138.571 368.195 139.086 C 368.045 139.634 367.862 140.106 366.954 140.603 C 365.032 141.654 359.243 142.947 354.543 143.637 C 349.058 144.442 340.816 144.103 335.788 144.74 C 331.948 145.226 328.117 146.958 326.41 146.671 C 325.506 146.519 325.068 146.009 324.893 145.429 C 324.695 144.77 324.759 143.523 325.583 142.809 C 326.904 141.664 330.473 141.169 334.133 140.603 C 339.2 139.819 348.631 140.091 353.991 139.224 C 358.152 138.55 361.719 136.545 364.196 136.466 Z M 403.042 135.142 C 405.182 135.271 418.773 141.249 427.037 142.589 C 435.406 143.945 447.258 143.91 452.963 143.14 C 456.452 142.67 458.016 141.093 460.134 140.658 C 461.882 140.299 463.897 140.163 464.823 140.382 C 465.356 140.509 465.576 140.692 465.788 141.072 C 466.061 141.56 466.661 142.564 466.064 143.278 C 464.877 144.697 458.679 146.577 454.342 147.277 C 449.537 148.054 443.755 147.5 438.345 147.277 C 432.818 147.05 427.308 147.155 421.521 145.898 C 415.25 144.536 404.266 140.88 402.077 139.003 C 401.192 138.245 401.435 137.548 401.525 136.935 C 401.609 136.363 402.193 135.703 402.49 135.418 C 402.684 135.232 402.556 135.113 403.042 135.142 Z M 135.295 0.216 C 139.791 -0.683 145.205 0.114 146.651 0.9 C 147.289 1.247 147.233 1.781 147.198 2.268 C 147.159 2.821 147.077 3.623 146.24 4.047 C 144.594 4.882 139.554 3.461 135.295 4.594 C 129.626 6.103 119.686 12.986 115.045 14.172 C 112.301 14.873 111.616 14.801 109.025 14.172 C 105.032 13.203 97.7 7.89 92.88 6.783 C 88.949 5.881 85.427 6.257 82.208 6.783 C 79.284 7.261 75.815 9.443 74.273 9.52 C 73.478 9.559 73.109 9.337 72.768 8.973 C 72.405 8.585 72.209 7.756 72.22 7.194 C 72.231 6.665 72.198 6.198 72.768 5.689 C 73.858 4.714 77.234 3.235 80.293 2.679 C 84.094 1.988 90.173 1.768 94.248 2.679 C 97.906 3.496 100.62 6.088 103.826 7.331 C 106.915 8.528 109.202 10.46 113.13 10.067 C 118.797 9.5 129.209 1.434 135.295 0.216 Z M 82.756 185.368 C 87.786 184.854 96.662 185.079 102.458 185.368 C 107.396 185.615 110.076 185.691 115.593 186.737 C 123.366 188.21 138.714 192.392 145.693 194.672 C 150.211 196.148 154.119 197.539 155.407 198.64 C 155.995 199.142 155.99 199.521 155.955 200.008 C 155.915 200.561 155.545 201.434 154.997 201.787 C 154.377 202.186 153.525 202.268 152.261 202.061 C 150.145 201.712 147.267 199.871 142.957 198.503 C 136.28 196.385 121.437 192.196 114.224 190.841 C 109.284 189.914 107.255 189.949 102.731 189.747 C 97.068 189.493 87.445 189.349 82.482 189.747 C 79.096 190.018 76.099 191.299 74.82 191.115 C 74.219 191.028 74.109 190.749 73.862 190.431 C 73.593 190.083 73.28 189.55 73.315 189.063 C 73.354 188.51 73.503 187.792 74.273 187.284 C 75.652 186.373 79.129 185.739 82.756 185.368 Z M 204.356 158.6 C 205.592 158.316 206.481 158.741 206.956 159.284 C 207.414 159.81 207.787 160.819 207.229 161.747 C 206.191 163.474 198.626 166.936 197.378 168.041 C 196.914 168.452 197.131 168.542 196.831 168.862 C 196.374 169.348 195.332 169.956 194.642 170.64 C 193.914 171.36 193.901 172.083 192.589 173.103 C 190.038 175.087 181.95 179.723 177.813 181.312 C 174.73 182.497 172.92 182.657 169.877 182.954 C 166.247 183.309 161.03 183.345 157.29 182.954 C 154.024 182.613 151.52 181.36 148.533 181.039 C 145.502 180.712 141.1 181.641 139.229 181.039 C 138.086 180.671 137.721 179.978 137.177 179.26 C 136.62 178.525 136.751 177.393 135.945 176.66 C 134.89 175.701 132.492 174.926 130.746 174.471 C 129.071 174.035 126.543 174.605 125.684 173.924 C 125.049 173.421 125.015 172.217 125.137 171.598 C 125.239 171.076 125.518 170.638 126.094 170.367 C 126.966 169.957 128.699 169.773 130.473 170.093 C 132.927 170.536 137.925 172.346 139.64 173.787 C 140.778 174.744 139.685 176.121 141.281 176.934 C 144.848 178.75 161.026 179.262 167.688 178.85 C 172.413 178.557 175.223 177.743 178.634 176.387 C 182.015 175.043 186.969 171.744 188.074 170.777 C 188.462 170.438 188.179 170.423 188.485 170.093 C 189.162 169.362 192.255 167.178 193 166.399 C 193.366 166.016 193.073 165.999 193.547 165.578 C 194.872 164.402 202.045 159.132 204.356 158.6 Z M 217.448 175.183 C 219.379 175.35 225.298 178.838 228.668 179.561 C 231.48 180.165 233.368 179.521 236.33 179.835 C 239.993 180.223 246.853 181.242 249.191 182.024 C 250.377 182.421 250.869 182.726 251.243 183.255 C 251.566 183.713 251.656 184.387 251.517 184.897 C 251.368 185.44 251.256 186.157 250.285 186.402 C 248.027 186.972 238.487 184.28 234.414 183.939 C 231.519 183.697 230.184 184.503 227.573 183.939 C 224.236 183.219 217.441 180.405 215.943 179.014 C 215.247 178.367 215.385 177.797 215.396 177.235 C 215.407 176.706 215.601 176.072 215.943 175.73 C 216.285 175.388 216.587 175.108 217.448 175.183 Z M 325.148 178.467 C 328.99 177.503 333.778 177.766 336.641 178.467 C 338.775 178.989 340.679 180.144 341.429 181.203 C 341.986 181.989 342.086 183.17 341.703 183.803 C 341.292 184.482 339.718 185.084 338.83 185.034 C 337.992 184.987 336.938 184.033 336.504 183.666 C 336.253 183.454 336.495 183.263 336.093 183.118 C 334.876 182.68 328.467 182.061 325.148 182.845 C 321.973 183.595 317.56 186.706 316.528 187.497 C 316.172 187.769 316.464 187.823 316.117 188.044 C 315.226 188.612 311.892 190.03 309.276 190.507 C 306.257 191.057 300.597 191.599 298.878 190.78 C 297.886 190.308 297.613 189.16 297.647 188.454 C 297.678 187.802 297.898 187.161 298.878 186.676 C 300.933 185.657 308.205 186.384 312.56 185.034 C 316.967 183.667 320.966 179.515 325.148 178.467 Z M 415.906 196.904 C 416.715 196.547 418.096 196.793 419.463 197.178 C 421.251 197.68 423.614 199.696 425.757 200.188 C 427.813 200.659 429.934 199.847 432.051 200.188 C 434.265 200.544 437.874 201.838 438.755 202.377 C 439.101 202.589 438.927 202.724 439.165 202.924 C 439.546 203.244 440.078 203.789 441.081 204.019 C 442.776 204.406 446.269 204.414 449.29 204.019 C 452.823 203.556 459.207 200.992 461.057 201.009 C 461.824 201.015 461.995 201.215 462.288 201.556 C 462.622 201.944 462.946 202.737 462.835 203.335 C 462.71 204.012 462.389 204.754 461.33 205.387 C 459.352 206.569 453.27 207.919 449.564 208.397 C 446.193 208.831 442.657 209.078 439.986 208.397 C 437.683 207.809 436.65 205.85 434.24 205.113 C 431.257 204.201 426.345 204.949 423.02 204.019 C 419.983 203.168 415.944 201.128 414.948 200.051 C 414.475 199.54 414.567 199.158 414.674 198.683 C 414.803 198.117 415.243 197.196 415.906 196.904 Z M 446.244 185.083 C 447.474 184.989 449.979 185.971 452.537 186.177 C 455.864 186.445 461.285 185.714 464.851 186.177 C 467.887 186.571 469.751 187.972 472.787 188.366 C 476.353 188.829 481.409 188.643 485.101 188.366 C 488.337 188.123 492.328 186.346 493.857 186.998 C 494.832 187.414 495.158 188.882 495.089 189.598 C 495.029 190.21 494.636 190.687 493.857 191.103 C 492.54 191.806 489.716 192.209 486.743 192.471 C 482.73 192.824 475.608 192.987 471.419 192.471 C 468.109 192.063 466.317 190.674 463.209 190.282 C 459.604 189.827 454.087 190.738 450.896 190.282 C 448.52 189.942 446.17 189.223 445.286 188.503 C 444.778 188.089 444.786 187.61 444.739 187.135 C 444.691 186.653 444.746 185.973 445.012 185.63 C 445.265 185.304 445.583 185.133 446.244 185.083 Z M 202.8 216.448 C 208.212 216.219 218.175 216.163 222.776 216.722 C 225.712 217.079 226.584 218.028 229.069 218.364 C 232.13 218.777 237.126 218.808 240.015 218.637 C 242.171 218.51 244.225 217.645 245.214 217.816 C 245.758 217.91 245.963 218.139 246.172 218.5 C 246.427 218.941 246.584 219.877 246.446 220.416 C 246.319 220.91 246.035 221.302 245.488 221.647 C 244.692 222.15 243.373 222.525 241.657 222.742 C 239.138 223.06 234.685 223.063 231.259 222.742 C 227.844 222.422 225.075 221.211 221.134 220.826 C 216.322 220.357 209.031 220.412 204.168 220.553 C 200.165 220.669 195.476 221.577 193.77 221.374 C 193.017 221.284 192.832 221.167 192.538 220.826 C 192.204 220.439 191.98 219.61 191.991 219.048 C 192.002 218.519 191.892 217.939 192.538 217.543 C 193.9 216.708 198.644 216.624 202.8 216.448 Z M 128.041 223.946 C 130.231 223.822 132.005 223.597 132.83 224.22 C 133.454 224.691 133.499 225.927 133.377 226.546 C 133.274 227.067 133.274 227.387 132.419 227.777 C 130.093 228.839 119.218 230.089 113.538 230.513 C 108.605 230.882 101.75 230.735 100.129 230.513 C 99.622 230.444 99.629 230.482 99.445 230.24 C 99.15 229.852 98.776 228.533 98.898 227.914 C 99.001 227.392 99.07 226.994 99.856 226.682 C 101.715 225.946 108.673 226.57 113.264 226.135 C 118.057 225.681 124.59 224.141 128.041 223.946 Z M 23.753 210.373 C 25.485 210.116 31.46 213.652 34.425 214.204 C 36.684 214.625 37.879 213.903 40.171 214.204 C 43.174 214.599 47.937 215.818 51.117 216.941 C 53.891 217.92 57.369 219.169 58.369 220.361 C 58.965 221.073 59.012 221.998 58.642 222.55 C 58.19 223.225 56.477 223.878 55.222 223.782 C 53.74 223.668 52.436 222.105 50.296 221.319 C 47.386 220.25 41.908 218.738 38.803 218.309 C 36.481 217.988 35.272 218.835 33.057 218.309 C 30.151 217.618 24.014 214.831 22.795 213.52 C 22.229 212.911 22.382 212.389 22.521 211.878 C 22.67 211.335 22.897 210.501 23.753 210.373 Z M 16.912 236.601 C 18.965 235.81 25.348 236.748 30.801 237.99 C 37.894 239.604 46.994 245.056 56.263 246.786 C 66.303 248.659 81.715 248.764 89.132 248.174 C 93.737 247.808 94.948 246.398 98.854 245.86 C 103.804 245.177 114.534 244.678 116.909 244.934 C 117.723 245.022 117.796 245.038 118.066 245.397 C 118.428 245.878 118.581 247.284 118.529 247.943 C 118.49 248.435 118.775 248.73 118.066 249.1 C 115.648 250.363 99.46 251.838 91.447 252.341 C 84.468 252.779 78.742 252.575 72.466 252.341 C 66.244 252.108 60.649 252.37 53.948 250.952 C 46.172 249.306 35.291 243.943 28.486 242.156 C 23.49 240.844 17.692 241.045 16.218 240.073 C 15.592 239.66 15.696 239.196 15.755 238.684 C 15.826 238.062 15.9 236.99 16.912 236.601 Z M 238.941 235.119 C 248.377 235.538 264.283 237.112 271.81 239.286 C 276.774 240.719 280.981 242.531 282.227 244.61 C 283.107 246.078 282.33 248.938 281.532 249.471 C 280.823 249.944 278.838 248.937 278.06 248.313 C 277.405 247.788 277.869 246.901 276.903 246.23 C 274.996 244.905 269.457 243.591 264.403 242.526 C 257.971 241.171 248.383 239.644 240.793 239.286 C 233.597 238.946 222.559 240.496 219.96 240.212 C 219.118 240.12 219.073 240.108 218.803 239.749 C 218.441 239.268 218.288 237.861 218.34 237.203 C 218.379 236.711 218.142 236.361 218.803 236.045 C 220.816 235.085 231.206 234.776 238.941 235.119 Z M 442.576 238.37 C 454.059 237.28 489.788 236.274 499.055 238.37 C 503.275 239.325 504.748 241.186 505.768 242.537 C 506.421 243.401 506.283 244.424 506.231 245.083 C 506.192 245.575 506.148 245.969 505.768 246.24 C 505.225 246.628 503.931 247.017 502.759 246.703 C 501.094 246.258 498.599 243.153 496.74 242.537 C 495.257 242.045 494.431 242.496 492.574 242.537 C 489.778 242.598 486.326 242.943 481 243 C 472.608 243.089 453.79 241.933 444.891 242.537 C 438.785 242.951 433.077 245.649 431.002 244.852 C 429.915 244.434 429.883 242.971 429.845 242.305 C 429.817 241.824 429.737 241.528 430.308 241.148 C 431.748 240.189 436.278 238.968 442.576 238.37 Z M 365.483 259.139 C 366.745 259.159 367.048 259.265 367.431 259.739 C 367.851 260.258 367.952 261.618 367.731 262.286 C 367.535 262.879 367.215 263.228 366.383 263.635 C 364.862 264.377 361.756 264.913 357.991 265.433 C 352.363 266.21 341.064 267.463 334.615 267.231 C 329.536 267.048 323.463 266.437 321.878 265.133 C 321.048 264.45 321.52 263.157 321.578 262.586 C 321.615 262.226 321.489 262.038 321.878 261.836 C 322.906 261.303 328.647 260.942 331.019 261.237 C 332.796 261.458 333.533 262.46 335.214 262.735 C 337.284 263.075 339.296 263.033 342.707 262.735 C 348.054 262.269 362.154 259.086 365.483 259.139 Z M 242.682 273.055 C 244.599 272.906 245.796 273.167 246.429 273.804 C 246.955 274.334 247.419 275.383 246.728 276.201 C 245.242 277.962 237.122 280.64 231.294 281.746 C 224.681 283.001 214.178 282.71 208.817 282.645 C 205.305 282.602 202.356 282.562 201.025 282.045 C 200.34 281.78 200.2 281.388 199.976 280.997 C 199.768 280.633 199.681 280.212 199.676 279.798 C 199.672 279.364 199.499 278.78 199.976 278.449 C 200.878 277.825 203.742 277.942 206.719 277.85 C 211.12 277.714 218.752 278.929 224.701 278.149 C 230.742 277.358 239.066 273.335 242.682 273.055 Z M 71.398 270.837 C 73.068 270.635 79.375 270.448 83.386 270.837 C 87.466 271.233 91.117 272.768 95.673 273.234 C 100.868 273.767 107.999 272.6 113.055 273.534 C 117.462 274.349 123.186 276.454 124.593 277.88 C 125.289 278.585 125.044 279.387 124.893 279.978 C 124.755 280.519 124.282 281.053 123.844 281.326 C 123.425 281.587 123.154 281.74 122.346 281.626 C 120.634 281.385 116.944 278.774 113.055 278.03 C 108 277.062 99.307 277.991 93.875 277.43 C 89.437 276.972 86.265 275.679 82.486 275.332 C 78.773 274.992 73.363 275.799 71.398 275.332 C 70.417 275.099 70.072 274.768 69.749 274.283 C 69.435 273.812 69.317 273.015 69.45 272.485 C 69.579 271.969 70.132 271.406 70.499 271.137 C 70.788 270.924 70.793 270.91 71.398 270.837 Z M 344.791 292.235 C 346.778 291.946 359.991 291.805 364.871 292.535 C 368.225 293.036 369.872 294.54 372.363 294.932 C 374.767 295.311 377.282 294.517 379.556 294.932 C 381.771 295.337 383.933 296.962 385.849 297.33 C 387.479 297.642 388.99 297.506 390.345 297.33 C 391.559 297.172 392.817 296.393 393.641 296.431 C 394.231 296.458 394.669 296.657 394.99 297.03 C 395.356 297.455 395.602 298.363 395.589 298.978 C 395.578 299.558 395.693 300.209 394.99 300.626 C 393.526 301.497 387.096 301.923 384.051 301.525 C 381.547 301.198 379.944 299.529 377.758 299.128 C 375.551 298.723 373.197 299.497 370.865 299.128 C 368.406 298.739 366.705 297.302 363.372 296.73 C 358.566 295.906 345.752 296.898 343.742 295.681 C 342.966 295.211 343.353 294.421 343.443 293.883 C 343.527 293.38 343.925 292.804 344.192 292.535 C 344.383 292.342 344.282 292.309 344.791 292.235 Z M 492.7 274.493 C 493.611 274.305 494.983 274.349 495.547 274.793 C 496.04 275.18 496.227 276.137 496.147 276.741 C 496.068 277.334 496.044 277.628 495.098 278.389 C 492.545 280.443 479.034 287.424 474.419 289.178 C 471.771 290.185 471.48 290.082 468.725 290.377 C 464.123 290.869 453.006 291.434 447.746 290.976 C 444.038 290.654 440.318 289.987 439.205 289.028 C 438.611 288.517 438.773 287.76 438.905 287.23 C 439.034 286.714 439.424 286.165 439.954 285.882 C 440.592 285.541 441.161 285.603 442.651 285.582 C 445.765 285.538 455.39 286.439 459.734 286.481 C 462.807 286.51 464.383 286.576 466.927 286.181 C 469.745 285.744 472.598 285.104 475.917 283.784 C 479.98 282.167 488.122 277.658 489.553 276.591 C 489.98 276.273 489.722 276.222 490.003 275.992 C 490.497 275.586 491.761 274.687 492.7 274.493 Z M 471.841 263.225 C 473.67 263.029 474.435 263.381 474.988 263.974 C 475.481 264.501 476.132 265.475 475.288 266.371 C 472.997 268.803 450.853 275.587 447.566 275.812 C 446.571 275.88 446.503 275.626 446.218 275.212 C 445.862 274.696 445.859 273.236 445.918 272.665 C 445.955 272.305 445.725 272.256 446.218 271.916 C 448.227 270.528 467.565 263.683 471.841 263.225 Z M 44.473 312.788 C 46.583 312.159 57.786 312.227 61.202 312.788 C 63.129 313.105 62.539 313.829 64.919 314.275 C 70.83 315.384 100.802 315.323 103.767 316.692 C 104.498 317.029 104.207 317.376 104.139 317.807 C 104.048 318.383 104.004 319.375 102.838 319.852 C 100.121 320.962 90.86 320.223 82.763 319.852 C 72.204 319.368 47.531 318.766 43.915 316.506 C 42.652 315.716 43.354 314.354 43.543 313.718 C 43.683 313.248 43.71 313.016 44.473 312.788 Z M 244.499 315.762 C 246.161 315.669 248.381 315.492 249.146 316.134 C 249.737 316.63 249.741 317.866 249.518 318.55 C 249.298 319.226 249.09 319.8 247.845 320.223 C 244.893 321.226 232.354 320.979 227.399 320.967 C 224.092 320.959 223.285 320.539 219.964 320.595 C 214.947 320.68 201.956 323.185 199.146 322.082 C 197.897 321.592 197.797 320.373 197.845 319.666 C 197.887 319.028 197.936 318.451 199.146 317.993 C 202.628 316.674 221.941 316.58 228.886 316.506 C 233.315 316.458 235.783 317.067 238.551 316.878 C 240.846 316.721 242.655 315.866 244.499 315.762 Z M 229.869 327.658 C 233.98 327.119 246.514 326.301 253.289 327.658 C 259.223 328.847 266.615 332.153 268.717 334.35 C 269.852 335.537 269.895 337.14 269.46 337.881 C 269.041 338.596 267.082 338.915 266.3 338.811 C 265.715 338.733 265.316 338.219 264.999 337.881 C 264.728 337.592 264.96 337.348 264.442 336.952 C 263.094 335.923 258.203 333.069 253.661 332.119 C 247.803 330.895 235.887 331.353 231.356 331.748 C 228.873 331.964 227.544 333.222 226.523 332.863 C 225.757 332.593 225.222 331.5 225.222 330.818 C 225.222 330.137 225.846 329.288 226.523 328.774 C 227.31 328.176 227.941 327.911 229.869 327.658 Z M 227.267 334.796 C 228.955 334.815 229.846 334.607 230.426 335.168 C 230.979 335.701 231.16 337.222 230.798 337.956 C 230.415 338.733 229.639 339.258 228.01 339.629 C 224.792 340.36 212.677 340.673 210.166 339.629 C 209.036 339.159 208.893 338.23 208.865 337.584 C 208.839 336.997 208.873 336.351 209.794 335.911 C 212.027 334.846 223.927 334.758 227.267 334.796 Z M 359.61 341.934 C 365.972 341.581 374.484 341.027 380.056 341.934 C 384.504 342.657 389.658 344.55 391.023 345.837 C 391.683 346.46 391.534 347.118 391.394 347.696 C 391.248 348.299 391.031 349.178 390.093 349.369 C 388.194 349.755 382.62 346.614 378.197 346.023 C 373.204 345.355 367.182 345.729 361.468 346.023 C 355.544 346.327 345.797 348.75 343.253 347.882 C 342.119 347.495 341.951 346.519 341.951 345.837 C 341.951 345.155 342.153 344.349 343.253 343.792 C 345.62 342.594 353.776 342.257 359.61 341.934 Z M 451.44 324.684 C 458.053 323.813 470.348 323.742 475.604 324.684 C 478.82 325.261 481.514 326.268 482.11 327.472 C 482.555 328.372 481.877 330.172 480.809 330.632 C 479.226 331.313 475.563 329.126 471.887 328.774 C 467.037 328.309 459.393 328.096 453.671 328.774 C 448.28 329.412 440.699 333.159 438.429 332.491 C 437.299 332.158 437.081 330.782 437.128 330.075 C 437.17 329.437 437.469 328.97 438.429 328.402 C 440.445 327.209 446.196 325.375 451.44 324.684 Z M 92.346 342.38 C 94.218 342.325 95.96 342.799 96.621 343.309 C 97.012 343.611 97.061 343.993 96.993 344.424 C 96.902 345 96.71 345.868 95.692 346.469 C 93.705 347.643 87.559 348.621 83.052 349.071 C 78.189 349.557 72.982 349.235 67.439 349.071 C 61.397 348.893 51.581 347.408 48.108 347.956 C 46.391 348.227 46.533 349.147 45.134 349.443 C 43.058 349.883 37.796 350.363 36.212 349.443 C 35.133 348.817 34.247 347.147 34.911 346.283 C 36.072 344.772 44.034 343.951 48.48 343.495 C 52.765 343.055 56.297 343.308 61.119 343.495 C 66.927 343.72 75.633 345.367 81.194 344.982 C 85.631 344.675 89.595 342.46 92.346 342.38 Z M 20.307 357.179 C 22.44 356.983 34.537 358.817 43.503 359.184 C 54.454 359.633 73.161 358.203 81.878 359.184 C 87.35 359.8 92.209 360.78 93.476 362.191 C 94.178 362.972 93.743 364.352 93.19 364.912 C 92.57 365.538 91.191 365.573 89.61 365.484 C 87.237 365.351 84.695 363.676 79.873 363.193 C 71.568 362.361 51.583 363.608 40.926 363.193 C 32.651 362.871 23.005 362.305 20.307 361.475 C 19.33 361.175 19.281 360.917 19.018 360.473 C 18.747 360.016 18.605 359.26 18.732 358.754 C 18.855 358.261 19.433 357.723 19.734 357.466 C 19.941 357.289 19.8 357.226 20.307 357.179 Z M 194.119 359.929 C 196.663 359.778 199.11 359.888 199.989 360.645 C 200.593 361.164 200.542 362.338 200.276 362.936 C 200.012 363.529 199.63 363.786 198.414 364.224 C 195.626 365.229 186.416 366.862 180.659 367.374 C 175.166 367.864 168.601 367.7 164.622 367.374 C 161.866 367.149 160.899 366.445 158.322 366.229 C 154.942 365.945 147.822 366.83 145.721 366.229 C 144.708 365.939 144.375 365.526 144.146 364.94 C 143.898 364.31 143.582 363.082 144.432 362.506 C 146.175 361.325 155.312 361.718 159.181 361.933 C 162.046 362.092 163.277 362.864 166.054 363.079 C 169.636 363.356 174.693 363.56 179.227 363.079 C 184.031 362.569 190.406 360.149 194.119 359.929 Z M 271.555 369.093 C 272.084 368.961 272.639 368.79 273.56 369.093 C 275.22 369.638 278.123 372.794 281.006 373.675 C 284.155 374.637 287.368 374.463 291.888 374.248 C 298.055 373.954 312.71 370.846 315.371 371.097 C 316.166 371.172 316.151 371.305 316.373 371.67 C 316.674 372.163 316.907 373.474 316.66 374.104 C 316.43 374.69 316.157 374.98 315.085 375.393 C 312.623 376.341 304.463 377.445 299.048 377.97 C 293.582 378.501 286.521 379.105 282.438 378.543 C 279.575 378.149 276.865 376.807 275.994 376.252 C 275.641 376.027 275.879 375.954 275.565 375.679 C 274.83 375.038 271.299 373.444 270.553 372.386 C 270.07 371.701 270.222 370.861 270.267 370.381 C 270.297 370.056 270.371 369.869 270.553 369.665 C 270.767 369.426 271.131 369.199 271.555 369.093 Z M 388.525 385.798 C 389.104 385.655 389.659 385.446 390.816 385.798 C 393.181 386.519 398.988 391.362 402.844 392.385 C 406.206 393.277 410.24 392.868 412.58 392.385 C 414.215 392.048 415.468 391.248 416.16 390.667 C 416.61 390.289 416.595 389.814 416.876 389.521 C 417.128 389.258 417.259 389.234 417.735 388.948 C 418.69 388.375 420.96 386.576 422.89 386.084 C 424.942 385.561 428.685 385.923 429.763 386.084 C 430.212 386.152 430.284 386.139 430.479 386.371 C 430.762 386.706 431.064 387.644 431.052 388.232 C 431.041 388.786 431.06 389.435 430.479 389.807 C 429.481 390.447 426.37 389.539 424.036 390.38 C 421.087 391.443 417.971 395.608 414.299 396.68 C 410.468 397.799 405.692 397.798 401.412 396.68 C 396.764 395.468 389.087 390.92 387.522 389.091 C 386.835 388.288 387.191 387.566 387.236 387.087 C 387.267 386.761 387.34 386.574 387.522 386.371 C 387.737 386.132 388.084 385.907 388.525 385.798 Z M 443.185 377.78 C 444.224 377.647 446.482 377.909 448.626 378.639 C 451.545 379.631 455.329 383.151 459.222 384.08 C 463.31 385.055 468.444 383.92 472.682 384.08 C 476.619 384.228 482.186 384.32 483.85 384.939 C 484.578 385.21 484.761 385.442 484.853 385.941 C 484.98 386.63 485.205 388.273 483.85 388.948 C 480.718 390.509 465.34 389.926 458.076 388.375 C 451.92 387.061 444.364 383.327 442.469 381.502 C 441.63 380.695 441.903 379.919 441.896 379.355 C 441.891 378.938 441.977 378.613 442.183 378.352 C 442.397 378.081 442.629 377.85 443.185 377.78 Z M 288.013 402.125 C 291.27 401.743 294.796 401.835 298.733 402.125 C 303.256 402.458 309.288 403.184 313.742 404.269 C 317.686 405.23 322.932 406.688 324.284 408.021 C 324.986 408.714 324.768 409.577 324.641 410.165 C 324.53 410.678 324.196 411.145 323.748 411.416 C 323.232 411.727 322.676 411.899 321.604 411.773 C 319.616 411.541 316.112 409.397 311.955 408.557 C 306.233 407.402 294.903 406.38 289.442 406.413 C 285.787 406.435 282.706 408.254 281.223 407.485 C 280.159 406.934 279.411 404.946 279.973 404.09 C 280.755 402.899 285.076 402.469 288.013 402.125 Z M 443.761 396.122 C 447.007 395.398 458.175 395.279 465.559 396.122 C 473.234 396.998 486.466 399.446 488.965 401.482 C 490.008 402.332 489.734 403.514 489.322 404.162 C 488.86 404.889 487.8 405.388 485.927 405.413 C 482.151 405.461 472.524 401.548 465.559 400.767 C 458.474 399.973 446.781 401.351 443.761 400.767 C 442.637 400.55 442.487 400.376 442.153 399.874 C 441.773 399.303 441.51 398.001 441.795 397.372 C 442.071 396.763 442.433 396.417 443.761 396.122 Z M 407.248 427.957 C 408.685 427.915 409.438 428.163 409.928 428.672 C 410.357 429.119 410.455 430.011 410.285 430.637 C 410.099 431.327 409.835 431.991 408.677 432.603 C 406.299 433.859 398.337 435.311 393.669 435.819 C 389.467 436.276 384.995 436.262 381.876 435.819 C 379.498 435.481 378.185 434.337 376.159 434.032 C 374.028 433.711 372.74 433.792 369.369 434.032 C 363.36 434.46 343.651 437.731 340.781 437.606 C 340.045 437.573 340.099 437.555 339.888 437.248 C 339.57 436.784 339.47 435.195 339.531 434.568 C 339.571 434.154 339.421 433.975 339.888 433.675 C 341.163 432.856 346.626 431.84 351.502 431.173 C 358.113 430.27 371.154 428.909 376.873 429.387 C 380.439 429.684 381.82 431.173 384.378 431.531 C 386.942 431.89 389.099 431.925 392.239 431.531 C 396.351 431.015 404.392 428.041 407.248 427.957 Z M 411.679 446.825 C 414.496 446.445 416.06 446.474 417.396 446.825 C 418.329 447.071 419.138 447.434 419.362 448.076 C 419.615 448.801 419.545 450.394 418.468 451.113 C 416.579 452.375 410.086 451.32 405.604 452.185 C 400.713 453.129 394.486 456.071 390.238 456.831 C 386.987 457.412 385.75 457.312 382.019 457.188 C 376.239 456.997 360.093 456.565 357.541 454.865 C 356.513 454.181 356.898 452.993 357.183 452.364 C 357.46 451.755 358.004 451.388 359.149 451.113 C 361.365 450.581 366.874 450.915 371.299 451.113 C 376.299 451.337 381.649 453.033 387.737 452.543 C 394.88 451.968 406.628 447.507 411.679 446.825 Z M 492.4 436.819 C 494.689 436.392 495.906 436.458 497.402 436.819 C 498.803 437.158 500.55 438.086 501.155 438.785 C 501.551 439.243 501.58 439.731 501.512 440.214 C 501.438 440.742 501.096 441.491 500.619 441.822 C 500.109 442.176 499.422 442.174 498.474 442.18 C 497.076 442.188 495.229 441.216 492.757 441.465 C 489.107 441.832 480.446 445.81 478.106 445.753 C 477.102 445.729 476.832 445.362 476.498 444.86 C 476.118 444.29 475.423 443.2 476.14 442.358 C 477.684 440.547 488.649 437.519 492.4 436.819 Z M 472.674 463.477 C 476.607 463.41 483.173 463.53 484.645 464.55 C 485.363 465.047 485.172 465.888 485.003 466.515 C 484.816 467.205 484.417 468.122 483.394 468.48 C 481.674 469.083 477.394 467.68 474.103 467.766 C 470.521 467.859 466.903 468.291 462.668 469.195 C 457.661 470.264 452.121 473.215 445.873 474.198 C 438.836 475.305 425.375 476.37 422.288 474.913 C 420.885 474.25 420.92 472.619 421.037 471.875 C 421.129 471.294 421.247 470.965 422.288 470.624 C 425.243 469.657 439.365 470.71 446.23 469.552 C 452.029 468.575 456.601 465.92 461.239 464.907 C 465.336 464.012 468.807 463.544 472.674 463.477 Z M 269.654 450.899 C 272.202 450.564 287.345 449.933 293.239 450.899 C 297.468 451.592 299.628 453.884 302.887 454.472 C 306.063 455.045 309.999 453.782 312.535 454.472 C 314.59 455.032 316.586 456.921 317.359 457.51 C 317.704 457.773 317.526 457.773 317.895 458.046 C 318.81 458.721 323.566 460.406 324.149 461.798 C 324.589 462.849 323.797 464.733 322.898 465.193 C 321.866 465.721 319.699 464.943 317.895 464.121 C 315.612 463.079 313.397 459.749 310.391 458.761 C 307.074 457.669 302.028 459.11 298.599 458.403 C 295.592 457.783 294.27 455.818 290.737 455.187 C 285.69 454.286 272.94 455.943 270.011 455.187 C 268.853 454.888 268.636 454.533 268.403 453.936 C 268.142 453.268 268.442 451.72 268.76 451.256 C 268.971 450.949 268.945 450.992 269.654 450.899 Z M 220.546 417.094 C 222.768 416.764 224.544 416.511 226.621 417.094 C 228.995 417.761 232.908 420.037 233.947 421.382 C 234.568 422.187 234.441 423.083 234.304 423.705 C 234.189 424.23 233.921 424.679 233.411 424.956 C 232.724 425.329 231.339 425.582 230.195 425.313 C 228.811 424.988 226.463 423.179 225.728 422.633 C 225.388 422.38 225.508 422.261 225.192 422.097 C 224.647 421.815 223.815 421.361 222.333 421.382 C 219.551 421.422 212.122 423.926 208.397 424.241 C 205.624 424.475 204.108 423.709 201.607 423.884 C 198.71 424.085 193.41 425.718 191.959 425.67 C 191.385 425.651 191.278 425.638 191.065 425.313 C 190.72 424.785 189.981 422.987 190.708 422.097 C 191.859 420.686 197.408 419.694 200.535 419.238 C 203.399 418.821 206.715 419.136 208.754 419.238 C 210.158 419.309 210.565 419.746 211.97 419.595 C 214.079 419.369 217.955 417.479 220.546 417.094 Z M 213.185 429.958 C 215.944 429.775 224.743 429.324 229.266 429.958 C 232.99 430.481 237.432 431.521 238.735 432.817 C 239.511 433.589 239.154 434.871 239.093 435.497 C 239.052 435.912 239.055 436.179 238.735 436.391 C 238.228 436.727 237.029 436.896 235.698 436.748 C 233.686 436.524 230.611 434.695 227.479 434.247 C 223.839 433.726 217.859 434.131 214.972 434.247 C 213.152 434.32 211.906 435.078 211.041 434.604 C 210.27 434.181 209.723 432.672 209.79 431.924 C 209.848 431.28 210.486 430.645 211.041 430.316 C 211.61 429.978 211.946 430.041 213.185 429.958 Z M 121.061 418.237 C 123.057 417.992 128.944 418.211 130.173 419.131 C 130.865 419.648 130.768 420.662 130.531 421.275 C 130.279 421.927 129.626 422.496 128.565 422.883 C 126.866 423.503 123.953 423.456 120.346 423.598 C 115.061 423.805 101.307 423.917 98.906 423.598 C 98.212 423.505 98.258 423.512 98.012 423.24 C 97.677 422.869 97.224 421.916 97.298 421.275 C 97.374 420.605 97.416 419.77 98.548 419.309 C 101.224 418.221 115.212 419.857 118.56 419.309 C 120.067 419.063 119.833 418.389 121.061 418.237 Z M 44.51 416.308 C 45.867 416.164 47.014 416.656 47.547 417.201 C 47.974 417.638 48.038 418.433 47.904 418.988 C 47.764 419.568 47.49 420.006 46.654 420.596 C 45.067 421.714 41.693 423.613 37.363 424.527 C 30.856 425.899 14.442 426.319 9.49 425.956 C 7.158 425.785 6.149 425.534 5.38 424.884 C 4.801 424.395 4.592 423.56 4.665 422.919 C 4.742 422.249 4.884 421.357 5.916 420.953 C 8.05 420.118 15.344 421.775 20.21 421.668 C 25.225 421.558 31.297 421.314 35.576 420.239 C 39.138 419.343 42.38 416.532 44.51 416.308 Z M 22.926 438.249 C 23.813 438.277 25.038 439.367 25.963 440.214 C 26.957 441.124 27.32 443.045 28.643 443.609 C 30.196 444.271 33.638 442.84 35.076 443.252 C 36.066 443.536 36.408 444.235 37.041 444.86 C 37.722 445.531 37.954 446.738 39.006 447.182 C 40.427 447.782 43.769 446.795 45.439 447.182 C 46.738 447.484 48.189 448.005 48.476 448.791 C 48.758 449.562 48.325 451.236 47.225 451.828 C 45.484 452.765 39.222 452.339 36.862 451.471 C 35.164 450.846 34.078 449.14 33.468 448.433 C 33.129 448.041 33.373 447.697 32.932 447.54 C 32.057 447.227 28.745 448.578 27.214 448.255 C 25.943 447.986 25.098 447.386 24.177 446.289 C 22.942 444.819 20.73 440.78 20.96 439.5 C 21.105 438.698 22.182 438.225 22.926 438.249 Z M 78.886 439.464 C 80.094 439.261 81.714 439.839 82.281 440.357 C 82.682 440.723 82.731 441.279 82.638 441.787 C 82.527 442.396 82.053 443.107 81.388 443.752 C 80.51 444.603 79.008 445.764 77.457 446.253 C 75.731 446.798 72.775 446.927 71.382 446.611 C 70.434 446.396 69.812 446.009 69.417 445.36 C 68.975 444.636 68.644 442.945 69.059 442.323 C 69.459 441.724 70.865 441.602 71.739 441.608 C 72.591 441.614 73.271 442.488 74.241 442.323 C 75.544 442.1 77.446 439.705 78.886 439.464 Z M 134.918 450.827 C 136.657 450.837 137.956 451.304 138.313 452.078 C 138.67 452.852 138.364 454.511 137.062 455.473 C 134.676 457.236 126.877 458.317 120.982 459.046 C 114.386 459.863 106.433 458.659 99.184 459.761 C 91.781 460.886 83.861 464.887 77.028 465.836 C 71 466.673 62.632 466.935 60.233 465.836 C 59.088 465.312 58.991 464.204 58.982 463.513 C 58.974 462.915 59.01 462.296 59.875 461.905 C 61.898 460.992 69.507 462.428 75.241 461.548 C 82.106 460.494 90.895 456.223 98.469 455.116 C 105.648 454.065 113.205 455.59 119.552 454.758 C 125.216 454.016 131.777 450.81 134.918 450.827 Z M 221.388 469.981 C 231.734 469.321 249.296 470.797 257.48 472.84 C 262.795 474.167 264.863 477.205 268.558 478.2 C 272.01 479.13 277.214 478.269 278.921 478.915 C 279.762 479.233 280.08 479.585 280.172 480.166 C 280.289 480.909 280.054 482.6 278.921 483.203 C 277.054 484.196 271.254 483.785 267.486 482.846 C 263.507 481.854 261.097 478.524 255.693 477.128 C 247.91 475.117 231.593 473.648 223.175 474.269 C 216.979 474.727 212.685 477.453 208.524 478.2 C 205.206 478.796 201.293 479.047 199.947 478.915 C 199.387 478.86 199.265 478.864 199.054 478.558 C 198.736 478.093 198.636 476.504 198.697 475.877 C 198.737 475.463 198.501 475.32 199.054 474.984 C 201.019 473.792 212.776 470.531 221.388 469.981 Z M 341.774 485.133 C 345.45 484.987 347.921 484.228 351.78 485.133 C 356.837 486.319 364.146 491.828 369.647 493.352 C 374.324 494.647 381.152 493.571 382.69 494.602 C 383.389 495.071 383.155 495.871 383.048 496.389 C 382.948 496.873 382.876 497.337 382.154 497.64 C 380.585 498.299 374.308 498.211 371.434 497.997 C 369.239 497.834 368.348 497.74 366.074 496.925 C 362.652 495.699 356.655 491.243 352.495 490.136 C 349.023 489.212 346.481 489.704 342.846 489.778 C 338.548 489.866 330.435 491.982 328.195 490.85 C 326.916 490.204 326.872 488.269 326.944 487.455 C 326.996 486.878 327.065 486.543 327.838 486.205 C 329.706 485.387 337.573 485.299 341.774 485.133 Z M 221.833 493.263 C 223.239 493.137 224.032 493.507 224.513 493.978 C 224.904 494.361 224.976 495.034 224.87 495.586 C 224.749 496.22 224.646 496.844 223.62 497.551 C 221.385 499.091 212.789 502.105 208.254 502.912 C 204.521 503.576 201.467 503.102 198.248 502.912 C 195.163 502.729 192.98 501.631 189.314 501.84 C 184.371 502.121 173.298 506.534 170.732 505.77 C 169.568 505.424 169.491 504.139 169.482 503.448 C 169.474 502.849 169.575 502.395 170.375 501.84 C 172.129 500.622 178.533 498.629 182.882 497.909 C 187.339 497.17 192.531 497.469 196.819 497.551 C 200.682 497.626 203.696 498.816 207.539 498.266 C 211.948 497.636 219.061 493.513 221.833 493.263 Z M 301.521 498.695 C 302.779 498.591 303.405 498.927 303.844 499.41 C 304.25 499.856 304.371 500.749 304.201 501.375 C 304.015 502.065 303.711 502.63 302.593 503.341 C 300.331 504.78 292.587 507.615 288.657 508.343 C 285.605 508.909 283.353 508.759 280.795 508.343 C 278.231 507.927 276.47 506.395 273.291 505.842 C 269.029 505.1 261.207 505.046 256.853 505.127 C 253.607 505.188 250.412 506.478 248.991 505.842 C 248.075 505.432 247.75 504.21 247.741 503.519 C 247.733 502.921 248.078 502.333 248.634 501.911 C 249.371 501.352 250.332 501.071 252.207 500.839 C 255.688 500.408 263.86 500.372 269.717 500.839 C 275.652 501.312 282.109 504.18 287.585 503.698 C 292.639 503.253 298.929 498.909 301.521 498.695 Z" style="stroke-width: 2px; fill: rgb(12, 5, 0); transform-origin: 251.198px 249.268px;"/>
  <path stroke-width="0" d="M -13.722 3.949 C -6.205 2.912 21.964 14.95 48.968 18.105 C 86.839 22.529 155.315 25.032 198.614 22.149 C 234.926 19.732 262.092 8.648 293.66 5.971 C 324.779 3.332 361.11 3.123 386.684 5.971 C 406.948 8.228 419.523 15.72 437.24 18.105 C 455.836 20.607 478.313 20.639 495.885 20.127 C 511.206 19.68 533.448 13.544 537.341 16.082 C 539.153 17.263 538.08 20.922 536.33 22.149 C 533.629 24.043 526.999 21.862 518.13 22.149 C 502.852 22.644 470.439 27.939 447.351 26.194 C 436.212 25.352 425.692 22.525 415.054 19.573 C 414.815 19.911 414.393 20.25 413.628 20.642 C 408.327 23.357 380.238 28.927 365.912 30.612 C 353.585 32.063 341.728 31.556 332.439 31.325 C 325.101 31.142 321.796 31.298 313.923 29.9 C 302.603 27.891 272.701 21.956 269.412 18.149 C 269.058 17.739 268.86 17.275 268.8 16.799 C 249.209 21.015 229.474 26.464 210.748 28.216 C 184.265 30.693 160.833 28.824 133.902 28.216 C 105.076 27.565 69.385 28.389 42.901 24.171 C 20.182 20.553 -13.865 10.639 -16.756 6.982 C -17.748 5.727 -16.268 4.3 -13.722 3.949 Z M 380.617 12.038 C 354.843 9.388 325.642 9.444 297.705 12.038 C 292.021 12.566 286.275 13.417 280.496 14.463 C 291.156 16.841 307.542 22.205 316.772 23.491 C 327.221 24.946 335.354 24.955 343.834 24.915 C 351.653 24.878 356.759 24.716 365.912 23.491 C 374.054 22.401 389.419 18.127 400.702 15.716 C 394.216 14.11 387.573 12.753 380.617 12.038 Z M 144.418 -0.905 C 148.255 -0.649 152.657 2.334 151.496 4.151 C 149.065 7.955 112.047 17.003 97.906 17.296 C 87.441 17.513 75.275 14.261 72.628 11.229 C 71.141 9.525 71.889 6.389 73.639 5.162 C 76.34 3.268 85.835 4.183 91.839 5.162 C 97.971 6.163 102.753 11.453 110.04 11.229 C 119.46 10.939 137.61 -1.358 144.418 -0.905 Z M 190.121 -0.905 C 197.649 -3.107 246.281 -4.574 252.811 -0.905 C 255.39 0.545 255.961 3.811 253.822 5.162 C 248.268 8.672 190.376 4.656 187.087 2.129 C 185.991 1.286 187.546 -0.151 190.121 -0.905 Z M 433.398 0.713 C 439.079 -2.321 479.23 7.886 493.054 6.78 C 501.991 6.065 510.699 -0.39 512.266 0.713 C 513.279 1.427 512.32 5.104 509.232 6.78 C 502.103 10.649 468.105 13.736 454.631 12.847 C 445.274 12.229 436.042 9.659 433.398 6.78 C 431.821 5.063 431.125 1.927 433.398 0.713 Z M -18.239 31.451 C -12.422 29.755 27.675 50.134 49.507 53.696 C 69.697 56.991 93.422 55.884 108.152 53.696 C 118.722 52.126 117.011 47.533 132.419 45.607 C 170.938 40.792 345.55 50.245 385.201 45.607 C 401.528 43.697 400.896 39.019 411.49 37.518 C 424.785 35.635 441.223 36.059 460.024 37.518 C 483.303 39.325 535.5 44.369 541.925 49.652 C 544.196 51.519 542.726 54.471 540.914 55.719 C 537.997 57.727 529.776 56.58 520.692 55.719 C 506.702 54.392 481.446 47.276 462.046 45.607 C 443.029 43.972 420.194 43.55 405.423 45.607 C 394.357 47.149 395.398 51.79 379.134 53.696 C 339.891 58.296 171.713 49.402 130.397 53.696 C 112.343 55.573 111.901 60.309 100.063 61.785 C 85.739 63.571 67.621 65.176 49.507 61.785 C 28.605 57.873 -12.446 42.3 -18.239 36.507 C -20.237 34.508 -20.257 32.04 -18.239 31.451 Z M 33.21 36.51 C 38.704 33.74 71.746 35.525 76.463 37.801 C 78.184 38.632 77.755 39.953 77.755 41.029 C 77.755 42.105 78.204 43.526 76.463 44.257 C 71.606 46.297 34.953 45.494 31.273 42.32 C 29.619 40.894 30.697 37.777 33.21 36.51 Z M 142.033 58.726 C 148.626 57.496 153.257 58.252 159.151 59.316 C 165.522 60.466 176.376 63.276 178.924 65.809 C 180.301 67.177 180.066 69.152 179.515 70.236 C 178.969 71.309 177.743 72.285 175.678 72.301 C 171.784 72.332 161.344 66.26 155.609 65.218 C 151.079 64.395 148.579 64.256 143.804 65.218 C 137.231 66.543 121.979 72.961 119.308 74.662 C 118.464 75.201 118.984 75.554 118.423 75.843 C 117.527 76.305 114.782 76.542 113.701 76.433 C 113.004 76.363 112.571 76.327 112.225 75.843 C 111.731 75.151 111.551 72.946 111.635 72.006 C 111.694 71.349 111.383 71.182 112.225 70.531 C 115.025 68.363 133.562 60.305 142.033 58.726 Z M 434.185 51.642 C 441.355 50.896 453.588 50.44 461.336 51.642 C 467.87 52.656 475.977 55.14 478.159 57.25 C 479.31 58.363 479.257 59.879 478.749 60.791 C 478.175 61.823 476.426 62.818 474.322 62.857 C 470.984 62.919 465.318 58.992 459.566 58.135 C 452.69 57.111 443.649 56.571 435.365 58.135 C 426.373 59.833 411.568 69.52 407.623 68.76 C 405.793 68.407 405.482 66.046 405.557 64.923 C 405.625 63.911 406.315 63.328 407.623 62.267 C 410.038 60.308 416.63 56.373 421.199 54.594 C 425.489 52.924 428.792 52.204 434.185 51.642 Z M 251.319 72.266 C 284.004 69.042 324.697 68.46 357.54 72.266 C 387.82 75.775 415.249 88.636 441.842 92.499 C 466.144 96.029 494.776 96.493 510.97 95.871 C 521.395 95.47 530.851 90.647 533.732 92.499 C 535.495 93.632 535.091 98.01 533.732 99.243 C 532.082 100.74 528.618 99.053 522.773 99.243 C 511.173 99.62 485.981 104.689 462.075 102.615 C 431.538 99.965 387.933 82.837 352.482 79.01 C 342.636 77.947 332.791 77.241 323.019 76.851 C 323.014 77.647 322.935 78.395 322.829 78.845 C 322.656 79.582 322.753 79.62 321.781 80.313 C 318.863 82.392 304.784 89.393 296.203 92.053 C 288.006 94.594 279.774 95.408 271.463 96.247 C 263.141 97.086 254.503 97.526 246.304 97.085 C 238.298 96.654 229.654 95.174 222.823 93.731 C 216.997 92.5 209.016 91.309 207.518 89.328 C 207.432 89.214 207.363 89.092 207.311 88.962 C 195.71 91.967 184.488 94.731 173.76 95.871 C 151.835 98.201 129.611 97.487 113.063 95.871 C 100.136 94.609 95.872 90.638 81.028 89.127 C 57.794 86.761 -11.41 92.505 -19.292 87.441 C -21.977 85.715 -21.006 82.255 -18.449 80.696 C -12.666 77.171 10.984 79.916 33.818 80.696 C 67.208 81.838 130.143 91.567 168.702 89.127 C 200.631 87.106 221.517 75.206 251.319 72.266 Z M 254.691 79.01 C 242.779 80.217 231.077 82.877 219.688 85.762 C 225.894 87.125 234.605 89.651 240.853 90.376 C 248.268 91.237 253.908 91.36 261.819 90.796 C 271.266 90.122 284.561 88.637 294.106 85.764 C 301.148 83.643 310.12 79.304 314.659 76.594 C 294.011 76.145 273.788 77.075 254.691 79.01 Z M 504.259 79.63 C 506.695 79.617 508.821 79.764 509.492 80.837 C 510.163 81.911 510.315 84.723 508.285 86.07 C 503.999 88.914 481.841 89.493 473.668 89.29 C 468.354 89.159 463.315 88.945 461.995 87.278 C 461.032 86.063 461.381 83.12 463.202 82.045 C 466.526 80.084 480.155 83.381 487.353 82.85 C 493.638 82.386 500.379 79.65 504.259 79.63 Z M -13.976 114.059 C -10.54 113.368 15.387 114.965 28.618 116.852 C 40.849 118.596 53.791 123.267 62.834 124.533 C 69.453 125.459 71.679 125.513 78.894 125.231 C 89.913 124.801 113.269 122.348 124.98 120.343 C 133.373 118.907 141.486 114.227 144.531 115.455 C 146.345 116.187 147.299 119.149 146.277 120.692 C 144.61 123.21 137.113 125.022 128.471 126.628 C 114.318 129.257 82.556 132.629 64.23 131.516 C 49.087 130.595 38.377 125.285 25.127 123.136 C 11.731 120.964 -12.518 121.362 -15.722 118.598 C -16.981 117.511 -15.06 115.482 -14.674 114.757 C -14.454 114.342 -14.738 114.212 -13.976 114.059 Z M 336.243 95.178 C 360.683 93.883 373.671 94.113 394.408 96.995 C 417.567 100.215 443.322 111.817 468.931 115.172 C 495.091 118.599 542.927 112.241 549.816 116.989 C 552.452 118.806 551.548 122.608 548.907 124.26 C 543.255 127.794 517.34 124.786 499.831 124.26 C 480.617 123.682 458.655 124.149 438.031 120.625 C 416.851 117.005 391.771 105.054 374.414 102.448 C 361.317 100.482 357.051 101.463 341.696 102.448 C 316.612 104.059 260.512 109.749 230.82 115.172 C 208.077 119.326 179.718 131.929 175.382 129.713 C 173.433 128.717 175.561 124.759 178.109 122.442 C 182.446 118.498 191.032 114.943 205.373 111.536 C 231.527 105.324 302.341 96.974 336.243 95.178 Z M 48.006 96.268 C 55.363 93.72 102.754 101.74 107.08 106.265 C 108.904 108.174 107.186 111.297 104.353 112.627 C 98.535 115.358 72.982 113.221 62.547 110.809 C 54.922 109.047 46.762 105.631 45.28 102.63 C 44.292 100.631 44.903 97.343 48.006 96.268 Z M 282.976 120.73 C 306.77 117.807 325.246 117.384 347.382 120.73 C 371.148 124.322 402.588 139.683 420.988 143.075 C 433.435 145.369 438.671 145.534 449.905 144.389 C 464.032 142.949 487.105 134.183 499.853 132.559 C 508.774 131.423 517.665 131.122 520.883 132.559 C 522.512 133.287 522.761 134.732 522.855 135.845 C 522.945 136.924 523.466 138.006 521.54 139.131 C 515.329 142.762 474.288 149.248 456.477 150.961 C 442.8 152.276 436.627 153.252 422.303 150.961 C 409.453 148.906 390.873 141.467 372.943 135.346 C 372.885 135.912 372.659 136.456 372.224 136.897 C 369.469 139.687 356.039 141.665 343.964 142.812 C 327.185 144.405 294.252 143.589 278.244 142.812 C 267.464 142.288 256.289 142.786 253.928 140.183 C 252.95 139.105 252.723 137.113 253.73 135.483 C 235.591 140.861 215.878 147.158 194.911 149.647 C 154.285 154.469 94.536 154.542 56.898 150.961 C 27.466 148.161 -9.361 139.25 -16.051 135.188 C -18.027 133.989 -17.366 132.998 -17.366 131.902 C -17.366 130.807 -18.094 129.144 -16.051 128.616 C -8.813 126.746 37.427 141.695 66.099 144.389 C 96.222 147.219 139.091 144.823 160.736 144.389 C 174.213 144.119 176.335 145.109 189.653 143.075 C 211.163 139.789 255.068 124.158 282.976 120.73 Z M 343.439 127.302 C 323.196 124.209 309.542 124.645 288.234 127.302 C 280.625 128.251 272.604 130.145 264.207 132.464 C 283.105 131.98 324.991 137.305 338.707 136.24 C 347.596 135.549 350.206 132.94 355.794 132.297 C 357.549 132.095 359.608 131.859 361.663 131.687 C 355.201 129.731 349.017 128.154 343.439 127.302 Z M -27.589 143.6 C -20.819 141.906 19.84 156.241 46.675 159.373 C 76.149 162.814 118.217 163.78 142.627 162.002 C 160.081 160.731 167.003 155.589 183.373 154.116 C 204.251 152.236 232.558 152.394 259.609 154.116 C 289.194 155.999 319.895 163.402 354.246 165.945 C 390.013 168.594 462.028 165.159 477.371 168.417 C 490.418 167.14 523.282 166.521 527.922 169.1 C 529.935 170.218 530.285 172.514 528.58 173.7 C 523.946 176.923 478.029 178.495 472.06 175.672 C 471.702 175.503 471.419 175.298 471.197 175.069 C 448.633 177.434 383.403 174.777 348.988 172.517 C 314.375 170.245 282.609 162.513 254.351 160.688 C 240.949 159.822 228.217 159.405 216.27 159.483 C 217.505 160.135 218.338 160.939 218.585 161.608 C 219.046 162.856 218.044 164.308 215.299 166.208 C 208.457 170.942 178.094 184.252 164.037 187.239 C 153.605 189.455 142.21 189.755 137.749 187.239 C 136.642 186.614 135.649 185.547 134.947 184.373 C 131.15 183.079 126.753 181.106 125.262 180.141 C 123.887 179.251 124.034 178.911 123.29 177.512 C 122.55 176.121 120.785 172.832 119.627 170.044 C 103.715 170.524 86.242 170.241 69.02 168.574 C 38.954 165.663 -19.542 154.73 -27.589 150.172 C -29.717 148.967 -28.903 147.982 -28.903 146.886 C -28.903 145.791 -29.575 144.097 -27.589 143.6 Z M 166.666 178.038 C 177.983 175.252 194.95 163.759 205.13 159.708 C 199.421 159.906 193.917 160.231 188.631 160.688 C 172.233 162.107 162.366 167.116 145.255 168.574 C 139.701 169.047 133.706 169.452 127.397 169.746 C 127.476 170.195 127.59 170.619 127.891 170.94 C 128.769 171.878 130.42 172.115 131.834 172.912 C 133.455 173.824 135.641 174.453 137.092 176.198 C 137.518 176.71 138.04 177.454 138.57 178.301 C 145.213 178.061 157.838 180.211 166.666 178.038 Z M 337.159 179.352 C 340.087 179.616 341.364 181.279 341.759 182.638 C 342.135 183.933 342.021 185.777 339.787 187.239 C 334.473 190.715 301.76 197.809 297.069 196.439 C 295.353 195.938 295.755 194.249 295.755 193.153 C 295.755 192.058 295.391 191.021 297.069 189.867 C 301.558 186.78 330.662 178.766 337.159 179.352 Z M 207.69 173.306 C 210.384 172.691 219.742 179.828 226.749 181.192 C 234.312 182.666 247.182 181.796 251.722 181.192 C 253.938 180.898 254.513 179.474 255.665 179.878 C 256.968 180.335 260.073 183.27 258.951 184.478 C 256.558 187.056 230.488 189.325 221.491 187.764 C 215.166 186.667 209.863 182.832 207.69 180.535 C 206.408 179.181 206.346 177.831 206.375 176.592 C 206.403 175.43 206.358 173.61 207.69 173.306 Z M -18.096 181.455 C -14.322 180.124 -1.561 185.425 12.793 186.713 C 35.499 188.751 83.343 186.888 111.373 189.342 C 134.329 191.351 144.119 196.235 170.521 198.543 C 209.943 201.988 289.416 207.806 333.507 203.8 C 367.707 200.693 391.989 187.685 417.629 184.084 C 440.058 180.934 463.847 179.851 479.406 181.455 C 485.908 182.126 492.878 183.53 497.952 185.14 C 505.782 184.402 526.059 186.703 528.288 188.947 C 529.487 190.155 528.398 192.674 526.316 193.548 C 523.523 194.72 512.376 194.122 503.919 192.864 C 503.665 193.023 503.381 193.165 503.066 193.285 C 496.533 195.78 468.155 186.478 445.232 188.027 C 415.766 190.019 370.042 206.979 338.765 210.372 C 312.595 213.211 296.45 211.148 269.102 210.372 C 234.835 209.4 178.853 207.122 146.862 203.8 C 123.255 201.349 111.389 196.418 90.343 194.599 C 66.105 192.505 27.949 195.101 8.849 193.285 C -3.509 192.109 -14.658 190.289 -18.096 188.027 C -19.611 187.031 -19.41 185.837 -19.41 184.741 C -19.41 183.646 -19.673 182.012 -18.096 181.455 Z M -18.877 200.868 C -10.782 198.902 33.364 217.163 59.074 220.355 C 83.921 223.441 105.937 221.125 132.849 220.355 C 163.288 219.484 204.424 213.166 233.071 214.787 C 256.735 216.127 272.083 223.971 294.318 225.923 C 318.99 228.09 350.35 227.555 375.053 225.923 C 397.253 224.457 415.987 218.954 436.3 217.571 C 456.352 216.206 482.078 215.663 496.155 217.571 C 505.437 218.83 514.424 220.987 516.338 223.835 C 517.54 225.624 516.388 229.226 514.25 230.099 C 510.732 231.536 501.503 225.608 491.979 224.531 C 478.82 223.044 458.15 223.446 440.476 224.531 C 422.006 225.666 405.951 230.2 383.405 231.491 C 355.09 233.113 310.057 234.069 281.79 231.491 C 259.18 229.429 241.511 222.05 224.719 220.355 C 210.617 218.932 201.174 219.446 187.136 220.355 C 170.657 221.423 151.55 226.096 131.457 227.315 C 109.209 228.665 83.758 230.629 59.074 227.315 C 33.014 223.817 -15.87 211.196 -20.965 205.74 C -22.661 203.923 -21.605 201.53 -18.877 200.868 Z M -17.345 226.758 C -11.597 225.012 31.029 244.57 50.165 247.638 C 65.249 250.056 72.663 247.917 89.141 247.638 C 112.08 247.25 161.28 243.072 178.227 244.854 C 186.907 245.767 193.72 247.849 194.235 249.726 C 194.638 251.195 191.726 253.559 186.579 254.598 C 174.069 257.124 127.454 251.64 103.061 251.814 C 82.522 251.961 65.07 255.836 48.773 254.598 C 34.378 253.504 21.232 250.405 9.798 246.246 C -0.519 242.494 -14.419 235.504 -17.345 231.63 C -18.744 229.778 -19.318 227.358 -17.345 226.758 Z M 458.015 239.843 C 477.787 239.443 530.392 238.427 536.661 242.627 C 538.841 244.087 537.676 247.017 535.965 248.195 C 532.996 250.239 523.277 248.329 513.694 248.195 C 500.005 248.004 479.015 244.933 459.407 246.803 C 437.216 248.918 412.062 259.078 387.024 262.115 C 361.089 265.26 329.827 261.831 306.289 264.899 C 286.2 267.516 272.691 275.231 253.394 277.426 C 232.007 279.859 188.605 281.524 183.099 277.426 C 180.878 275.773 181.983 272.118 185.187 270.466 C 193.098 266.39 235.282 272.971 254.786 270.466 C 270.703 268.423 278.089 261.902 295.153 259.331 C 318.243 255.851 360.919 258.927 384.24 255.155 C 401.755 252.322 413.068 245.144 425.999 242.627 C 437.445 240.399 444.196 240.122 458.015 239.843 Z M 78.562 260.166 C 89.899 258.891 95.648 257.914 109.185 260.166 C 130.046 263.635 164.628 281.644 195.488 286.613 C 228.375 291.91 267.7 291.227 301.278 289.397 C 332.936 287.673 368.548 278.605 391.757 276.87 C 408.265 275.635 415.826 278.885 430.732 276.87 C 449.153 274.379 479.739 262.319 494.763 260.166 C 500.672 259.319 505.664 259.066 509.625 259.284 C 509.989 259.179 510.325 259.101 510.631 259.052 C 513.205 258.641 515.577 259.335 516.516 260.44 C 518.657 261.195 520.144 262.374 520.514 263.646 C 520.912 265.017 520.299 267.601 518.426 268.518 C 517.151 269.142 515.214 268.875 512.756 268.399 C 512.108 269.017 511.396 269.62 510.631 270.188 C 503.413 275.545 483.939 284.152 470.264 286.892 C 457.014 289.546 435.119 289.425 429.897 286.892 C 428.639 286.282 427.7 285.295 427.338 284.306 C 415.732 285.089 408.769 282.762 394.54 283.829 C 371.605 285.55 332.945 294.335 304.062 296.357 C 276.954 298.255 251.327 298.065 226.111 296.357 C 201.73 294.706 176.146 292.252 155.12 286.613 C 149.6 285.133 144.112 282.968 138.786 280.575 C 138.384 280.976 137.892 281.328 137.303 281.602 C 128.499 285.703 61.131 282.043 55.873 278.122 C 54.466 277.073 55.01 275.278 56.583 274.051 C 56.014 273.737 55.531 273.412 55.192 273.096 C 49.082 274.734 42.827 276.18 36.802 276.87 C 19.221 278.882 -12.091 280.5 -18.877 276.87 C -21.882 275.262 -22.995 271.515 -20.965 269.91 C -16.402 266.303 16.897 271.725 34.019 269.91 C 49.905 268.225 65.267 261.661 78.562 260.166 Z M 115.032 276.034 C 119.066 276.036 123.285 275.5 127.075 274.971 C 118.797 270.875 111.241 267.104 105.009 265.734 C 96.249 263.808 92.875 264.632 84.13 265.734 C 78.458 266.449 71.471 268.476 63.951 270.638 C 64.903 271.315 65.628 271.98 65.863 272.479 C 79.116 272.623 103.614 276.031 115.032 276.034 Z M 220.543 237.616 C 227.838 234.521 277.469 241.3 282.486 245.272 C 284.303 246.71 283.492 249.061 281.79 250.144 C 278.388 252.309 263.897 250.939 253.951 250.144 C 242.936 249.263 221.679 248.095 218.455 244.576 C 216.755 242.719 217.457 238.925 220.543 237.616 Z M -18.459 293.573 C -12.525 291.142 11.525 304.086 47.66 307.493 C 120.604 314.371 359.219 317.907 438.805 313.061 C 482.234 310.417 514.269 298.908 523.716 299.141 C 526.413 299.208 526.825 299.579 527.196 300.533 C 527.642 301.68 528.097 304.31 525.108 306.101 C 516.461 311.283 470.821 317.636 441.589 320.021 C 410.668 322.544 388.841 320.481 344.151 320.021 C 274.008 319.299 103.498 321.272 43.484 314.453 C 11.204 310.785 -12.806 304.114 -18.459 299.141 C -20.59 297.267 -20.645 294.469 -18.459 293.573 Z M 209.964 331.435 C 222.638 330.063 241.621 329.389 257.292 331.435 C 273.176 333.509 281.794 341.366 304.619 343.963 C 342.158 348.234 435.744 338.193 474.44 343.963 C 499.134 347.645 522.783 357.094 526.639 362.059 C 528.22 364.094 527.119 366.986 524.551 367.626 C 518.339 369.175 497.233 354.315 473.048 350.923 C 435.348 345.635 346.919 354.879 308.795 350.923 C 298.035 349.806 289.859 347.647 282.607 345.405 C 282.416 346.776 281.63 348.241 280.252 349.118 C 274.604 352.715 247.999 352.698 233.4 351.987 C 219.945 351.331 198.222 348.667 195.63 345.772 C 194.49 344.497 195.539 342.369 198.021 341.469 C 204.475 339.129 236.627 345.399 251.567 345.294 C 258.716 345.243 267.078 343.394 273.261 342.423 C 267.664 340.662 262.192 339.138 255.9 338.395 C 239.349 336.44 219.304 336.848 207.18 338.395 C 198.644 339.484 199.882 342.587 187.693 343.963 C 157.55 347.364 16.786 348.024 -7.184 345.355 C -14.776 344.509 -16.847 343.375 -17.624 341.875 C -18.145 340.868 -18.554 339.371 -15.536 338.395 C -1.133 333.739 153.235 340.171 186.301 337.003 C 200.481 335.644 200.256 332.486 209.964 331.435 Z M 484.741 325.867 C 490.208 325.904 494.454 326.508 495.18 327.955 C 495.758 329.105 494.85 331.456 491.7 332.827 C 483.526 336.386 430.62 340.965 426.974 338.395 C 425.444 337.317 428.231 334.432 431.845 332.827 C 439.811 329.289 474.324 325.796 484.741 325.867 Z M 477.92 277.148 C 481.106 276.294 480.163 275.833 482.792 274.364 C 484.859 273.209 488.71 270.738 492.974 268.109 C 482.403 270.299 467.376 275.181 453.578 279.004 C 463.982 278.51 474.344 278.106 477.92 277.148 Z M 335.242 294.408 C 341.513 291.885 379.439 298.922 388.137 298.584 C 391.874 298.439 393.654 296.354 394.401 297.192 C 395.186 298.074 394.925 302.554 392.313 304.152 C 387.425 307.144 367.862 306.594 357.514 305.544 C 348.429 304.623 335.145 301.98 333.154 299.28 C 332.087 297.832 332.747 295.412 335.242 294.408 Z M -19.99 353.707 C -14.336 351.532 6.76 359.368 24.553 360.667 C 47.17 362.317 76.729 361.052 106.68 360.667 C 140.513 360.231 191.142 355.777 218.038 357.883 C 236.109 359.297 238.232 364.173 258.405 366.234 C 293.832 369.855 391.015 366.343 426.834 370.41 C 447.555 372.763 454.742 378.55 468.594 380.154 C 482.114 381.72 499.61 378.274 508.961 380.154 C 515.192 381.407 521.049 384.12 522.185 386.418 C 522.941 387.949 522.61 390.28 520.097 391.29 C 513.716 393.855 482.089 389.713 465.81 387.114 C 451.394 384.813 445.685 379.607 426.834 377.37 C 395.596 373.665 322.726 377.438 284.853 374.586 C 256.268 372.434 237.139 366.399 215.254 364.843 C 195.117 363.41 182.747 364.709 158.183 364.843 C 123.091 365.034 50.407 368.382 18.985 366.234 C -0.407 364.909 -18.811 362.776 -22.078 359.275 C -23.578 357.667 -22.505 354.674 -19.99 353.707 Z M 145.933 377.927 C 181.634 376.327 228.521 377.103 272.603 382.103 C 319.88 387.465 413.827 404.837 420.849 410.639 C 422.502 412.004 420.109 413.303 418.761 414.119 C 416.839 415.281 415.638 415.938 409.017 415.511 C 389.181 414.23 304.193 392.562 258.684 387.671 C 218.992 383.405 186.962 384.018 150.109 384.887 C 112.295 385.779 65.618 393.602 34.575 393.239 C 11.019 392.963 -19.714 390.448 -23.192 386.975 C -24.593 385.576 -23.157 383.163 -19.712 382.103 C -9.432 378.94 43.542 388.626 72.159 387.671 C 98.443 386.794 117.082 379.221 145.933 377.927 Z M 16.758 399.363 C 62.35 396.147 156.381 394.578 201.891 399.363 C 233.244 402.66 248.693 408.153 272.882 416.067 C 286.018 420.365 301.032 427.442 315.297 434.116 C 321.186 432.026 331.472 430.14 339.418 428.873 C 352.302 426.819 369.108 426.553 383.961 426.089 C 398.803 425.626 415.405 424.785 428.505 426.089 C 439.774 427.212 455.761 429.119 458.432 432.353 C 458.492 432.425 458.547 432.5 458.597 432.578 C 491.866 421.348 523.522 409.978 526.917 410.499 C 528.933 410.809 523.965 414.354 520.654 416.067 C 515.499 418.734 501.527 421.181 496.294 423.027 C 493.192 424.122 494.034 424.162 490.03 425.811 C 479.534 430.134 440.922 447.908 419.039 453.651 C 400.07 458.629 388.123 463.581 366.144 460.61 C 346.533 457.96 316.728 444.653 289.44 432.856 C 289.155 434.26 288.209 435.75 286.523 436.668 C 278.398 441.094 238.307 441.477 214.14 439.452 C 189.589 437.396 168.749 427.099 140.366 424.141 C 106.367 420.598 49.024 419.775 22.048 422.749 C 5.015 424.626 -8.598 433.724 -14.144 432.493 C -16.807 431.901 -18.71 429.323 -17.624 427.621 C -15.332 424.027 1.652 418.104 19.264 415.789 C 47.428 412.087 112.25 413.323 144.541 417.181 C 162.021 419.269 173.891 424.494 186.444 428.101 C 188.018 425.641 198.245 422.254 205.033 421.023 C 212.535 419.661 221.862 419.519 229.894 421.023 C 237.96 422.534 251.149 427.179 253.32 430.107 C 253.855 430.829 254.017 431.739 253.851 432.549 C 254.544 432.53 255.227 432.511 255.9 432.493 C 264.238 432.267 274.368 430.112 281.226 429.325 C 268.232 423.783 256.144 418.893 246.434 416.067 C 223.555 409.408 206.003 406.542 190.755 404.931 C 179.064 403.696 176.614 404.846 161.524 404.931 C 133.128 405.092 60.215 403.953 19.542 406.323 C -13.977 408.277 -60.225 419.451 -67.457 416.067 C -69.859 414.943 -68.749 411.586 -67.457 410.499 C -65.63 408.963 -61.207 411.135 -54.233 410.499 C -40.508 409.249 -14.466 401.567 16.758 399.363 Z M 200.221 431.101 C 214.222 433.007 229.969 433.067 243.631 432.799 C 237.86 430.978 230.706 428.32 226.069 427.716 C 219.365 426.842 214.013 426.958 207.902 427.716 C 204.83 428.097 200.981 429.477 197.468 430.678 C 198.374 430.833 199.291 430.974 200.221 431.101 Z M 352.224 449.475 C 366.223 453.415 369.177 455.591 385.632 453.651 C 397.447 452.258 421.181 445.003 445.894 436.827 C 441.277 435.373 435.714 433.596 429.897 433.049 C 412.598 431.423 379.558 431.266 358.906 433.049 C 348.628 433.937 336.511 437.334 327.118 439.59 C 336.469 443.838 345.12 447.476 352.224 449.475 Z M 124.497 449.196 C 171.165 448.207 225.911 449.441 262.303 451.98 C 289.402 453.871 308.891 455.827 327.726 460.332 C 343.814 464.18 356.323 473.238 369.485 475.644 C 381.223 477.79 388.735 476.872 402.892 475.644 C 422.863 473.912 459.518 467.918 480.843 463.116 C 497.66 459.329 517.283 449.208 522.602 450.588 C 524.892 451.183 525.977 453.694 524.69 455.46 C 521.701 459.563 500.313 465.9 483.627 470.076 C 462.465 475.372 426.669 480.809 405.676 482.604 C 389.847 483.957 379.932 484.919 366.701 482.604 C 352.589 480.134 339.897 471.149 323.55 467.292 C 304.792 462.866 286.052 460.831 259.519 458.94 C 223.876 456.4 160.645 454.809 124.497 456.156 C 97.158 457.175 80.902 461.926 57.682 463.116 C 33.216 464.37 -10.842 466.633 -18.877 463.116 C -21.638 461.907 -23.118 459.695 -20.965 458.244 C -12.858 452.781 76.776 450.208 124.497 449.196 Z M 510.91 432.493 C 514.441 432.505 516.734 434.648 517.174 435.973 C 517.524 437.028 517.167 438.148 515.086 439.452 C 509.404 443.015 470.131 455.001 467.062 453.372 C 465.552 452.571 468.482 448.782 471.934 446.412 C 478.438 441.948 503.788 432.467 510.91 432.493 Z M 219.708 465.9 C 231.476 464.629 234.06 464.459 244.764 465.9 C 260.254 467.986 285.404 478.2 306.011 481.212 C 326.47 484.202 359.17 481.984 367.954 483.996 C 371.314 484.765 370.145 485.523 372.826 486.78 C 378.066 489.236 391.704 496.147 400.665 497.915 C 408.817 499.524 414.753 499.108 424.329 497.915 C 437.101 496.325 455.8 489.097 471.656 486.78 C 487.353 484.485 513.166 481.514 518.983 483.996 C 521.405 485.029 522.561 487.522 521.071 488.868 C 517.344 492.233 485.213 490.909 468.872 493.74 C 453.559 496.392 438.364 503.194 425.721 504.875 C 415.246 506.269 408.753 506.756 397.881 504.875 C 383.835 502.446 363.897 490.843 347.77 488.172 C 332.896 485.708 321.884 489.874 304.619 488.172 C 282.131 485.955 248.661 472.566 222.492 472.86 C 197.749 473.138 182.22 484.91 151.501 488.172 C 108.069 492.783 -7.415 496.012 -21.104 490.956 C -24.502 489.7 -25.402 487.436 -23.192 486.084 C -14.627 480.844 90.101 487.028 133.406 482.604 C 167.776 479.092 200.266 467.999 219.708 465.9 Z M 191.109 492.611 C 218.861 490.453 298.94 493.47 321.216 496.808 C 331.368 498.329 336.93 500.202 338.529 502.579 C 339.48 503.993 339.942 506.185 336.955 507.301 C 325.514 511.574 223.099 498.314 194.257 499.956 C 178.589 500.848 176.165 502.075 163.828 506.251 C 146.715 512.045 106.644 536.727 99.824 535.631 C 97.28 535.222 96.529 532.295 98.25 529.86 C 102.783 523.444 141.747 506.092 158.582 499.956 C 171.291 495.324 175.013 493.863 191.109 492.611 Z M 449.846 363.078 C 453.761 360.625 483.06 362.895 486.181 365.469 C 487.523 366.575 487 368.814 485.225 369.772 C 481.141 371.975 453.687 371.589 449.846 368.816 C 447.992 367.476 447.977 364.25 449.846 363.078 Z M 440.572 398.84 C 446.396 396.538 477.264 401.299 486.468 400.752 C 491.419 400.457 494.058 398.044 496.03 398.84 C 497.53 399.445 498.825 401.925 498.42 403.142 C 497.952 404.548 495.935 405.732 492.205 406.489 C 484.319 408.09 454.979 407.914 446.309 406.489 C 441.833 405.753 438.819 404.644 438.181 403.142 C 437.675 401.951 438.188 399.782 440.572 398.84 Z M 277.639 405.15 C 281.308 404.309 307.027 407.34 316.842 407.063 C 323.679 406.869 331.165 403.76 332.619 405.15 C 333.618 406.106 332.351 409.479 330.229 410.887 C 326.759 413.19 317.268 413.65 309.193 413.756 C 299.431 413.883 277.998 412.976 275.248 410.409 C 274.021 409.264 276.18 406.973 276.683 406.106 C 276.992 405.572 276.685 405.369 277.639 405.15 Z M 425.464 385.836 C 427.42 385.472 429.207 385.68 429.767 386.792 C 430.509 388.266 429.249 393.337 427.376 395.397 C 425.394 397.578 421.996 398.483 417.814 399.222 C 412.053 400.24 400.628 400.943 394.866 399.222 C 390.371 397.879 385.844 394.464 384.826 392.051 C 384.093 390.31 384.781 387.247 386.261 386.792 C 388.476 386.11 395.295 392.429 399.647 393.485 C 403.561 394.435 407.141 394.517 411.121 393.485 C 415.697 392.299 422.166 386.448 425.464 385.836 Z M 20.491 431.732 C 23.886 431.652 35.452 440.719 41.527 442.25 C 46.233 443.436 49.038 443.088 53.957 442.25 C 60.425 441.149 72.561 436.251 77.383 434.601 C 80.048 433.688 81.532 432.181 82.642 432.688 C 83.663 433.155 84.265 435.697 84.076 436.991 C 83.896 438.236 83.498 439.142 81.686 440.338 C 77.879 442.851 64.433 447.615 56.825 448.943 C 50.265 450.089 44.699 450.494 38.658 448.943 C 32.107 447.261 21.701 441.429 19.056 438.425 C 17.672 436.853 17.785 435.268 18.1 434.123 C 18.384 433.092 18.928 431.769 20.491 431.732 Z M 465.356 196.262 C 468.801 196.057 472.393 197.687 473.004 199.203 C 473.546 200.547 472.323 202.742 470.062 204.499 C 465.987 207.665 452.54 212.515 445.351 213.913 C 439.575 215.036 435.168 215.34 430.053 213.913 C 424.385 212.331 414.521 206.991 412.991 203.91 C 412.068 202.053 412.712 199.365 414.756 198.615 C 418.713 197.163 434.308 206.291 442.998 205.675 C 451.076 205.103 460.037 196.577 465.356 196.262 Z" style="stroke-width: 2px; fill: rgb(45, 20, 3);" transform="matrix(1, 0, 0, 1, -1.1368683772161603e-13, -2.842170943040401e-14)"/>
</g>
</svg>
