<?xml version="1.0" encoding="utf-8"?>
<svg viewBox="86.2 262.6087 133.56 171.0133" xmlns="http://www.w3.org/2000/svg">
  <ellipse style="stroke: rgb(0, 0, 0); fill: rgb(145, 128, 128);" cx="152.98" cy="356.621" rx="66.78" ry="77.001"/>
  <path style="stroke: rgb(0, 0, 0); fill: rgb(255, 255, 255); stroke-width: 2px;" d="M 192.99 262.752 C 206.526 260.646 201.991 282.442 196.97 283.223 L 108.548 283.223 C 97.808 283.223 112.595 264.458 120.773 264.458 L 192.99 262.752 Z"/>
  <path style="stroke: rgb(0, 0, 0); fill: rgb(255, 255, 255); stroke-width: 2px;" d="M 141.362 282.908 L 130.872 313.187 C 134.859 317.396 145.474 309.285 143.995 307.724 C 146.172 309.767 149.68 313.937 152.154 313.604 C 155.156 313.893 163.202 311.512 161.558 308.875 C 167.243 316.898 168.937 315.346 172.249 314.542 C 174.903 311.967 178.763 310.374 176.497 307.911 C 176.425 310.519 185.212 318.17 185.334 313.784 L 176.274 283.385 L 141.362 282.908 Z"/>
</svg>
