<?xml version="1.0" encoding="utf-8"?>
<svg viewBox="77.5216 150.945 222.2507 330.8367" width="222.2507px" height="330.8367px" xmlns="http://www.w3.org/2000/svg" xmlns:bx="https://boxy-svg.com"><defs><bx:export><bx:file format="svg"/></bx:export></defs><ellipse style="stroke: rgb(0, 0, 0); fill: rgb(145, 128, 128); stroke-width: 5px;" cx="180.78" cy="381.732" rx="48.729" ry="44.3" transform="matrix(0.9999999999999999, 0, 0, 0.9999999999999999, -1.1368683772161603e-13, -2.842170943040401e-14)"/><path style="stroke: rgb(0, 0, 0); fill: rgb(255, 255, 255); stroke-width: 2px;" d="M 222.662 322.269 C 236.073 320.077 230.975 342.046 226.498 343.515 L 138.955 343.515 C 128.722 343.515 143.433 323.738 151.088 323.738 L 222.662 322.269 Z" transform="matrix(0.9999999999999999, 0, 0, 0.9999999999999999, -1.1368683772161603e-13, -2.842170943040401e-14)"/><path style="stroke: rgb(0, 0, 0); fill: rgb(255, 255, 255); stroke-width: 2px;" d="M 158.448 342.927 L 143.778 368.419 C 149.287 372.072 163.959 365.386 162.12 363.566 C 164.877 365.386 170.386 369.038 174.061 369.038 C 177.736 369.038 189.646 367.202 186.893 364.785 C 195.157 371.453 196.995 370.256 202.502 369.639 C 206.178 367.82 211.689 366.002 208.013 364.169 C 208.013 366.002 219.93 372.671 220.844 369.038 L 208.013 343.543 L 158.448 342.927 Z" transform="matrix(0.9999999999999999, 0, 0, 0.9999999999999999, -1.1368683772161603e-13, -2.842170943040401e-14)"/></svg>
