<?xml version="1.0" encoding="utf-8"?>
<svg viewBox="77.5216 150.945 222.2507 330.8367" xmlns="http://www.w3.org/2000/svg">
  <ellipse style="stroke: rgb(0, 0, 0); fill: rgb(145, 128, 128); stroke-width: 5px;" cx="180.78" cy="381.732" rx="48.729" ry="44.3" transform="matrix(0.9999999999999999, 0, 0, 0.9999999999999999, -1.1368683772161603e-13, -2.842170943040401e-14)"/>
  <ellipse style="stroke: rgb(0, 0, 0); fill: rgb(176, 121, 37); stroke-width: 5px;" cx="182.258" cy="274.456" rx="93.328" ry="67.919" transform="matrix(0.9999999999999999, 0, 0, 0.9999999999999999, -1.1368683772161603e-13, -2.842170943040401e-14)"/>
  <ellipse style="stroke: rgb(0, 0, 0); fill: rgb(255, 237, 205); stroke-width: 5px;" cx="139.357" cy="254.708" rx="35.924" ry="29.306" transform="matrix(0.9999999999999999, 0, 0, 0.9999999999999999, -1.1368683772161603e-13, -2.842170943040401e-14)"/>
  <ellipse style="stroke: rgb(0, 0, 0); fill: rgb(255, 241, 185); stroke-width: 5px;" cx="226.051" cy="255.373" rx="32.324" ry="30.736" transform="matrix(0.9999999999999999, 0, 0, 0.9999999999999999, -1.1368683772161603e-13, -2.842170943040401e-14)"/>
  <ellipse style="stroke: rgb(0, 0, 0); fill: rgb(176, 121, 37); stroke-width: 5px; transform-origin: 215.335px 286.459px;" cx="252.742" cy="296.778" rx="33.75" ry="13.313" transform="matrix(0.867579102516, 0.497299998999, -0.694736123085, 0.754406988621, 7.158420446199, 50.178025274703)"/>
  <ellipse style="stroke: rgb(0, 0, 0); fill: rgb(176, 121, 37); stroke-width: 5px; transform-origin: 106.519px 297.762px;" cx="68.757" cy="300.819" rx="35.963" ry="14.377" transform="matrix(0.805493056774, -0.592604994774, 0.784873902798, 0.664040029049, 42.904621921177, 45.315413360386)"/>
  <path stroke-width="0" d="M 156.531 239.895 C 158.291 239.545 160.949 239.665 162.617 240.233 C 164.076 240.73 165.285 241.744 166.167 242.769 C 166.999 243.736 167.567 244.9 167.857 246.15 C 168.166 247.477 168.281 249.11 167.857 250.545 C 167.398 252.102 165.826 254.145 164.983 255.109 C 164.425 255.748 164.136 255.476 163.462 256.293 C 162.206 257.815 159.823 263.209 157.746 266.169 C 158.013 266.795 158.199 267.389 158.39 268.126 C 158.82 269.786 159.064 271.595 158.729 273.198 C 158.392 274.808 157.341 276.703 156.362 277.762 C 155.538 278.653 154.684 279.102 153.488 279.453 C 152.036 279.879 149.751 280.167 148.078 279.791 C 146.43 279.42 145.134 278.928 143.514 277.255 C 142.129 275.825 140.763 273.176 139.268 270.301 C 137.576 269.817 135.869 269.319 133.878 269.648 C 129.731 270.332 122.887 275.458 119.678 276.41 C 117.808 276.964 117.04 277.067 115.621 276.748 C 113.965 276.376 111.588 275.44 110.38 273.874 C 109.043 272.14 108.031 268.657 108.351 266.436 C 108.653 264.347 109.755 262.672 111.901 260.857 C 114.933 258.294 122.216 254.758 127.087 253.284 C 125.08 251.009 123.273 249.065 122.214 248.009 C 121.032 246.832 120.504 247.21 119.847 246.15 C 118.89 244.605 117.69 240.827 117.818 238.712 C 117.926 236.933 118.759 235.3 119.847 234.147 C 120.947 232.981 122.801 232.117 124.411 231.78 C 126.014 231.445 127.788 231.473 129.483 232.119 C 131.449 232.867 133.98 235.017 135.399 236.514 C 136.555 237.733 136.872 239.221 137.766 240.233 C 138.58 241.154 139.128 240.969 140.471 242.431 C 141.826 243.905 144.575 247.362 147.434 251.116 C 149.233 248.171 150.865 243.487 152.474 241.923 C 153.896 240.541 154.967 240.206 156.531 239.895 Z M 246.872 237.122 C 249.17 237.248 252.955 238.989 254.479 240.673 C 255.781 242.111 256.391 243.871 256.17 246.082 C 255.864 249.136 252.703 254.657 250.76 257.578 C 249.214 259.902 249.009 260.848 245.857 262.818 C 245.059 263.317 243.984 263.921 242.7 264.597 C 242.911 265.308 243.098 265.994 243.254 266.639 C 244.005 269.738 244.647 272.8 244.268 275.091 C 243.958 276.964 243.302 278.526 241.902 279.656 C 240.233 281.001 236.59 282.333 234.294 282.022 C 232.104 281.726 230.178 280.59 228.378 278.134 C 227.403 276.804 226.645 274.675 225.929 272.23 C 219.272 274.893 212.853 276.999 209.681 277.018 C 205.957 277.04 204.105 274.883 202.749 273.13 C 201.546 271.574 201.134 269.277 201.397 267.383 C 201.675 265.386 202.036 263.535 204.609 261.466 C 206.972 259.566 212.899 257.588 219.059 255.527 C 215.654 251.623 210.955 248.288 209.444 245.338 C 208.182 242.875 208.109 240.805 208.43 238.914 C 208.723 237.183 209.759 235.504 210.965 234.35 C 212.178 233.19 214.161 232.291 215.699 231.983 C 217.083 231.706 218.369 231.741 219.756 232.321 C 221.452 233.031 223.813 235.283 224.996 236.548 C 225.859 237.469 226.135 238.548 226.687 239.083 C 227.087 239.472 227.29 239.278 227.87 239.76 C 229.109 240.788 232.303 243.921 234.125 246.353 C 234.663 247.071 235.167 247.795 235.646 248.537 C 239.347 245.536 239.297 241.003 241.462 239.151 C 243.14 237.715 244.892 237.014 246.872 237.122 Z" style="stroke-width: 2px; fill: rgb(255, 0, 0);" transform="matrix(0.9999999999999999, 0, 0, 0.9999999999999999, -1.1368683772161603e-13, -2.842170943040401e-14)"/>
  <ellipse style="stroke: rgb(0, 0, 0); stroke-width: 5px;" cx="226.764" cy="254.648" rx="13.945" ry="12.86" transform="matrix(0.9999999999999999, 0, 0, 0.9999999999999999, -1.1368683772161603e-13, -2.842170943040401e-14)"/>
  <ellipse style="stroke-width: 5px;" cx="139.357" cy="253.944" rx="16.632" ry="13.512" transform="matrix(0.9999999999999999, 0, 0, 0.9999999999999999, -1.1368683772161603e-13, -2.842170943040401e-14)"/>
  <path d="M 118.435 208.745 C 120.229 208.745 123.795 208.745 124.991 210.325 C 126.784 211.381 127.381 215.071 127.976 217.702 C 128.573 219.798 127.381 222.431 127.381 225.061 C 127.976 228.753 131.563 234.019 130.965 237.707 C 130.367 240.876 126.185 244.55 124.393 246.141 C 123.795 247.183 122.618 247.183 121.421 248.237 C 120.824 249.295 119.63 250.351 119.63 251.926 C 119.63 254.56 123.795 259.826 123.197 262.457 C 122.618 264.57 120.824 266.147 119.033 267.202 C 117.837 268.257 114.85 268.257 113.059 268.257 C 111.265 267.723 109.471 267.202 108.277 265.09 C 106.485 263.513 104.094 259.306 103.497 256.136 C 102.899 252.983 102.319 250.351 103.497 247.183 C 105.291 242.973 113.655 237.707 114.253 234.019 C 114.85 232.443 112.461 231.385 111.862 229.291 C 110.667 225.601 110.069 217.702 111.265 214.533 C 111.862 212.436 113.059 211.381 114.85 210.325 C 116.045 209.806 116.642 209.269 118.435 208.745 Z M 147.081 207.691 C 148.872 207.691 153.056 208.745 156.043 210.844 C 160.225 213.478 166.183 221.374 167.976 226.122 C 169.171 229.291 169.171 231.921 167.976 235.596 C 166.782 240.342 159.627 247.718 157.836 253.506 C 156.641 258.248 159.03 263.513 157.836 267.723 C 156.043 270.892 152.459 274.045 150.067 276.158 C 148.275 277.212 147.678 278.253 145.887 278.253 C 144.093 278.789 141.72 278.789 139.927 278.789 C 138.733 278.253 136.941 277.212 135.745 276.158 C 135.148 275.1 133.952 273.524 134.55 271.948 C 134.55 270.355 136.941 267.202 138.134 265.627 C 139.331 264.57 140.525 265.09 141.123 264.033 C 142.318 261.402 140.525 255.095 141.72 249.815 C 143.513 244.029 152.459 236.132 151.86 230.865 C 151.264 226.122 143.513 221.911 141.72 218.743 C 140.525 216.646 140.525 214.015 141.123 212.436 C 141.72 210.844 143.513 209.806 144.691 208.745 C 145.289 208.212 145.887 207.691 147.081 207.691 Z M 188.873 218.743 C 190.066 221.911 190.665 225.601 190.066 229.291 C 189.471 233.498 185.884 238.763 185.287 242.454 C 184.707 246.661 187.08 249.815 186.482 253.506 C 185.884 257.193 182.318 262.994 179.926 264.57 C 178.134 265.627 176.342 266.147 174.55 266.147 C 172.158 265.627 169.171 264.57 167.38 262.994 C 166.183 261.402 166.183 259.826 166.183 257.729 C 166.782 255.095 169.769 250.871 169.769 247.718 C 170.366 244.55 168.574 241.917 169.171 238.763 C 169.769 234.554 173.951 229.291 173.951 225.061 C 173.951 222.431 172.158 220.334 170.964 218.223 C 170.964 218.223 170.964 218.223 170.964 217.702 C 168.574 216.646 166.782 213.478 166.183 211.902 C 165.588 210.844 165.588 209.269 166.183 208.212 C 166.183 207.156 167.38 205.579 168.574 205.058 C 169.171 204.523 169.769 204.003 170.964 203.484 C 173.354 203.484 178.732 203.484 181.122 205.058 C 182.318 206.116 184.108 208.745 184.707 210.844 C 186.482 212.96 188.274 216.11 188.873 218.743 Z M 263.51 203.484 C 265.3 202.946 267.675 202.946 270.065 204.003 C 273.051 204.523 277.235 207.156 279.623 209.269 C 281.417 210.844 283.211 212.436 283.806 214.533 C 285.002 216.646 285.599 218.743 284.403 221.374 C 283.806 226.122 274.246 234.554 276.038 238.763 C 277.833 242.973 290.961 244.029 294.544 247.183 C 297.532 249.815 298.728 253.506 299.326 256.136 C 299.921 258.248 299.921 260.359 299.326 261.937 C 298.728 263.513 297.532 265.627 296.337 266.147 C 294.544 267.202 290.961 267.723 289.167 267.202 C 286.795 266.665 285.002 265.627 283.806 264.033 C 282.614 261.937 284.403 258.248 282.016 255.616 C 278.429 252.445 265.898 249.295 262.315 247.183 C 260.52 245.605 259.923 245.084 259.326 242.973 C 258.729 240.876 258.131 238.226 259.326 234.554 C 260.52 230.33 268.272 222.431 268.272 219.798 C 267.675 218.223 266.496 217.702 265.3 217.167 C 263.51 216.11 259.923 215.071 258.729 213.478 C 257.534 211.902 257.534 209.806 257.534 208.212 C 258.131 207.156 259.326 205.579 260.52 204.523 C 261.12 204.003 262.315 203.484 263.51 203.484 Z M 205.005 201.371 C 207.976 201.891 215.742 204.523 218.73 206.636 C 220.524 208.212 221.716 210.325 222.314 212.436 C 222.913 214.533 222.913 217.167 222.314 219.798 C 221.716 224.544 219.925 232.962 218.73 235.596 C 217.536 237.707 216.938 238.226 215.742 239.285 C 213.951 239.821 211.559 240.876 209.767 240.342 C 207.976 240.342 205.005 239.285 203.212 237.185 C 202.018 235.075 202.018 231.385 202.614 228.234 C 202.614 224.544 206.78 218.223 206.183 216.646 C 206.183 215.59 205.585 215.59 205.005 215.071 C 203.809 214.015 200.823 213.478 199.628 211.902 C 198.431 210.325 197.834 207.691 198.431 206.116 C 199.03 204.523 200.225 203.484 201.421 202.946 C 202.614 201.891 203.212 201.371 205.005 201.371 Z M 229.469 199.259 C 230.663 199.259 233.651 198.739 236.639 199.259 C 240.821 200.314 249.766 202.946 252.157 206.636 C 255.144 209.806 254.546 215.59 254.546 219.798 C 253.948 224.024 252.157 228.753 250.363 231.385 C 249.766 232.962 248.571 234.554 246.778 235.075 C 245.003 236.132 242.015 236.132 240.224 235.596 C 239.029 235.596 236.639 234.554 236.04 232.962 C 234.248 231.385 234.248 228.234 234.248 225.061 C 234.845 221.911 239.627 216.646 238.431 214.015 C 236.639 211.902 228.871 212.436 227.078 210.325 C 224.706 208.745 224.108 206.116 224.706 204.523 C 224.706 202.946 227.078 200.85 227.677 200.314 C 228.871 199.796 228.871 199.796 229.469 199.259 Z" style="fill: rgb(82, 59, 59); stroke: rgb(0, 0, 0); stroke-width: 5px; transform-origin: 333.947px 258.248px;"/>
  <path d="M 178.573 205.546 C 181.56 205.011 185.726 206.067 189.908 207.644 C 195.883 209.757 207.816 214.503 211.4 218.19 C 214.387 220.286 214.387 221.862 214.986 224.512 C 215.584 226.61 216.182 228.186 215.584 231.353 C 213.792 235.563 206.024 246.629 204.232 250.839 C 203.633 253.471 203.633 254.526 204.232 256.104 C 204.829 257.681 205.426 259.794 207.218 260.847 C 208.413 261.89 211.4 262.425 212.595 262.945 C 213.194 264.001 213.194 264.521 213.792 265.058 C 214.387 265.058 214.387 265.058 214.986 265.578 C 215.584 266.115 216.779 269.269 216.182 270.843 C 216.182 272.436 214.986 274.533 213.194 275.068 C 211.4 276.11 209.608 276.646 206.62 276.11 C 203.035 275.588 196.48 271.38 193.493 268.745 C 190.506 266.115 189.309 263.482 188.114 260.847 C 186.919 257.161 186.322 253.471 187.516 249.261 C 189.309 243.998 197.079 235.042 198.271 231.353 C 198.869 229.241 200.065 228.722 198.869 227.145 C 195.883 223.976 177.378 218.711 173.792 215.559 C 172 213.966 172.597 212.39 172.597 210.813 C 173.194 209.757 173.792 208.179 174.389 207.124 C 175.585 206.604 176.78 205.546 178.573 205.546 Z M 246.022 206.067 C 248.414 205.546 250.801 206.067 252.593 206.604 C 254.388 207.124 255.582 207.644 256.178 208.7 C 257.374 209.757 258.571 211.332 257.972 212.924 C 257.972 214.503 256.776 216.598 254.984 218.19 C 252.593 219.766 247.217 220.286 244.827 222.919 C 242.453 226.089 239.467 234.507 241.259 238.195 C 242.453 240.83 247.815 240.83 250.203 242.942 C 253.192 245.572 256.776 249.261 258.571 253.471 C 260.361 258.217 260.361 268.211 259.766 271.38 C 259.169 273.478 258.571 274.012 257.374 275.068 C 256.178 276.11 252.593 276.646 250.203 276.646 C 248.414 276.646 245.424 275.588 244.23 274.012 C 241.855 270.843 243.632 260.847 242.453 257.681 C 241.259 255.583 240.065 254.526 238.272 253.471 C 235.881 251.359 231.101 249.783 229.309 248.206 C 226.918 246.629 226.321 245.038 225.126 242.942 C 223.931 239.773 223.333 235.042 224.528 230.296 C 225.724 225.549 228.115 218.19 232.297 214.503 C 235.881 210.813 241.855 207.124 246.022 206.067 Z M 110.507 207.644 C 112.3 207.644 117.08 207.124 119.471 209.233 C 123.039 211.869 126.025 221.345 127.22 225.549 C 128.415 229.241 129.014 231.873 128.415 234.507 C 128.415 237.138 127.22 239.773 125.427 242.942 C 122.442 247.149 115.886 256.624 111.703 259.258 C 109.313 260.314 107.52 260.314 105.726 260.314 C 103.339 259.794 101.546 258.736 100.35 257.681 C 99.173 255.583 97.976 251.897 99.173 249.261 C 99.752 247.149 102.74 243.998 103.936 242.942 C 104.531 242.942 104.531 242.942 105.128 242.405 C 106.323 241.364 111.703 235.563 111.703 231.873 C 112.3 227.667 106.323 222.399 105.726 219.231 C 105.128 216.598 104.531 214.503 105.128 212.924 C 105.726 211.332 107.52 209.233 108.716 208.7 C 109.313 208.179 109.313 207.644 110.507 207.644 Z M 143.337 212.39 C 145.726 211.869 153.495 211.332 157.677 211.869 C 161.262 212.39 165.428 213.966 167.22 216.598 C 169.012 219.231 169.012 225.549 169.012 229.241 C 168.414 232.409 164.829 235.563 164.829 238.195 C 164.829 240.83 169.012 242.942 169.012 245.038 C 169.012 246.629 166.621 248.725 164.829 249.261 C 163.635 250.303 160.663 250.839 158.873 250.303 C 155.884 249.783 152.897 247.671 150.506 246.093 C 149.311 245.038 148.117 243.998 148.117 242.405 C 147.519 240.83 147.519 238.714 147.519 236.084 C 148.117 232.931 153.495 226.089 152.298 225.032 C 151.703 223.454 147.519 225.549 145.129 225.032 C 143.337 224.512 142.143 224.512 141.543 222.919 C 139.77 221.862 138.574 219.231 138.574 217.134 C 139.172 215.559 140.945 213.966 142.143 212.924 C 142.738 212.39 142.738 212.39 143.337 212.39 Z M 89.614 210.813 C 91.405 210.813 96.185 211.869 97.976 212.924 C 99.752 213.966 99.752 215.559 99.752 217.134 C 100.35 219.231 97.976 222.399 97.379 225.549 C 97.379 228.722 100.35 233.45 99.752 237.138 C 99.173 240.83 94.99 245.572 94.392 248.206 C 93.794 249.783 95.588 251.359 94.99 252.933 C 94.99 253.994 93.197 255.583 91.405 256.624 C 90.21 257.161 87.222 257.681 85.43 257.681 C 83.637 257.161 80.649 256.104 79.454 254.526 C 78.276 252.414 77.083 249.261 77.681 246.093 C 78.276 241.884 83.637 235.042 83.637 232.409 C 83.637 230.296 81.846 229.779 81.248 228.186 C 80.649 226.61 80.052 223.454 80.649 220.822 C 81.846 217.655 85.43 212.924 87.222 211.332 C 87.82 210.813 88.417 210.813 89.614 210.813 Z" style="fill: rgb(82, 59, 59); stroke: rgb(0, 0, 0); stroke-width: 5px; transform-origin: 311.097px 274.533px;"/>
  <path style="stroke: rgb(0, 0, 0); fill: rgb(52, 45, 45); stroke-width: 5px;" d="M 79.01 225.571 L 297.712 227.029 C 301.057 224.836 295.703 174.131 273.634 167.602 C 271.624 198.768 256.915 191.524 247.544 191.524 C 216.122 184.992 228.152 150.945 185.348 150.945 C 151.229 150.945 156.586 193.695 128.49 191.524 C 108.425 193.695 102.422 184.992 105.75 169.055 C 77.675 179.92 77.004 219.761 79.01 225.571 Z" transform="matrix(0.9999999999999999, 0, 0, 0.9999999999999999, -1.1368683772161603e-13, -2.842170943040401e-14)"/>
  <path d="M 182.611 168.064 C 186.835 167.156 191.058 168.064 195.28 169.002 C 199.48 169.916 205.391 172.678 207.081 174.522 C 208.77 176.367 208.77 177.283 208.77 178.218 C 209.618 180.067 211.305 181.887 212.153 183.736 C 212.994 184.676 213.838 184.676 214.686 185.592 C 216.371 186.5 218.907 188.345 219.754 189.284 C 220.6 189.284 220.6 189.284 221.44 190.195 C 223.976 192.044 233.242 195.712 239.157 197.561 C 245.07 198.502 254.362 196.652 256.869 197.561 C 259.405 197.561 259.405 198.502 260.251 199.412 C 261.095 201.259 261.095 204.96 261.095 205.867 C 260.251 207.717 259.405 208.627 256.869 209.565 C 253.519 210.48 242.537 210.48 234.087 209.565 C 224.821 206.776 207.925 196.652 204.547 194.802 C 202.86 193.894 203.704 194.802 202.86 193.894 C 201.169 192.044 196.125 183.736 192.75 181.887 C 190.212 180.98 187.678 180.067 185.144 180.98 C 182.611 180.98 180.077 182.829 178.386 184.676 C 176.697 185.592 175.854 188.345 175.008 188.345 C 175.008 189.284 174.162 189.284 173.32 190.195 C 172.476 191.107 168.273 193.894 166.586 194.802 C 165.742 195.712 165.742 196.652 164.895 197.561 C 164.895 197.561 164.895 197.561 164.053 198.502 C 161.518 200.319 149.692 207.717 142.089 209.565 C 133.666 212.326 121.841 214.175 115.927 213.233 C 111.702 212.326 107.505 210.48 105.812 207.717 C 104.972 205.867 106.659 201.259 109.193 200.319 C 110.884 198.502 113.394 199.412 115.927 199.412 C 118.46 199.412 119.304 201.259 122.685 201.259 C 129.442 201.259 149.692 192.044 152.225 190.195 C 153.913 189.284 153.071 189.284 153.913 188.345 C 154.76 187.438 160.67 183.736 161.518 182.829 C 162.361 181.887 162.361 180.98 163.207 180.98 C 164.053 179.13 166.586 176.367 168.273 174.522 C 169.119 173.613 170.785 173.613 171.629 173.613 C 171.629 172.678 171.629 172.678 172.476 171.764 C 174.162 170.825 179.23 169.002 182.611 168.064 Z" style="stroke: rgb(104, 105, 101); fill: rgb(181, 181, 181); stroke-width: 5px;" transform="matrix(0.9999999999999999, 0, 0, 0.9999999999999999, -1.1368683772161603e-13, -2.842170943040401e-14)"/>
  <path style="stroke: rgb(0, 0, 0); fill: rgb(255, 0, 0); stroke-width: 5px; transform-origin: 287.695px 553.938px;" d="M 178.885 339.515 C 178.885 339.515 188.814 416.924 174.15 419.825 C 173.676 421.065 135.365 420.643 131.102 418.994 C 118.331 418.572 142.453 337.025 142.927 337.025 L 178.885 339.515 Z"/>
  <path style="stroke: rgb(0, 0, 0); fill: rgb(255, 0, 0); stroke-width: 5px; transform-origin: 225.721px 568.833px;" d="M 143.4 337.447 C 134.891 336.617 119.738 340.755 104.127 356.479 C 110.756 363.11 125.42 373.046 132.996 375.935 C 139.138 379.255 158.066 356.479 156.645 351.933 C 152.856 343.653 148.135 342.404 143.4 337.447 Z"/>
  <path style="stroke: rgb(0, 0, 0); fill: rgb(255, 0, 0); stroke-width: 5px; transform-origin: 291.01px 547.729px;" d="M 230.931 338.685 C 232.349 338.685 240.387 418.165 231.404 418.994 C 221.46 423.543 189.762 422.712 188.341 419.825 C 178.412 416.924 187.869 335.377 194.97 337.447 L 230.931 338.685 Z"/>
  <path style="stroke: rgb(0, 0, 0); fill: rgb(255, 0, 0); stroke-width: 5px; transform-origin: 380.893px 552.29px;" d="M 259.785 350.272 C 257.419 346.132 238.491 339.515 221.933 336.194 C 214.845 339.095 205.374 345.724 208.215 347.794 C 212.95 357.732 224.775 370.147 227.142 372.216 C 237.072 373.864 262.154 357.311 259.785 350.272 Z"/>
  <ellipse style="stroke: rgb(0, 0, 0); stroke-width: 5px; transform-origin: 150.43px 255.477px;" cx="128.251" cy="355.986" rx="7.405" ry="7.582" transform="matrix(0.999904990196, 0.013770000078, -0.022123003379, 0.999790012836, 38.77190767274, 21.121358903549)"/>
  <ellipse style="stroke: rgb(0, 0, 0); stroke-width: 5px; transform-origin: 146.375px 232.159px;" cx="131.275" cy="382.153" rx="7.551" ry="7.4" transform="matrix(0.999904990196, 0.013770000078, -0.022123003379, 0.999790012836, 36.382868577791, 12.960244580162)"/>
  <ellipse style="stroke: rgb(0, 0, 0); stroke-width: 5px; transform-origin: 137.444px 213.395px;" cx="178.701" cy="384.013" rx="9.635" ry="8.071" transform="matrix(0.999621093273, -0.027541004121, 0.044228006154, 0.999161124229, 16.406956926832, 15.39750141366)"/>
  <ellipse style="stroke: rgb(0, 0, 0); stroke-width: 5px; transform-origin: 140.254px 210.895px;" cx="177.519" cy="358.094" rx="9.325" ry="7.866" transform="matrix(0.999621093273, -0.027541004121, 0.044228006154, 0.999161124229, 19.640065480323, 20.378526386918)"/>
  <ellipse style="stroke: rgb(0, 0, 0); stroke-width: 5px; transform-origin: 141.586px 312.064px;" cx="141.112" cy="355.943" rx="4.262" ry="0.83" transform="matrix(0.999904990197, 0.013770000076, -0.022123003378, 0.999790012837, 37.12918064038, 20.157751636279)"/>
  <ellipse style="stroke: rgb(0, 0, 0); stroke-width: 5px; transform-origin: 159.518px 310.485px;" cx="166.976" cy="358.659" rx="3.728" ry="0.854" transform="matrix(0.999621093273, -0.02754200436, 0.044228006154, 0.999161124229, 20.457483762818, 18.276190595861)"/>
  <ellipse style="stroke: rgb(0, 0, 0); stroke-width: 5px; transform-origin: 141.673px 322.99px;" cx="142.62" cy="381.355" rx="3.315" ry="0.83" transform="matrix(0.999904990196, 0.013770000077, -0.022123003378, 0.999790012837, 36.800164833714, 14.335793481742)"/>
  <ellipse style="stroke: rgb(0, 0, 0); stroke-width: 5px; transform-origin: 161.236px 322.434px;" cx="166.917" cy="384.124" rx="3.788" ry="0.83" transform="matrix(0.999621093273, -0.027540003882, 0.044228006154, 0.999161124229, 18.652988932817, 12.453941923052)"/>
  <path style="stroke: rgb(0, 0, 0); fill: rgb(104, 53, 11); stroke-width: 5px; transform-origin: 247.476px 760.743px;" d="M 125.42 446.136 L 150.029 456.495 C 152.382 458.144 136.297 482.988 134.891 481.736 C 134.891 481.736 97.512 466.842 89.936 463.111 C 87.568 461.45 84.741 450.696 96.092 448.205 C 101.774 448.625 108.861 448.205 115.491 452.766 L 125.42 446.136 Z"/>
  <path style="stroke: rgb(0, 0, 0); fill: rgb(104, 53, 11); stroke-width: 5px; transform-origin: 337.372px 757.855px;" d="M 220.986 479.258 C 221.46 480.088 267.823 464.351 267.349 462.703 C 270.663 462.281 263.1 446.966 257.419 447.796 C 251.737 446.557 238.491 449.865 239.439 452.344 L 231.877 445.318 L 206.321 455.243 C 203.007 460.213 214.371 476.358 220.986 479.258 Z"/>
  <path style="stroke: rgb(0, 0, 0); fill: rgb(255, 0, 0); stroke-width: 5px; transform-origin: 337.372px 758.855px;" d="M 231.404 446.727 C 242.281 443.827 223.827 419.825 218.618 419.825 C 210.582 415.674 190.709 412.787 182.673 418.994 C 175.572 430.579 206.321 457.495 206.321 456.665 L 231.404 446.727 Z" transform="matrix(1, 0, 0, 1, 1e-12, 0)"/>
  <path style="stroke: rgb(0, 0, 0); fill: rgb(255, 0, 0); stroke-width: 5px; transform-origin: 247.476px 761.743px;" d="M 182.673 421.473 C 190.235 422.303 158.538 458.313 149.556 457.495 L 125.894 447.136 C 118.331 440.927 135.838 418.165 144.347 417.754 C 152.382 414.434 182.201 416.094 182.673 421.473 Z"/>
  <path style="stroke: rgb(0, 0, 0); fill: rgb(255, 255, 255); stroke-width: 2px;" d="M 222.662 322.269 C 236.073 320.077 230.975 342.046 226.498 343.515 L 138.955 343.515 C 128.722 343.515 143.433 323.738 151.088 323.738 L 222.662 322.269 Z" transform="matrix(0.9999999999999999, 0, 0, 0.9999999999999999, -1.1368683772161603e-13, -2.842170943040401e-14)"/>
  <path style="stroke: rgb(0, 0, 0); fill: rgb(255, 255, 255); stroke-width: 2px;" d="M 158.448 342.927 L 143.778 368.419 C 149.287 372.072 163.959 365.386 162.12 363.566 C 164.877 365.386 170.386 369.038 174.061 369.038 C 177.736 369.038 189.646 367.202 186.893 364.785 C 195.157 371.453 196.995 370.256 202.502 369.639 C 206.178 367.82 211.689 366.002 208.013 364.169 C 208.013 366.002 219.93 372.671 220.844 369.038 L 208.013 343.543 L 158.448 342.927 Z" transform="matrix(0.9999999999999999, 0, 0, 0.9999999999999999, -1.1368683772161603e-13, -2.842170943040401e-14)"/>
  <ellipse style="fill: rgb(111, 24, 24); stroke-width: 5px;" cx="183.721" cy="306.858" rx="78.761" ry="21.976" transform="matrix(0.9999999999999999, 0, 0, 0.9999999999999999, -1.1368683772161603e-13, -2.842170943040401e-14)"/>
  <rect x="202.425" y="246.834" width="18.405" height="15.217" style="stroke: rgb(0, 0, 0); fill: rgb(255, 255, 255); stroke-width: 2px; transform-origin: 212.151px 254.836px;" transform="matrix(0.983209013939, -0.182483032346, 0.416343003511, 0.939805209637, -72.483999001781, 42.423056359428)"/>
  <rect x="233.8" y="236.314" width="21.941" height="18.971" style="stroke: rgb(0, 0, 0); fill: rgb(255, 205, 0); stroke-width: 2px; transform-origin: 244.781px 245.801px;" transform="matrix(0.998401105404, -0.056537013501, 0.134356975555, 0.993993997574, -75.865524161966, 48.591378503147)"/>
  <rect x="269.401" y="238.443" width="22.991" height="21.381" style="stroke: rgb(0, 0, 0); fill: rgb(255, 246, 201); stroke-width: 2px; transform-origin: 281.426px 249.538px;" transform="matrix(0.995887994766, 0.090593017638, -0.213804006577, 0.984679996967, -74.443696423993, 47.43626564772)"/>
  <rect x="283.153" y="263.353" width="16.667" height="20.834" style="stroke: rgb(0, 0, 0); fill: rgb(255, 239, 239); stroke-width: 2px; transform-origin: 291.453px 274.186px;" transform="matrix(0.936729133129, 0.350055068731, -0.714176952839, 0.800656974316, -52.227882620743, 28.252652168448)"/>
  <rect x="203.894" y="263.17" width="23.87" height="13.589" style="stroke: rgb(0, 0, 0); fill: rgb(255, 249, 213); stroke-width: 2px; transform-origin: 215.813px 270.371px;" transform="matrix(0.98529201746, 0.170882031322, -0.392005056143, 0.946942090988, -73.339412824983, 46.585381841643)"/>
  <rect x="168.87" y="309.754" width="21.972" height="17.361" style="stroke: rgb(0, 0, 0); fill: rgb(255, 235, 235); stroke-width: 2px;" transform="matrix(0.9999999999999999, 0, 0, 0.9999999999999999, -1.1368683772161603e-13, -2.842170943040401e-14)"/>
  <rect x="278.976" y="264.28" width="19.617" height="15.932" style="stroke: rgb(0, 0, 0); fill: rgb(255, 205, 0); stroke-width: 2px; transform-origin: 288.8px 272.235px;" transform="matrix(0.990667998791, -0.136296004057, 0.31715798378, 0.96578502655, -72.81418690494, 45.756485248236)"/>
  <ellipse style="fill: none; stroke: rgb(255, 75, 75); stroke-width: 5px;" cx="185.208" cy="306.749" rx="79.151" ry="22.085" transform="matrix(0.9999999999999999, 0, 0, 0.9999999999999999, -1.1368683772161603e-13, -2.842170943040401e-14)"/>
</svg>
