<?xml version="1.0" encoding="utf-8"?>
<svg viewBox="0 0 400 130" width="400" height="130" xmlns="http://www.w3.org/2000/svg">
  <path d="M 0 0 L 165 0 M 75 30 L 165 30 L 165 0 L 0 0 L 0 30 L 100 130 L 300 130 M 300 130 L 400 30 L 400 0 L 234.102 -0.731 L 235 30 L 325 30 L 325 95 L 75 95 L 75 30" style="fill: rgb(90, 48, 23);"/>
  <path stroke-width="0" d="M 70.042 5.079 C 80.213 4.414 95.735 6.785 104.865 6.951 C 111.567 7.073 113.656 6.088 120.966 6.576 C 121.059 6.582 121.153 6.589 121.248 6.596 C 120.522 4.046 120.193 -0.283 120.379 -1.249 C 120.466 -1.699 120.627 -1.742 120.941 -1.811 C 121.436 -1.92 122.673 -2.022 123.375 -1.249 C 124.445 -0.07 125.777 4.867 125.974 7.102 C 130.922 7.751 137.142 8.839 143.429 9.925 C 143.57 9.679 143.729 9.488 143.932 9.422 C 144.559 9.219 146.133 9.665 146.365 10.358 C 146.373 10.382 146.38 10.407 146.385 10.434 C 155.511 11.996 164.377 13.407 169.269 13.316 C 174.92 13.211 178.806 10.058 180.502 10.695 C 181.438 11.047 181.85 12.396 181.438 13.129 C 180.81 14.246 177.109 15.391 174.511 15.937 C 171.623 16.544 168.84 16.47 164.775 16.312 C 159.591 16.11 151.448 15.24 144.881 14.282 C 144.665 14.615 144.464 14.883 144.306 15.039 C 143.881 15.458 143.411 15.109 142.995 15.413 C 142.461 15.804 141.779 16.54 141.498 17.473 C 141.132 18.681 141.217 20.517 141.498 22.34 C 141.534 22.576 141.594 22.833 141.671 23.107 C 145.117 22.186 149.641 21.007 151.323 21.023 C 152.476 21.033 153.673 21.468 153.383 21.772 C 152.981 22.193 146.909 23.184 141.929 23.911 C 142.706 26.127 144.136 28.918 143.744 29.829 C 143.432 30.557 142.062 30.784 141.31 30.391 C 140.258 29.841 139.056 27.372 138.502 25.336 C 138.425 25.053 138.352 24.747 138.284 24.424 C 136.677 24.64 135.563 24.774 135.41 24.767 C 135.111 24.754 136.767 24.373 138.203 24.022 C 137.756 21.668 137.589 18.598 138.128 16.724 C 138.486 15.476 139.418 14.351 140.246 13.487 C 135.085 12.422 130.283 10.895 125.085 10.321 C 118.734 9.62 109.881 9.86 105.614 9.946 C 103.087 9.997 103.191 10.341 100.371 10.321 C 97.702 10.302 92.854 9.759 87.549 9.249 C 86.834 9.823 85.544 10.189 84.957 11.107 C 84.203 12.285 83.969 13.938 83.834 15.975 C 83.651 18.718 84.978 24.002 84.582 26.459 C 84.315 28.118 83.673 29.671 82.897 30.016 C 82.265 30.298 81.031 30.039 80.522 29.186 C 79.959 29.739 78.248 30.064 77.056 30.016 C 75.656 29.961 74.396 28.755 72.563 28.519 C 70.234 28.219 68.528 28.981 63.951 28.893 C 61.98 28.855 58.806 28.781 55.008 28.667 C 55.003 28.996 54.994 29.338 55.002 29.679 C 55.037 31.219 54.434 32.958 54.627 35.296 C 54.721 36.431 55.1 38.053 55.543 39.764 C 56.284 39.556 56.991 39.387 57.605 39.281 C 60.176 38.837 64.266 38.839 65.094 39.281 C 65.427 39.459 65.523 39.852 65.281 40.029 C 64.686 40.465 60.587 39.617 57.979 40.029 C 57.351 40.128 56.583 40.329 55.758 40.582 C 56.53 43.502 57.383 46.498 57.248 47.653 C 57.24 47.723 57.23 47.789 57.218 47.852 C 58.222 48.115 59.221 48.299 60.206 48.364 C 65.538 48.718 74.318 44.519 76.307 45.369 C 77.245 45.769 77.504 47.064 76.869 47.802 C 75.6 49.279 66.877 50.854 63.202 51.36 C 60.468 51.736 59.205 51.89 56.462 51.36 C 55.353 51.145 54.047 50.69 52.646 50.13 C 52.32 50.158 51.843 50.131 51.501 50.364 C 50.744 50.879 49.695 53.177 49.067 53.36 C 48.689 53.47 48.12 52.98 48.131 52.798 C 48.144 52.605 48.919 52.587 49.255 52.236 C 49.697 51.773 49.836 50.554 50.378 49.99 C 50.546 49.815 50.773 49.626 51.017 49.454 C 48.04 48.187 44.826 46.692 42.233 46.117 C 38.508 45.291 33.234 46.222 31.936 45.369 C 31.301 44.951 31.46 44.188 31.561 43.684 C 31.66 43.193 31.735 42.638 32.498 42.373 C 34.178 41.788 39.889 42.292 44.105 43.122 C 46.899 43.672 49.986 45.183 53.125 46.447 C 52.798 45.207 52.503 43.566 52.249 41.79 C 50.321 42.496 48.699 43.117 48.431 43.025 C 48.221 42.953 48.528 42.569 48.993 42.276 C 49.504 41.953 50.705 41.424 52.125 40.892 C 51.597 36.899 51.275 32.467 51.257 30.428 C 51.251 29.744 51.254 29.112 51.284 28.55 C 37.785 28.101 19.574 27.235 16.958 25.898 C 15.981 25.398 16.483 24.717 16.584 24.213 C 16.682 23.722 16.398 23.211 17.52 22.902 C 19.423 22.378 28.136 22.775 38.079 23.404 C 38.139 22.43 38.308 21.349 38.526 20.318 C 38.887 18.615 39.772 15.737 40.754 13.279 C 34.004 13.611 26.795 13.6 21.364 12.942 C 14.683 12.132 5.828 9.968 4.327 8.261 C 3.641 7.481 4.122 6.269 4.889 5.827 C 6.126 5.114 10.493 5.945 13.126 6.576 C 15.733 7.201 17.55 9.016 20.615 9.572 C 24.462 10.269 31.227 9.675 34.844 9.572 C 37.405 9.499 38.801 9.2 40.835 9.197 C 41.535 9.196 42.141 9.267 42.753 9.351 C 42.911 9.153 43.063 8.999 43.207 8.898 C 44.022 8.326 45.278 8.505 45.64 9.46 C 45.659 9.511 45.676 9.568 45.691 9.632 C 46.115 9.636 46.576 9.621 47.09 9.581 C 46.875 8.378 46.879 6.801 46.914 5.49 C 46.974 3.24 47.356 -1.083 48.224 -1.811 C 48.751 -2.254 49.805 -2.043 50.284 -1.249 C 51.045 0.015 50.964 5.823 50.792 8.973 C 55.992 7.832 63.162 5.528 70.042 5.079 Z M 71.814 25.523 C 73.293 25.472 72.803 25.086 73.686 25.149 C 75.155 25.253 79.277 26.103 80.239 27.021 C 80.241 27.023 80.242 27.024 80.244 27.026 C 80.369 24.441 81.262 20.455 81.212 18.222 C 81.16 15.844 80.089 14.037 80.464 12.23 C 80.712 11.035 81.441 9.796 82.221 8.776 C 77.931 8.438 73.711 8.237 70.416 8.449 C 62.818 8.938 57.714 11.784 50.196 12.567 C 48.742 12.719 47.187 12.858 45.568 12.98 C 45.141 16.169 44.095 20.685 43.047 23.73 C 55.729 24.585 68.898 25.624 71.814 25.523 Z M 305.616 8.374 C 306.599 8.313 307.527 8.282 308.408 8.273 C 308.206 5.584 308.256 1.507 308.424 -0.051 C 308.558 -1.293 308.803 -2.047 309.173 -2.485 C 309.428 -2.788 309.719 -2.882 310.109 -2.86 C 310.647 -2.829 311.733 -2.837 312.168 -1.923 C 312.822 -0.55 312.836 5.054 312.376 8.362 C 315.137 8.506 317.479 8.764 319.844 8.748 C 323.17 8.725 325.515 8.319 328.457 8.374 C 330.449 8.411 332.632 8.703 334.695 8.911 C 337.379 6.883 343.062 3.853 344.484 3.484 C 345.05 3.337 345.532 3.425 345.42 3.671 C 345.163 4.237 339.121 7.064 335.892 9.022 C 336.558 9.076 337.204 9.114 337.818 9.123 C 340.292 9.158 341.648 8.541 344.558 8.748 C 347.887 8.985 352.386 10.184 357.341 11.096 C 357.076 7.527 358.453 -1.489 359.61 -2.56 C 360.265 -3.167 361.616 -2.647 362.044 -1.624 C 362.752 0.067 361.795 8.147 360.7 11.648 C 360.935 11.681 361.171 11.713 361.407 11.744 C 363.574 12.026 366.482 12.205 369.608 12.353 C 369.397 12.194 369.249 11.97 369.083 11.797 C 368.79 11.491 368.782 10.957 368.521 10.673 C 368.275 10.405 367.585 10.299 367.585 10.112 C 367.585 9.924 368.054 9.516 368.521 9.55 C 369.321 9.607 371.613 11.763 372.382 11.8 C 371.825 12.071 371.328 12.284 370.933 12.413 C 378.965 12.768 387.916 12.979 389.303 14.178 C 390.082 14.85 389.537 16.085 388.367 16.611 C 385.794 17.77 374.999 16.524 367.185 15.699 C 367.896 19.227 368.183 26.908 367.885 29.605 C 367.836 30.048 367.765 30.452 367.678 30.818 C 368.499 30.636 369.356 30.445 370.177 30.274 C 370.078 30.168 370.015 30.034 370.01 29.882 C 369.976 28.801 374.136 22.711 375.253 22.206 C 375.754 21.979 376.361 22.282 376.376 22.768 C 376.405 23.705 373.282 28.41 371.723 29.972 C 372.774 29.785 373.668 29.673 374.213 29.717 C 375.328 29.806 376.011 30.112 376.273 30.653 C 376.545 31.216 376.561 32.442 375.711 33.087 C 374.131 34.285 365.632 34.803 364.103 34.959 C 363.595 35.011 363.677 34.994 363.355 34.959 C 362.885 34.908 362.66 34.633 361.482 34.585 C 359.602 34.507 354.814 35.21 349.925 35.595 C 349.487 37.072 348.532 39.302 348.639 40.538 C 348.747 41.785 349.847 42.195 350.137 43.534 C 350.421 44.851 350.634 47.389 350.495 49.242 C 353.909 49.278 357.051 49.406 358.637 49.712 C 360.261 50.026 361.103 50.352 361.445 51.023 C 361.758 51.637 361.867 52.949 360.883 53.457 C 358.698 54.583 348.615 52.393 342.536 52.333 C 336.509 52.274 326.843 53.983 324.562 53.082 C 323.629 52.713 323.695 51.927 323.626 51.397 C 323.567 50.936 323.648 50.374 324.001 50.087 C 324.447 49.722 325.54 49.727 326.435 49.712 C 327.451 49.695 328.269 50.074 329.805 50.087 C 332.184 50.106 335.881 49.435 339.915 49.338 C 341.66 49.296 343.987 49.251 346.43 49.236 C 346.554 47.934 346.881 46.194 346.767 44.657 C 346.603 42.442 345.078 39.606 345.269 37.543 C 345.319 37 345.444 36.405 345.62 35.824 C 344.2 35.854 342.846 35.826 341.637 35.708 C 335.381 35.1 324.895 32.743 323.476 31.027 C 322.832 30.248 323.247 29.003 324.413 28.594 C 325.592 28.18 328.702 28.775 332.421 29.632 C 331.402 28.253 330.367 26.42 329.842 24.961 C 329.073 22.821 328.596 20.458 329.093 18.222 C 329.114 18.129 329.137 18.033 329.163 17.935 C 328.379 17.562 327.848 17.253 327.665 17.039 C 327.264 16.57 327.61 16.02 328.227 15.915 C 328.514 15.866 329.065 15.957 329.793 16.147 C 330.191 15.212 330.698 14.234 331.232 13.377 C 331.3 13.177 331.446 12.868 331.651 12.502 C 324.338 12.358 311.736 11.497 305.241 11.744 C 299.634 11.957 294.349 12.732 291.948 13.241 C 290.851 13.475 291.117 13.68 290.091 13.942 C 290.085 14.174 290.078 14.426 290.076 14.702 C 290.05 17.834 289.741 29.521 288.391 30.99 C 287.755 31.683 286.429 31.196 285.957 30.428 C 285.198 29.191 286.451 23.766 286.332 22.191 C 286.271 21.385 285.983 21.527 285.957 20.693 C 285.926 19.691 285.956 16.992 286.188 14.7 C 282.077 15.411 276.03 16.281 271.167 16.611 C 269.898 16.697 268.557 16.787 267.172 16.87 C 267.06 17.317 267.238 17.912 266.631 18.387 C 265.001 19.663 256.38 21.825 254.836 22.131 C 254.333 22.231 254.581 22.075 254.087 22.131 C 252.669 22.292 244.283 24.237 243.79 24.003 C 243.583 23.905 243.962 23.584 244.726 23.254 C 247.166 22.201 263.453 19.328 265.882 17.638 C 266.214 17.407 266.348 17.159 266.402 16.916 C 259.896 17.291 252.552 17.5 247.203 16.611 C 241.649 15.689 234.442 13.224 233.161 11.556 C 232.535 10.741 233.353 9.565 233.723 9.123 C 233.997 8.795 234.147 8.677 234.846 8.748 C 236.658 8.932 241.93 12.406 246.828 13.241 C 253.004 14.295 260.991 13.853 269.669 13.241 C 280.111 12.505 296.647 8.927 305.616 8.374 Z M 340.813 11.744 C 338.37 11.668 338.18 12.197 336.222 12.417 C 336.015 13.559 334.775 15.555 334.335 16.162 C 334.059 16.544 333.822 16.35 333.586 16.724 C 333.498 16.863 333.395 17.051 333.286 17.273 C 337.051 18.627 341.674 20.575 343.017 21.158 C 343.875 21.53 343.631 21.646 344.328 21.906 C 345.566 22.37 350.034 22.762 350.506 23.404 C 350.752 23.74 350.631 24.425 349.944 24.528 C 348.386 24.761 338.658 21.717 332.561 19.36 C 332.484 19.741 332.444 20.12 332.463 20.468 C 332.542 21.935 333.8 24.379 334.335 25.149 C 334.608 25.541 334.794 25.317 335.084 25.71 C 335.668 26.501 337.357 29.522 337.331 30.578 C 337.329 30.651 337.322 30.721 337.311 30.789 C 341.238 31.717 345.22 32.595 348.002 32.712 C 353.591 32.948 360.836 31.037 362.606 31.215 C 363.169 31.271 362.831 31.556 363.355 31.589 C 363.465 31.596 363.607 31.591 363.778 31.575 C 363.773 31.426 363.77 31.268 363.766 31.102 C 363.73 29.451 364.494 26.282 364.515 23.613 C 364.534 21.211 363.667 17.399 363.647 15.318 C 355.782 14.347 345.567 11.891 340.813 11.744 Z M 68.744 71.28 C 71.85 71.324 76.295 71.926 77.168 72.965 C 77.701 73.599 77.324 74.98 76.607 75.399 C 75.538 76.023 72.58 74.623 69.867 74.65 C 69.322 74.655 68.675 74.714 67.964 74.806 C 67.594 75.644 66.395 76.074 65.598 75.549 C 65.495 75.481 65.383 75.376 65.264 75.238 C 61.797 75.859 57.994 76.679 56.949 76.148 C 56.19 75.763 56.532 74.621 56.574 74.088 C 56.606 73.691 56.461 73.443 56.949 73.152 C 57.726 72.69 60.482 72.1 63.336 71.707 C 63.069 71.103 62.801 70.46 62.537 69.8 C 60.298 69.656 58.57 69.458 58.166 69.236 C 57.798 69.033 57.799 68.682 58.166 68.487 C 58.531 68.294 59.958 68.142 61.86 68.043 C 61.136 66.099 60.506 64.178 60.137 62.827 C 57.579 63.413 55.426 63.839 55.171 63.769 C 54.931 63.704 55.442 63.324 56.107 63.02 C 56.711 62.745 58.162 62.241 59.866 61.705 C 59.818 61.456 59.792 61.261 59.794 61.133 C 59.797 60.892 59.856 60.764 59.954 60.69 C 56.381 60.704 52.741 60.834 50.621 61.02 C 48.004 61.25 45.938 62.645 45.004 62.144 C 44.334 61.783 43.947 60.376 44.442 59.71 C 45.215 58.671 49.167 57.944 51.744 57.65 C 54.456 57.341 57.413 58.021 60.356 58.025 C 63.399 58.029 67.242 57.137 69.717 57.65 C 71.685 58.058 73.962 59.122 74.398 60.084 C 74.726 60.81 74.176 62.224 73.462 62.518 C 72.527 62.902 70.968 61.332 68.594 61.02 C 68.294 60.981 67.959 60.945 67.595 60.913 C 66.52 61.24 65.073 61.627 63.547 62.01 C 64.367 63.218 65.459 65.556 66.366 67.916 C 70.627 67.877 75.103 68.046 75.952 68.487 C 76.493 68.768 76.588 69.34 76.14 69.61 C 75.463 70.019 71.283 70.106 67.114 70 C 67.264 70.449 67.4 70.886 67.521 71.302 C 67.959 71.283 68.37 71.275 68.744 71.28 Z M 61.886 60.694 C 62.07 60.752 62.257 60.829 62.439 60.93 C 62.696 60.856 62.952 60.783 63.206 60.712 C 62.774 60.704 62.333 60.698 61.886 60.694 Z M 324.338 73.377 C 326.423 72.517 337.935 76.625 341.562 76.747 C 343.607 76.815 344.855 75.662 345.681 75.998 C 346.287 76.245 346.663 77.132 346.617 77.683 C 346.569 78.257 346.148 78.989 345.306 79.368 C 343.916 79.993 340.787 80.107 337.818 79.742 C 333.943 79.266 325.069 77.344 323.776 75.811 C 323.138 75.054 323.382 73.771 324.338 73.377 Z M 328.157 61.095 C 331.45 60.632 339.354 60.434 343.509 61.095 C 346.794 61.618 350.725 62.797 351.56 63.903 C 352.036 64.534 351.56 65.563 351.185 65.963 C 350.838 66.333 350.337 66.383 349.5 66.337 C 348.006 66.256 345.242 64.813 342.386 64.465 C 338.787 64.027 332.394 64.349 329.28 64.465 C 327.248 64.541 325.58 65.359 324.787 64.84 C 324.161 64.43 323.847 63.013 324.225 62.406 C 324.688 61.662 326.207 61.369 328.157 61.095 Z M 106.937 100.037 C 118.012 99.85 149.29 102.476 154.491 102.284 C 155.928 102.231 155.346 101.951 156.363 101.909 C 158.403 101.825 164.209 102.637 167.222 102.658 C 169.596 102.675 170.775 102.192 173.213 102.284 C 173.527 102.296 173.872 102.32 174.242 102.353 C 174.05 99.282 174.48 94.408 175.235 93.597 C 175.794 92.996 177.183 93.316 177.669 94.158 C 178.299 95.25 178.26 99.867 177.816 102.81 C 180.732 103.247 183.831 103.791 185.195 103.782 C 186.235 103.774 186.181 103.455 187.067 103.407 C 188.502 103.33 192.103 103.877 193.433 103.782 C 194.187 103.727 193.857 103.473 194.931 103.407 C 198.319 103.198 214.497 105.191 222.265 104.53 C 228.671 103.986 233.593 101.378 238.74 100.786 C 243.39 100.251 246.435 100.394 251.846 100.786 C 256.777 101.143 264.841 103.002 271.459 103.987 C 270.919 101.248 270.588 95.721 271.055 94.383 C 271.316 93.635 271.874 93.545 272.365 93.447 C 272.87 93.346 273.63 93.166 274.05 93.821 C 274.843 95.059 275.358 101.756 274.987 104.431 C 276.756 104.603 278.319 104.657 279.554 104.53 C 283.377 104.136 284.478 101.803 287.418 101.16 C 290.652 100.453 293.054 100.604 298.277 100.786 C 307.109 101.094 335.869 102.226 338.529 104.343 C 339.418 105.051 339.01 106.225 337.593 106.777 C 334.139 108.123 313.62 105.219 300.139 104.283 C 301.672 105.309 305.874 106.609 306.771 107.616 C 307.299 108.209 307.345 109.123 307.145 109.301 C 306.952 109.475 306.095 109.074 305.648 108.74 C 305.146 108.364 305.106 107.627 304.337 107.055 C 303.116 106.146 299.428 105.269 298.159 104.246 C 298.12 104.215 298.082 104.183 298.044 104.151 C 294.835 103.971 292.161 103.939 290.413 104.156 C 285.721 104.739 284.633 106.914 281.801 107.526 C 279.146 108.1 277.209 108.171 273.938 107.9 C 269.43 107.528 262.514 105.155 256.713 104.53 C 250.906 103.905 244.399 103.547 239.115 104.156 C 236.84 104.418 234.921 105.062 232.998 105.731 C 233.631 109.505 233.865 116.764 233.716 120.589 C 237.981 120.492 246.517 119.847 251.696 119.059 C 256.092 118.39 261.596 116.699 265.524 115.698 C 263.689 114.868 261.995 114.02 261.314 113.645 C 260.689 113.301 261.085 113.103 260.378 112.896 C 258.464 112.335 246.915 112.938 245.962 112.147 C 245.603 111.849 245.918 111.291 246.523 111.024 C 248.035 110.357 255.792 110.517 258.88 111.024 C 261.096 111.387 262.971 112.381 263.935 112.896 C 264.463 113.178 264.27 113.318 264.871 113.645 C 265.438 113.953 266.971 114.475 268.576 115.028 C 268.839 114.987 269.079 114.957 269.295 114.94 C 270.754 114.823 270.361 115.383 271.916 115.314 C 275.594 115.151 289.087 111.821 294.382 111.57 C 297.783 111.409 299.348 111.455 301.871 112.319 C 304.708 113.29 308.588 117.086 310.483 117.561 C 311.529 117.823 312.196 116.937 312.73 117.187 C 313.23 117.42 313.598 118.342 313.666 118.872 C 313.726 119.333 313.768 119.851 313.292 120.182 C 312.417 120.789 309.261 121.533 307.113 120.931 C 304.498 120.197 301.165 115.76 298.876 114.94 C 297.282 114.369 296.973 114.737 294.757 114.94 C 292.605 115.137 287.682 116.008 282.82 116.86 C 283.409 120.327 282.782 129.495 281.951 130.966 C 281.573 131.635 280.882 131.364 280.453 131.34 C 280.091 131.321 279.735 131.496 279.517 130.966 C 278.999 129.711 278.898 121.541 279.47 117.443 C 275.44 118.137 271.945 118.698 270.792 118.684 C 269.955 118.674 270.45 118.289 269.669 118.31 C 267.329 118.373 257.965 121.494 251.696 122.429 C 245.955 123.285 237.51 123.786 232.847 123.901 C 232.771 123.939 232.689 123.97 232.599 124.001 C 232.148 124.157 231.266 124.341 230.62 123.92 C 229.029 123.869 228.591 123.563 227.357 123.552 C 225.86 123.538 224.381 123.948 222.489 123.927 C 220.154 123.9 217.868 123.916 214.252 123.178 C 208.766 122.057 199.732 117.705 191.785 116.438 C 183.482 115.113 175.417 115.212 165.392 115.68 C 165.681 116.533 164.975 117.931 164.938 119.62 C 164.879 122.288 166.184 128.82 165.312 130.479 C 164.819 131.417 163.474 132.045 162.878 131.415 C 161.716 130.187 161.439 118.878 161.862 115.924 C 150.13 116.992 135.36 120.566 123.262 120.557 C 110.854 120.547 90.287 118.333 87.878 116.25 C 87.031 115.519 87.455 114.331 88.814 113.817 C 91.548 112.781 104.059 114.833 115.193 116.174 C 115.186 115.311 115.231 114.471 115.212 114.079 C 115.192 113.671 115.223 113.833 115.212 113.33 C 115.184 112.068 114.58 106.123 114.71 103.469 C 111.82 103.407 109.292 103.382 107.311 103.407 C 98.287 103.52 92.736 104.787 87.466 104.905 C 83.535 104.992 79.188 105.39 77.917 104.53 C 77.225 104.062 77.501 103.004 77.543 102.471 C 77.575 102.073 77.459 101.771 77.917 101.535 C 79.025 100.964 84.642 101.119 87.091 101.16 C 88.934 101.191 89.468 101.573 91.584 101.535 C 95.046 101.472 99.88 100.156 106.937 100.037 Z M 226.384 107.526 C 220.717 108.292 212.659 108.079 206.913 107.9 C 202.001 107.748 197.8 106.878 193.807 106.777 C 190.266 106.687 187.877 107.26 184.072 107.152 C 179.326 107.016 169.15 105.765 167.222 105.654 C 166.668 105.622 167.195 105.673 166.473 105.654 C 163.152 105.565 136.143 104.064 118.354 103.561 C 118.934 106.143 119.08 110.898 118.956 113.33 C 118.902 114.392 118.792 115.554 118.615 116.566 C 122.752 117.01 126.512 117.29 129.253 117.187 C 137.072 116.893 140.254 114.619 147.975 113.817 C 158.223 112.752 174.89 111.088 186.543 112.319 C 196.997 113.423 207.809 118.574 215.001 119.808 C 219.962 120.658 223.818 120.571 226.608 120.557 C 227.703 120.551 228.673 120.381 229.445 120.266 C 229.005 116.537 228.936 110.648 229.111 106.978 C 228.252 107.204 227.351 107.395 226.384 107.526 Z M 102.646 15.177 C 103.328 15.222 103.749 16.043 103.582 16.3 C 103.333 16.684 101.227 16.136 99.65 16.675 C 97.389 17.447 91.758 21.654 91.226 21.542 C 90.956 21.486 91.421 20.629 92.162 20.045 C 93.731 18.805 101.086 15.075 102.646 15.177 Z M 134.848 14.717 C 135.936 14.683 136.831 15.073 136.533 15.466 C 135.726 16.532 116.451 22.22 115.19 21.832 C 114.79 21.709 115.088 21.154 115.751 20.708 C 117.758 19.36 132.025 14.805 134.848 14.717 Z M 145.482 4.083 C 146.818 3.763 159.002 4.442 159.149 4.645 C 159.277 4.82 151.166 5.351 149.601 5.206 C 148.922 5.144 149.054 4.862 148.478 4.832 C 147.443 4.777 143.63 5.8 143.423 5.581 C 143.28 5.43 144.766 4.73 145.108 4.457 C 145.308 4.298 145.118 4.17 145.482 4.083 Z M 67.565 15.466 C 70.692 15.242 75.476 16.13 75.615 16.402 C 75.724 16.614 72.536 17.043 71.309 16.964 C 70.292 16.898 70.114 16.197 68.688 16.215 C 65.814 16.251 54.237 19.936 53.336 19.585 C 53.057 19.476 53.254 19.113 53.711 18.836 C 55.128 17.976 63.644 15.747 67.565 15.466 Z M 70.149 19.211 C 70.442 19.068 71.122 19.625 71.272 20.147 C 71.488 20.898 70.919 23.536 70.523 23.704 C 70.229 23.828 69.526 22.998 69.4 22.393 C 69.236 21.612 69.744 19.407 70.149 19.211 Z M 28.024 16.964 C 29.843 16.849 33.634 17.415 33.453 17.713 C 33.205 18.121 22.043 19.519 21.471 19.211 C 21.244 19.088 21.858 18.717 22.407 18.462 C 23.44 17.982 26.161 17.081 28.024 16.964 Z M 25.702 3.184 C 26.016 3.084 26.613 3.404 26.638 3.746 C 26.678 4.29 25.523 6.019 24.579 6.554 C 23.605 7.106 21.78 7.178 20.835 6.929 C 20.081 6.73 19.492 6.183 19.15 5.618 C 18.809 5.058 18.578 3.741 18.775 3.559 C 18.936 3.411 19.533 3.814 19.898 4.12 C 20.35 4.5 20.56 5.574 21.209 5.805 C 21.975 6.079 23.633 5.738 24.392 5.244 C 25.07 4.802 25.269 3.323 25.702 3.184 Z M 57.23 2.585 C 58.551 1.984 66.324 2.071 67.34 2.585 C 67.703 2.769 67.805 3.138 67.527 3.334 C 66.728 3.9 57.43 4.296 56.669 3.709 C 56.347 3.461 56.657 2.846 57.23 2.585 Z M 72.208 52.311 C 72.945 52.336 73.694 52.647 73.519 52.873 C 73.131 53.371 63.988 55.214 63.409 54.932 C 63.187 54.825 63.504 54.436 63.97 54.183 C 65.094 53.575 70.707 52.261 72.208 52.311 Z M 103.412 97.694 C 105.743 97.525 110.766 97.23 111.649 97.694 C 111.992 97.873 112.148 98.233 111.836 98.442 C 110.807 99.135 97.068 99.486 96.484 99.191 C 96.217 99.056 97.653 98.663 98.544 98.442 C 99.776 98.137 101.514 97.831 103.412 97.694 Z M 154.186 94.398 C 154.72 94.308 155.546 94.733 155.496 95.147 C 155.412 95.854 151.89 97.806 151.003 98.705 C 150.47 99.245 150.605 99.616 150.067 100.015 C 149.29 100.592 146.604 101.645 146.323 101.513 C 146.173 101.443 146.404 101.072 146.697 100.764 C 147.261 100.17 149.5 99.044 150.254 98.33 C 150.763 97.849 150.721 97.527 151.19 97.02 C 151.864 96.291 153.399 94.532 154.186 94.398 Z M 201.141 96.583 C 201.984 96.679 202.641 97.104 202.451 97.332 C 202.061 97.801 194.596 98.587 193.278 98.455 C 192.773 98.404 192.95 98.083 192.529 98.08 C 191.674 98.075 188.216 99.804 187.848 99.578 C 187.635 99.447 187.803 98.793 188.41 98.455 C 189.95 97.597 199.154 96.356 201.141 96.583 Z M 222.409 98.293 C 223.618 98.09 224.459 97.929 225.779 98.293 C 227.593 98.792 232.183 101.21 232.332 101.85 C 232.416 102.21 231.384 102.537 230.647 102.412 C 229.471 102.211 227.371 99.883 225.779 99.416 C 224.383 99.007 223.29 99.287 221.66 99.416 C 219.582 99.581 216.279 100.46 214.171 100.539 C 212.488 100.603 209.833 100.338 209.865 100.165 C 209.901 99.974 213.852 99.427 215.295 99.416 C 216.373 99.408 216.904 99.896 217.916 99.79 C 219.193 99.658 221.024 98.525 222.409 98.293 Z M 285.915 5.581 C 287.163 5.581 287.887 6.234 289.659 6.33 C 292.529 6.484 300.4 5.437 302.39 5.581 C 303.204 5.64 303.753 5.809 303.701 5.955 C 303.626 6.162 301.602 6.639 300.518 6.704 C 299.418 6.77 298.635 6.336 297.148 6.33 C 294.948 6.32 290.276 7.098 288.161 7.079 C 286.796 7.066 286.439 6.739 285.166 6.704 C 283.39 6.655 278.361 7.196 278.239 7.079 C 278.141 6.985 280.879 6.582 282.17 6.33 C 283.437 6.082 284.666 5.581 285.915 5.581 Z M 304.262 20.109 C 305.888 19.731 314.247 23.262 318.117 23.854 C 321.129 24.314 325.827 23.923 325.793 24.041 C 325.756 24.166 319.688 24.802 316.993 24.602 C 314.55 24.421 311.335 23.052 310.253 23.105 C 309.788 23.127 309.945 23.497 309.504 23.479 C 308.521 23.44 304.136 21.956 303.701 21.232 C 303.471 20.851 303.649 20.252 304.262 20.109 Z M 380.878 3.184 C 381.206 3.055 381.766 3.382 381.814 3.746 C 381.891 4.339 381.125 5.811 379.942 6.929 C 378.623 8.176 375.126 10.427 372.646 11.67 C 372.762 11.462 372.671 11.045 373.015 10.673 C 373.947 9.665 377.878 7.606 379.193 6.18 C 380.148 5.144 380.358 3.39 380.878 3.184 Z M 372.382 11.8 C 372.469 11.758 372.557 11.715 372.646 11.67 C 372.61 11.736 372.552 11.781 372.453 11.797 C 372.431 11.801 372.407 11.802 372.382 11.8 Z M 351.985 37.454 C 352.101 37.117 353.183 37.656 353.857 38.391 C 355.068 39.71 358.184 45.796 357.976 46.441 C 357.872 46.764 357.055 46.457 356.478 45.879 C 355.301 44.7 351.772 38.074 351.985 37.454 Z M 328.955 38.981 C 329.853 38.719 340.484 41.537 340.937 42.164 C 341.128 42.428 340.407 42.738 339.626 42.725 C 337.85 42.698 329.781 40.264 328.955 39.543 C 328.704 39.324 328.694 39.057 328.955 38.981 Z" style="stroke-width: 2px; fill: rgb(65, 37, 21);"/>
  <path stroke-width="0" d="M 111.801 17.748 C 113.232 17.747 116.421 18.311 116.856 19.433 C 117.315 20.618 115.547 23.766 114.047 24.862 C 112.514 25.983 108.939 26.195 107.682 25.986 C 106.961 25.866 106.66 25.565 106.371 25.049 C 106.001 24.387 105.683 23.018 105.997 22.054 C 106.357 20.948 107.773 19.593 108.805 18.871 C 109.727 18.226 110.634 17.748 111.801 17.748 Z" style="stroke-width: 2px; fill: rgb(65, 37, 21); stroke: rgb(105, 63, 38);"/>
  <path stroke-width="0" d="M 87.895 18.946 C 89.38 18.836 91.852 19.356 92.575 20.257 C 93.2 21.034 92.93 22.652 92.575 23.627 C 92.228 24.58 91.59 25.436 90.516 26.06 C 89.084 26.892 85.613 27.744 84.15 27.558 C 83.164 27.433 82.325 27.04 82.091 26.248 C 81.763 25.137 82.721 22.039 83.776 20.818 C 84.738 19.704 86.451 19.053 87.895 18.946 Z M 213.033 110.16 C 214.586 110.094 217.697 110.921 218.463 111.845 C 219.025 112.523 218.807 113.662 218.463 114.466 C 218.079 115.363 217.227 116.316 216.029 116.9 C 214.452 117.668 210.678 118.718 209.289 118.023 C 208.137 117.448 207.46 115.192 207.604 114.092 C 207.732 113.114 208.796 112.304 209.663 111.658 C 210.583 110.973 211.728 110.215 213.033 110.16 Z M 113.656 118.623 C 115.057 118.638 116.925 119.52 117.588 120.307 C 118.104 120.92 118.18 121.762 117.962 122.554 C 117.689 123.547 116.784 124.97 115.529 125.737 C 113.968 126.69 110.206 127.472 108.789 127.235 C 107.903 127.086 107.451 126.535 107.104 125.924 C 106.725 125.258 106.504 124.16 106.729 123.303 C 106.98 122.346 107.783 121.245 108.789 120.495 C 109.97 119.613 112.14 118.606 113.656 118.623 Z" style="stroke-width: 2px; fill: rgb(65, 37, 21);"/>
  <path stroke-width="0" d="M 126.007 109.376 C 126.92 108.903 133.919 109.267 136.679 110.125 C 138.864 110.804 140.518 112.131 141.734 113.308 C 142.747 114.289 142.731 115.772 143.793 116.491 C 144.996 117.305 148.813 117.291 148.848 117.614 C 148.88 117.905 146.148 118.624 144.916 118.363 C 143.647 118.094 142.141 116.883 141.359 115.929 C 140.681 115.101 140.768 113.619 140.236 113.121 C 139.829 112.74 139.156 112.95 138.738 112.746 C 138.36 112.561 138.472 112.247 137.802 111.997 C 136.122 111.372 126.983 110.848 126.007 110.125 C 125.685 109.886 125.692 109.54 126.007 109.376 Z M 191.722 123.144 C 193.21 123.137 194.825 123.454 194.53 123.705 C 193.91 124.233 177.402 126.621 176.369 126.139 C 176.069 125.999 176.274 125.636 176.744 125.39 C 178.24 124.606 188.823 123.157 191.722 123.144 Z M 268.332 118.843 C 268.828 118.865 269.471 119.181 269.269 119.592 C 268.709 120.729 256.627 126.811 255.789 126.707 C 255.48 126.668 255.872 126.056 256.35 125.583 C 257.361 124.585 262.082 122.01 263.278 121.277 C 263.812 120.95 263.733 120.963 264.214 120.716 C 265.062 120.279 267.49 118.807 268.332 118.843 Z M 295.817 117.706 C 296.144 117.694 296.786 118.057 296.753 118.267 C 296.71 118.54 295.292 118.873 294.88 119.204 C 294.582 119.443 294.653 119.681 294.319 119.952 C 293.774 120.395 292.053 120.925 291.51 121.45 C 291.136 121.812 291.31 122.166 290.949 122.573 C 290.406 123.186 288.782 123.999 288.14 124.633 C 287.669 125.098 287.545 125.86 287.204 125.943 C 286.913 126.015 286.29 125.69 286.268 125.382 C 286.237 124.942 287.075 124.112 287.953 123.322 C 289.285 122.125 293.209 119.759 294.132 119.016 C 294.507 118.714 294.454 118.648 294.693 118.455 C 294.989 118.215 295.46 117.719 295.817 117.706 Z" style="stroke-width: 2px; fill: rgb(50, 28, 16);"/>
  <path stroke-width="0" d="M -0.922 5.087 C 1.021 4.892 10.333 5.093 11.909 6.056 C 12.621 6.49 12.414 7.244 12.393 7.75 C 12.375 8.2 12.397 8.668 11.909 8.961 C 11.008 9.502 8.045 9.496 5.857 9.445 C 3.408 9.388 -1.001 9.262 -2.132 8.477 C -2.748 8.049 -2.637 7.289 -2.617 6.782 C -2.598 6.333 -2.415 5.854 -2.132 5.571 C -1.85 5.289 -1.699 5.166 -0.922 5.087 Z M 2.467 22.325 C 6.844 22.371 20.534 22.646 22.077 24.019 C 22.376 24.285 22.348 24.671 22.184 25.055 C 22.409 25.222 22.607 25.428 22.755 25.665 C 23.762 27.276 24.102 34.588 23.699 38.494 C 30.309 39.86 39.102 42.203 40.477 43.677 C 41.174 44.425 40.785 45.432 39.992 45.856 C 39.058 46.356 36.289 46.206 33.42 45.824 C 34.531 49.782 35.732 56.804 35.971 60.965 C 37.834 60.152 39.842 58.349 41.881 57.961 C 44.422 57.477 48.738 57.719 49.87 58.445 C 50.488 58.842 50.375 59.633 50.354 60.14 C 50.336 60.589 50.526 60.964 49.87 61.35 C 48.431 62.199 40.827 63.601 35.794 64.095 C 35.386 65.022 34.274 65.06 33.649 64.74 C 33.462 64.644 33.284 64.485 33.113 64.272 C 32.765 64.278 32.457 64.273 32.197 64.256 C 30.283 64.128 28.996 63.6 28.565 62.803 C 28.178 62.087 28.546 60.274 29.292 59.898 C 29.765 59.659 30.606 60.062 31.569 60.504 C 31.536 60.384 31.503 60.263 31.471 60.14 C 30.679 57.141 29.63 49.124 29.479 45.172 C 29.001 45.078 28.548 44.982 28.13 44.888 C 24.531 44.078 21.347 41.645 17.962 41.014 C 14.73 40.413 10.786 40.761 8.278 41.014 C 6.438 41.201 4.881 42.024 3.92 41.983 C 3.333 41.957 2.991 41.819 2.71 41.499 C 2.392 41.137 2.205 40.311 2.225 39.804 C 2.244 39.355 2.265 38.918 2.71 38.593 C 3.452 38.051 5.298 37.815 7.309 37.625 C 10.198 37.352 14.338 36.95 18.93 37.625 C 19.288 37.678 19.674 37.739 20.084 37.808 C 19.548 34.363 19.223 29.367 19.452 26.68 C 19.439 26.68 19.427 26.681 19.414 26.682 C 16.116 26.902 -0.782 26.95 -3.101 25.714 C -3.937 25.268 -3.606 24.526 -3.585 24.019 C -3.567 23.57 -3.576 23.1 -3.101 22.809 C -2.25 22.287 -0.178 22.297 2.467 22.325 Z M 48.466 72.681 C 51.691 72.525 58.298 72.979 61.097 73.821 C 61.099 73.812 61.101 73.803 61.103 73.794 C 61.259 73.162 61.468 73.134 61.829 73.068 C 62.328 72.976 63.44 72.849 64.008 73.794 C 65.038 75.506 66 84.145 65.779 88.307 C 69.422 89.523 74.813 92.029 76.113 93.307 C 76.765 93.948 76.618 94.495 76.597 95.002 C 76.579 95.451 76.783 96.092 76.113 96.212 C 74.041 96.585 56.869 91.142 55.293 89.191 C 54.654 88.401 55.239 87.401 56.019 87.013 C 56.914 86.567 59.145 86.756 61.447 87.197 C 61.111 84.128 60.91 79.711 60.926 76.742 C 58.597 77.148 52.757 75.878 49.434 76.07 C 46.161 76.258 41.702 78.073 40.477 77.522 C 39.841 77.237 39.972 76.335 39.992 75.828 C 40.011 75.379 39.955 74.99 40.477 74.617 C 41.567 73.838 45.326 72.832 48.466 72.681 Z M 76.162 100.764 C 77.28 100.515 84.179 100.69 85.119 101.732 C 85.724 102.403 85.27 104.099 84.393 104.637 C 83.077 105.444 78.49 104.115 76.162 104.153 C 74.275 104.184 72.659 104.68 71.32 104.637 C 70.26 104.603 69.107 104.699 68.657 104.153 C 68.193 103.591 67.978 101.817 68.657 101.248 C 69.622 100.438 74.722 101.542 75.677 101.248 C 76.054 101.132 75.762 100.852 76.162 100.764 Z M 78.873 113.159 C 80.459 112.267 87.218 112.703 90.009 113.159 C 92.02 113.487 94.147 114.048 94.609 114.854 C 94.951 115.449 94.237 116.598 93.883 117.032 C 93.621 117.354 93.601 117.463 92.915 117.517 C 90.955 117.67 79.38 116.614 78.147 115.338 C 77.563 114.734 78.03 113.633 78.873 113.159 Z M 369.243 81.977 C 370.134 82.86 369.758 84.38 368.517 84.882 C 365.866 85.954 349.218 82.901 343.949 81.095 C 343.553 82.28 343.176 83.128 342.855 83.43 C 342.172 84.073 341.121 83.212 340.676 82.703 C 340.217 82.179 340.107 81.652 340.191 80.282 C 340.276 78.9 340.923 75.542 341.702 72.14 C 337.463 71.671 333.184 71.11 332.314 71.485 C 331.8 71.707 332.144 72.484 332.072 72.453 C 331.977 72.413 331.204 70.987 331.83 70.516 C 332.795 69.791 338.02 69.682 342.261 69.784 C 343.034 66.645 343.838 63.868 344.307 63.093 C 344.661 62.51 344.904 62.565 345.275 62.609 C 345.758 62.666 346.728 62.772 346.97 63.82 C 347.176 64.711 346.946 67.129 346.488 69.98 C 346.708 69.997 346.907 70.014 347.082 70.032 C 348.819 70.208 349.803 71.245 350.471 71.001 C 350.961 70.821 350.891 69.632 351.197 69.548 C 351.47 69.474 352.148 69.915 352.166 70.274 C 352.191 70.774 351.766 72.008 350.471 72.453 C 349.695 72.72 348.044 72.703 346.035 72.557 C 345.738 74.123 345.396 75.719 345.039 77.193 C 350.352 77.6 367.324 80.074 369.243 81.977 Z M 347.842 62.416 C 348.545 62.148 350.511 62.177 353.107 62.403 C 353.033 57.414 353.514 50.499 354.524 49.149 C 355.228 48.206 356.911 48.594 357.429 49.149 C 357.579 49.31 357.659 49.526 357.693 49.791 C 359.981 49.012 365.633 48.629 370.967 48.443 C 370.466 43.147 370.907 33.195 372.051 31.815 C 372.28 31.539 372.612 31.4 372.975 31.381 C 373.186 31.044 373.469 30.744 373.649 30.556 C 374.005 30.185 374.103 30.059 375.102 30.072 C 378.028 30.109 394.939 32.751 397.132 34.671 C 398.066 35.489 397.576 36.891 397.132 37.334 C 396.689 37.778 396.017 37.532 394.469 37.334 C 391.563 36.963 380.396 35.317 375.323 33.792 C 375.884 36.895 375.741 43.886 375.176 48.332 C 377.476 48.288 379.483 48.277 380.815 48.277 C 384.125 48.277 387.156 48.215 387.836 49.004 C 388.27 49.507 388.225 50.587 387.11 51.182 C 385.011 52.303 373.704 53.502 365.612 53.68 C 365.303 54.987 364.817 56.565 364.454 57.153 C 364.15 57.644 363.951 57.558 363.485 57.879 C 362.731 58.399 360.354 60.171 360.096 60.058 C 359.916 59.979 360.553 58.984 360.822 58.605 C 361.046 58.29 361.198 58.358 361.548 57.879 C 361.976 57.294 362.96 55.384 363.869 53.703 C 360.828 53.711 358.459 53.54 357.574 53.119 C 357.528 53.097 357.484 53.074 357.44 53.05 C 357.436 53.121 357.432 53.192 357.429 53.264 C 357.341 55.182 357.21 59.359 356.959 62.819 C 364.833 63.807 375.009 65.801 376.409 67.015 C 377.193 67.695 376.772 68.748 375.925 69.194 C 374.119 70.145 365.951 69.005 361.157 68.226 C 359.765 68 358.104 67.715 356.421 67.39 C 356.358 67.666 356.29 67.884 356.218 68.032 C 355.943 68.601 355.621 68.56 355.25 68.516 C 354.767 68.459 353.913 68.343 353.555 67.306 C 353.505 67.162 353.46 66.979 353.418 66.763 C 350.515 66.103 348.02 65.346 347.358 64.594 C 346.76 63.917 346.821 62.805 347.842 62.416 Z M 395.728 10.123 C 398.145 9.692 400.05 10.006 402.023 10.607 C 404.006 11.212 406.717 12.718 407.591 13.754 C 408.139 14.405 408.308 15.178 408.075 15.691 C 407.82 16.252 407.006 16.885 405.896 16.902 C 403.977 16.93 399.947 13.52 396.697 13.512 C 393.197 13.503 387.169 17.94 385.56 17.386 C 384.66 17.076 384.262 15.599 384.834 14.723 C 385.858 13.154 392.622 10.677 395.728 10.123 Z M 333.752 92.048 C 335.609 91.91 340.028 91.91 340.772 92.774 C 341.284 93.368 341.062 94.794 340.046 95.438 C 338.045 96.706 327.183 96.63 325.036 96.406 C 324.229 96.322 324.06 96.311 323.826 95.922 C 323.504 95.386 323.165 93.579 323.826 93.017 C 324.423 92.509 326.275 92.764 327.98 92.937 C 327.753 90.573 327.744 86.694 327.881 85.575 C 327.968 84.858 328.136 84.391 328.365 84.364 C 328.61 84.335 329.151 84.844 329.333 85.575 C 329.658 86.875 328.787 91.366 328.826 93.013 C 329.41 93.057 329.944 93.072 330.362 93.017 C 331.743 92.835 332.345 92.153 333.752 92.048 Z M 340.206 55.894 C 341.211 55.602 345.153 56.848 346.259 57.831 C 347.059 58.542 347.364 60.249 347.227 60.494 C 347.146 60.639 346.73 60.396 346.501 60.252 C 346.243 60.09 346.258 59.8 345.774 59.525 C 344.753 58.945 339.969 58.153 339.48 57.346 C 339.202 56.888 339.624 56.063 340.206 55.894 Z M 371.776 56.281 C 372.16 56.353 372.819 57.224 372.502 57.734 C 371.864 58.76 364.021 61.1 363.786 61.123 C 363.628 61.139 365.995 60.096 366.934 59.671 C 367.742 59.304 368.618 59.082 369.113 58.702 C 369.489 58.413 369.49 58.076 369.839 57.734 C 370.299 57.283 371.325 56.197 371.776 56.281 Z M 331.394 66.352 C 331.756 66.2 332.139 66.773 332.847 66.837 C 334.014 66.941 337.072 66.317 338.173 66.352 C 338.785 66.372 339.222 66.352 339.383 66.594 C 339.545 66.837 339.61 67.529 339.141 67.805 C 338.128 68.401 331.32 68.423 330.668 67.805 C 330.331 67.486 331.024 66.508 331.394 66.352 Z M 272.032 19.483 C 272.928 19.264 278.592 22.174 279.053 23.114 C 279.284 23.586 278.869 24.257 278.327 24.325 C 277.275 24.455 272.44 21.929 271.79 20.935 C 271.449 20.413 271.575 19.594 272.032 19.483 Z M 273.485 2.052 C 274.379 2.081 275.702 2.55 275.663 2.778 C 275.619 3.039 273.683 3.184 272.516 3.504 C 271.146 3.88 268.257 5.251 267.916 4.957 C 267.664 4.739 268.417 3.493 269.127 3.02 C 270.055 2.402 272.318 2.013 273.485 2.052 Z M 324.615 1.664 C 325.835 1.174 332.11 1.963 332.604 2.633 C 332.882 3.008 332.174 3.845 331.394 4.085 C 330.035 4.503 324.476 3.812 323.889 3.117 C 323.572 2.741 323.972 1.923 324.615 1.664 Z M 391.627 3.407 C 391.863 3.533 391.995 4.053 391.87 4.618 C 391.645 5.631 389.64 9.194 389.207 9.218 C 388.902 9.235 388.825 7.832 388.964 7.039 C 389.131 6.086 389.866 4.457 390.417 3.892 C 390.79 3.509 391.386 3.279 391.627 3.407 Z M 389.788 19.483 C 389.967 19.394 390.124 21.683 390.03 23.114 C 389.91 24.935 389.053 29.533 388.819 29.651 C 388.645 29.738 388.502 27.821 388.577 26.503 C 388.681 24.678 389.553 19.599 389.788 19.483 Z M 382.525 39.238 C 382.751 39.228 382.916 40.31 382.767 40.932 C 382.577 41.727 381.372 43.582 381.072 43.595 C 380.866 43.604 380.733 42.9 380.83 42.385 C 380.979 41.597 382.221 39.251 382.525 39.238 Z M 363.593 36.332 C 363.812 35.994 364.326 36.12 364.561 36.575 C 365.188 37.787 365.01 47.347 364.561 48.195 C 364.435 48.433 364.213 48.434 364.077 48.195 C 363.588 47.335 363.003 37.245 363.593 36.332 Z M 33.492 34.396 C 35.024 33.71 49.777 36.509 50.439 37.301 C 50.739 37.66 49.516 38.177 48.26 38.269 C 45.641 38.462 34.882 36.959 33.492 35.848 C 32.945 35.411 32.922 34.651 33.492 34.396 Z M 42.208 29.166 C 43.089 28.964 49.624 32.509 50.439 33.766 C 50.851 34.402 50.409 35.433 50.197 35.461 C 49.959 35.492 49.661 34.053 48.986 33.524 C 48.131 32.853 45.99 32.552 45.113 32.072 C 44.52 31.747 44.371 31.343 43.902 31.103 C 43.409 30.85 42.479 30.968 42.208 30.619 C 41.956 30.296 41.79 29.262 42.208 29.166 Z M 58.476 34.396 C 59.677 33.881 70.196 36.589 70.581 37.301 C 70.801 37.707 68.485 38.333 67.676 38.269 C 67 38.216 66.871 37.608 65.981 37.301 C 64.446 36.77 59.326 36.634 58.476 35.848 C 58.039 35.444 57.968 34.614 58.476 34.396 Z M 23.808 48.244 C 24.1 48.123 26.052 49.74 26.713 50.422 C 27.207 50.931 27.434 51.407 27.682 51.875 C 27.902 52.291 28.322 52.957 28.166 53.086 C 27.979 53.241 26.63 52.787 26.229 52.359 C 25.853 51.958 26.079 51.07 25.745 50.665 C 25.422 50.273 24.615 50.33 24.292 49.938 C 23.959 49.533 23.59 48.334 23.808 48.244 Z M 43.079 66.352 C 44.108 65.699 52.035 66.119 52.763 66.837 C 53.119 67.188 52.703 67.995 52.037 68.289 C 50.716 68.872 44.051 68.534 43.079 67.805 C 42.61 67.453 42.598 66.658 43.079 66.352 Z M 57.169 80.491 C 57.75 80.818 59.399 86.561 59.348 86.785 C 59.316 86.922 58.764 85.813 58.38 85.091 C 57.851 84.097 56.4 81.957 56.443 81.217 C 56.467 80.801 56.894 80.336 57.169 80.491 Z M 70.92 80.491 C 70.998 80.478 72.827 86.919 72.615 87.512 C 72.543 87.713 72.286 87.715 72.131 87.512 C 71.675 86.916 70.842 80.504 70.92 80.491 Z M 98.81 106.444 C 100.431 106.436 110.777 110.871 111.641 112.254 C 112.005 112.836 111.461 113.622 110.914 113.706 C 109.969 113.853 106.289 111.24 105.346 110.559 C 104.893 110.232 105.104 110.128 104.62 109.833 C 103.573 109.194 98.415 107.808 98.083 107.17 C 97.93 106.874 98.241 106.446 98.81 106.444 Z M 150.279 107.606 C 151.638 106.923 160.299 109.444 164.563 109.542 C 168.242 109.627 173.747 108.005 174.489 108.574 C 174.848 108.849 174.582 109.658 173.763 110.027 C 171.577 111.01 158.864 110.981 154.879 110.511 C 152.571 110.238 150.865 109.727 150.279 109.058 C 149.917 108.645 149.737 107.878 150.279 107.606 Z M 87.189 106.637 C 87.695 106.919 88.957 111.779 88.884 111.963 C 88.836 112.084 88.27 110.935 87.915 110.269 C 87.48 109.452 86.415 107.973 86.463 107.363 C 86.493 106.979 86.932 106.494 87.189 106.637 Z M 140.741 123.778 C 144.857 123.382 153.115 124.297 154.056 125.23 C 154.461 125.631 154.051 126.436 153.33 126.683 C 151.71 127.236 144.298 124.747 141.225 124.746 C 139.048 124.745 137.429 125.324 136.141 125.714 C 135.196 126.001 134.873 126.342 133.962 126.683 C 132.754 127.135 129.655 128.315 129.362 128.135 C 129.194 128.032 129.492 127.531 130.088 127.167 C 131.54 126.281 136.911 124.146 140.741 123.778 Z M 233.512 125.714 C 234.738 125.716 237.124 126.396 236.659 126.683 C 235.533 127.378 208.429 129.04 206.639 128.135 C 206.181 127.904 206.345 127.416 206.881 127.167 C 208.707 126.318 223.646 127.692 228.186 127.167 C 230.831 126.861 232.004 125.713 233.512 125.714 Z M 331.415 81.266 C 331.753 81.227 332.411 85.532 333.836 86.592 C 335.333 87.704 340.274 87.203 340.373 87.56 C 340.456 87.859 337.577 88.544 336.257 88.528 C 334.999 88.514 333.389 88.115 332.626 87.56 C 332.039 87.133 331.87 86.647 331.658 85.865 C 331.358 84.763 331.109 81.301 331.415 81.266 Z M 9.379 26.939 C 9.562 26.845 10.182 29.178 11.316 30.086 C 12.847 31.312 18.205 32.17 18.579 32.992 C 18.783 33.439 17.796 33.916 17.368 34.202 C 16.985 34.458 16.715 34.505 16.158 34.686 C 15.307 34.963 13.722 35.763 12.527 35.655 C 11.3 35.544 9.154 34.554 8.895 33.96 C 8.724 33.569 9.113 32.86 9.621 32.749 C 10.478 32.563 13.435 34.702 14.463 34.686 C 15.073 34.677 15.77 34.309 15.674 33.96 C 15.502 33.335 11.371 32.354 10.348 31.055 C 9.462 29.931 9.187 27.038 9.379 26.939 Z M 5.409 10.477 C 5.515 10.178 6.38 10.644 6.862 11.203 C 7.677 12.15 8.353 15.893 9.282 16.771 C 9.878 17.334 11.171 16.956 11.219 17.255 C 11.271 17.579 9.971 19.002 9.282 18.708 C 8.114 18.208 5.198 11.072 5.409 10.477 Z M 323.2 14.641 C 323.261 14.491 323.74 19.489 324.169 21.661 C 324.563 23.66 325.94 26.782 325.621 27.23 C 325.429 27.5 324.548 27.224 324.169 26.503 C 323.328 24.905 323.126 14.825 323.2 14.641 Z M 355.835 19.192 C 356.61 18.883 361.981 20.237 363.582 21.371 C 364.754 22.201 364.959 23.878 365.519 24.518 C 365.877 24.928 366.159 24.85 366.487 25.244 C 366.961 25.814 368.109 27.753 367.94 27.908 C 367.772 28.061 366.132 26.888 365.519 26.213 C 364.946 25.582 364.677 24.536 364.308 24.034 C 364.049 23.682 364.088 23.614 363.582 23.308 C 362.412 22.6 356.602 21.01 355.835 20.16 C 355.511 19.802 355.503 19.325 355.835 19.192 Z M 293.761 16.965 C 293.803 16.713 294.312 17.074 294.73 17.691 C 295.838 19.328 299.986 30.033 300.056 30.522 C 300.088 30.745 299.573 29.803 299.088 28.827 C 298.052 26.745 293.655 17.617 293.761 16.965 Z M 241.227 20.064 C 241.908 20.547 244.098 28.779 243.89 29.505 C 243.827 29.723 243.599 29.716 243.406 29.505 C 242.777 28.821 240.374 22.054 240.5 20.79 C 240.553 20.264 240.951 19.868 241.227 20.064 Z M 238.418 2.826 C 239.096 2.805 241.038 4.528 241.808 4.763 C 242.248 4.898 242.212 4.806 242.776 4.763 C 244.076 4.665 248.449 2.828 250.523 3.795 C 252.692 4.806 253.274 9.623 255.365 11.058 C 257.298 12.384 261.674 11.747 262.386 12.51 C 262.764 12.916 262.388 13.741 262.144 13.963 C 261.938 14.15 261.593 14.008 261.175 13.963 C 260.568 13.897 259.44 13.659 258.754 13.479 C 258.188 13.33 257.904 13.212 257.302 12.994 C 256.475 12.696 255.155 12.679 254.155 11.784 C 252.77 10.546 252.22 6.193 250.281 5.247 C 248.297 4.279 244.493 6.635 242.292 6.216 C 240.427 5.861 237.908 4.163 237.692 3.553 C 237.58 3.236 238.021 2.839 238.418 2.826 Z M 311.295 96.663 C 312.361 96.8 313.147 97.287 312.989 97.631 C 312.722 98.215 309.126 99.183 305.969 99.568 C 301.299 100.138 289.124 99.922 286.601 99.568 C 285.743 99.448 285.56 99.391 285.39 99.084 C 285.213 98.761 285.076 97.919 285.632 97.631 C 286.861 96.995 292.36 98.688 296.285 98.6 C 300.794 98.497 308.874 96.352 311.295 96.663 Z M 317.541 96.953 C 317.65 96.859 317.98 97.253 318.509 97.68 C 319.649 98.599 324.657 102.091 324.804 103.006 C 324.876 103.457 324.097 103.764 323.593 103.732 C 322.897 103.688 321.797 102.797 320.93 102.037 C 319.934 101.165 318.559 99.594 318.025 98.648 C 317.657 97.996 317.414 97.063 317.541 96.953 Z M 95.63 -1.435 C 95.758 -1.622 97.961 -1.176 98.535 -0.466 C 99.152 0.297 99.19 2.025 99.019 3.165 C 98.853 4.281 98.244 5.626 97.567 6.313 C 96.984 6.904 96.234 6.925 95.388 7.281 C 94.356 7.715 91.966 8.897 91.757 8.734 C 91.6 8.611 92.379 7.719 92.967 7.281 C 93.716 6.722 95.476 6.317 96.114 5.828 C 96.533 5.508 96.588 5.332 96.841 4.86 C 97.221 4.149 98.027 2.489 98.051 1.713 C 98.067 1.182 97.864 0.938 97.567 0.502 C 97.167 -0.084 95.507 -1.255 95.63 -1.435 Z" style="stroke-width: 2px; fill: rgb(65, 37, 21);"/>
</svg>